<svg xmlns="http://www.w3.org/2000/svg" viewBox="0 0 35 40">
  <style>.color{fill:#000}</style>
    <path class="color" d="M3.181 0C1.431 0 0 1.406 0 3.125v33.75C0 38.594 1.431 40 3.181 40h19.091c1.75 0 3.182-1.406 3.182-3.125v-10h-1.272V32.5H1.272V6.25h22.91v2.5h1.272V3.125c0-1.719-1.43-3.125-3.18-3.125H3.18zm0 1.25h19.091c.506-.004.992.192 1.35.544.36.352.56.832.56 1.331V5H1.272V3.125c0-.5.201-.98.56-1.331a1.905 1.905 0 0 1 1.35-.544zm7 1.25a.642.642 0 0 0-.558.31.621.621 0 0 0 0 .63c.116.195.33.312.559.31h5.09a.642.642 0 0 0 .56-.31.621.621 0 0 0 0-.63.642.642 0 0 0-.56-.31h-5.09zm-2.577 0a.629.629 0 0 0-.633.624.635.635 0 0 0 1.27.001.634.634 0 0 0-.637-.625zm-3.786 5c-.35 0-.634.28-.636.625 0 .225.121.433.318.545.197.112.44.112.637 0a.628.628 0 0 0 .317-.545.632.632 0 0 0-.636-.625zm0 2.5c-.35 0-.634.28-.636.625 0 .225.121.433.318.545.197.112.44.112.637 0a.628.628 0 0 0 .317-.545A.632.632 0 0 0 3.82 10zm8.91 0c-1.4 0-2.546 1.125-2.546 2.5v10.625c0 1.374 1.146 2.5 2.546 2.5h3.18v4.008l4.082-4.008h12.464c1.4 0 2.546-1.126 2.546-2.5V12.5c0-1.375-1.146-2.5-2.546-2.5H12.728zm0 1.25h19.726c.711 0 1.274.552 1.274 1.25v10.625c0 .698-.563 1.25-1.274 1.25h-12.99l-2.283 2.24v-2.24h-4.454a1.266 1.266 0 0 1-.902-.362 1.238 1.238 0 0 1-.371-.888V12.5c0-.698.562-1.25 1.273-1.25zm-8.91 1.25c-.35 0-.634.28-.636.625 0 .348.285.63.636.63a.633.633 0 0 0 .636-.63.632.632 0 0 0-.636-.625zm0 2.5c-.35 0-.634.28-.636.625 0 .348.285.63.636.63a.633.633 0 0 0 .636-.63.632.632 0 0 0-.636-.625zm12.091.625v1.106l-.974-.552-.636 1.08.973.553-.973.554.636 1.08.974-.552V20h1.273v-1.106l.974.552.637-1.08-.975-.553.975-.555-.637-1.079-.974.552v-1.106h-1.273zm6.363 0v1.103l-.973-.549-.637 1.08.974.553-.974.554.637 1.08.973-.55V20h1.274v-1.104l.974.55.636-1.08-.974-.553.974-.555-.636-1.079-.974.55v-1.104h-1.274zm6.364 0v1.106l-.974-.552-.637 1.08.975.553-.975.554.637 1.08.974-.552V20h1.273v-1.106l.974.552.637-1.08-.974-.553.974-.555-.637-1.079-.974.552v-1.106h-1.273zM3.82 17.5c-.35 0-.635.28-.636.625 0 .348.285.63.636.63a.633.633 0 0 0 .636-.63.632.632 0 0 0-.636-.625zm0 2.5c-.35 0-.635.28-.636.625 0 .348.285.63.636.63a.633.633 0 0 0 .636-.63A.632.632 0 0 0 3.82 20zm0 2.5c-.35 0-.635.28-.636.625 0 .348.285.63.636.63a.633.633 0 0 0 .636-.63.632.632 0 0 0-.636-.625zm0 2.5c-.35 0-.635.28-.636.625 0 .225.121.433.318.545.197.112.44.112.636 0a.628.628 0 0 0 .318-.545A.632.632 0 0 0 3.82 25zm0 2.5c-.35 0-.635.28-.636.625 0 .348.285.63.636.63a.633.633 0 0 0 .636-.63.632.632 0 0 0-.636-.625zm0 2.5c-.35 0-.635.28-.636.625 0 .348.285.63.636.63a.633.633 0 0 0 .636-.63A.632.632 0 0 0 3.82 30zm-2.546 3.75h22.91v3.125c0 .5-.201.98-.56 1.331a1.905 1.905 0 0 1-1.35.544H3.182a1.905 1.905 0 0 1-1.35-.544 1.863 1.863 0 0 1-.56-1.331V33.75h.001zM12.728 35a1.28 1.28 0 0 0-.899.364 1.247 1.247 0 0 0-.375.886c.001.333.136.652.375.886.239.234.562.365.899.364.336.001.659-.13.898-.364A1.25 1.25 0 0 0 14 36.25a1.247 1.247 0 0 0-.374-.886 1.275 1.275 0 0 0-.898-.364z"/>
</svg>
