<svg xmlns="http://www.w3.org/2000/svg" viewBox="0 0 18 42">
  <style>.color{stroke:#000}</style>
    <g fill-rule="nonzero" stroke="#000" stroke-width="2" fill="none">
        <path class="color" d="M9 1a4.676 4.676 0 0 0-4.667 4.667A4.676 4.676 0 0 0 9 10.333a4.676 4.676 0 0 0 4.667-4.666A4.676 4.676 0 0 0 9 1zM6.333 11.667A5.344 5.344 0 0 0 1 17v9.813a3.343 3.343 0 0 0 2.68 3.27l.653.13v8.12C4.333 39.8 5.533 41 7 41c.807 0 1.51-.385 2-.959.49.574 1.193.959 2 .959 1.467 0 2.667-1.2 2.667-2.667v-8.12l.653-.13a3.343 3.343 0 0 0 2.68-3.27V17a5.344 5.344 0 0 0-5.333-5.333H6.333z"/>
    </g>
</svg>
