<svg xmlns="http://www.w3.org/2000/svg" viewBox="0 0 18 40">
  <style>.color{fill:#000}</style>
  <path d="M9 0C6.03 0 3.601 2.347 3.601 5.217c0 2.87 2.429 5.218 5.399 5.218s5.399-2.347 5.399-5.218C14.399 2.347 11.97 0 9 0zm0 1.74c2 0 3.6 1.545 3.6 3.478C12.6 7.15 11 8.696 9 8.696S5.4 7.15 5.4 5.217C5.4 3.285 7 1.74 9 1.74zm-4.049 9.564c-2.72 0-4.948 2.154-4.948 4.783v9.837a.562.562 0 0 0 0 .109v.054a.82.82 0 0 0 .028.244c.133 1.315 1.28 2.365 2.671 2.365.316 0 .615-.065.9-.163v8.423C3.602 38.63 5.021 40 6.75 40c.878 0 1.676-.357 2.25-.924a3.195 3.195 0 0 0 2.25.924c1.729 0 3.149-1.372 3.149-3.043v-8.425c.284.099.583.163.9.163 1.43 0 2.62-1.107 2.698-2.473a.877.877 0 0 0 0-.136v-10c0-2.629-2.228-4.782-4.948-4.782H4.95zm0 1.74h8.098c1.746 0 3.149 1.358 3.149 3.042V26.17c-.043.452-.422.788-.9.788-.51 0-.9-.377-.9-.87v-7.826H12.6v7.663a.562.562 0 0 0 0 .11v10.923c0 .73-.594 1.304-1.35 1.304-.71 0-1.283-.502-1.35-1.168-.003-.044 0-.092 0-.136v-10H8.1v10.136c-.066.666-.639 1.168-1.349 1.168-.756 0-1.35-.573-1.35-1.304V18.261h-1.8v7.826c0 .493-.39.87-.9.87-.488 0-.87-.35-.9-.816v-.054a.633.633 0 0 0 0-.163v-9.837c0-1.685 1.404-3.043 3.15-3.043z" fill="#000" fill-rule="nonzero"/>
</svg>
