<svg xmlns="http://www.w3.org/2000/svg" xmlns:xlink="http://www.w3.org/1999/xlink" viewBox="0 0 57 70">
    <style>
        .fill-color{fill:#000}.stroke-color{stroke:#000}
    </style>
    <defs>
        <path class="fill-color" d="M9.437 22.133a2.38 2.38 0 0 1-1.305-.367c-.386-.246-.692-.65-.921-1.211-.229-.563-.343-1.297-.343-2.202 0-1.377.288-2.397.864-3.063.577-.665 1.439-.997 2.587-.997.247 0 .523.016.826.049v-3.654h1.064V22h-.917l-.077-.77h-.07a1.95 1.95 0 0 1-.7.654c-.294.166-.63.249-1.008.249zm.259-.938a1.66 1.66 0 0 0 1.449-.861v-5.082a4.375 4.375 0 0 0-.43-.06 4.912 4.912 0 0 0-.466-.024c-.76 0-1.331.238-1.712.714-.38.476-.57 1.265-.57 2.366 0 .77.073 1.37.22 1.802.148.432.347.73.599.896.252.166.555.249.91.249zm6.734.938c-1.876 0-2.814-1.307-2.814-3.92 0-1.367.241-2.364.725-2.989.483-.625 1.179-.938 2.089-.938.896 0 1.588.315 2.076.945.487.63.731 1.622.731 2.975 0 1.363-.241 2.358-.724 2.986-.484.627-1.178.941-2.083.941zm0-.868c.373 0 .684-.091.931-.273.247-.182.439-.495.574-.938.135-.443.203-1.05.203-1.82 0-.784-.068-1.402-.203-1.855-.135-.453-.328-.77-.577-.952-.25-.182-.56-.273-.928-.273-.373 0-.685.09-.934.27-.25.18-.443.492-.578.938-.135.445-.203 1.053-.203 1.823 0 .784.068 1.402.203 1.855.135.453.328.77.578.952.25.182.56.273.934.273zm6.825.868c-.97 0-1.702-.308-2.194-.924-.493-.616-.739-1.617-.739-3.003 0-.943.125-1.702.375-2.278.25-.577.61-.994 1.085-1.254.473-.259 1.065-.388 1.774-.388.453 0 .875.049 1.267.147v.931a4.511 4.511 0 0 0-1.106-.147c-.537 0-.97.091-1.298.273-.33.182-.576.488-.739.917-.163.43-.245 1.017-.245 1.764 0 .765.075 1.368.224 1.81.15.44.371.754.665.941.294.187.672.28 1.134.28.383 0 .838-.089 1.365-.266v.924a4.701 4.701 0 0 1-1.568.273zm3.99 0c-.611 0-1.19-.096-1.736-.287v-.903c.616.196 1.19.294 1.722.294.527 0 .929-.11 1.204-.332.275-.222.413-.538.413-.949 0-.35-.084-.62-.252-.808-.168-.19-.427-.333-.777-.431l-.77-.203c-.597-.163-1.03-.412-1.299-.745-.268-.334-.402-.772-.402-1.313 0-.425.103-.8.308-1.127.205-.327.507-.582.907-.767.399-.184.878-.276 1.438-.276.509 0 1.001.056 1.477.168v.91a5.824 5.824 0 0 0-1.435-.175c-.57 0-.994.117-1.274.35a1.12 1.12 0 0 0-.42.903c0 .317.08.568.241.753.162.184.412.325.753.423l.77.21c.625.168 1.071.42 1.337.756s.399.782.399 1.337c0 .457-.104.853-.311 1.187a1.977 1.977 0 0 1-.896.762c-.39.176-.856.263-1.397.263zm2.968 1.547l2.492-12.992h1.043L31.256 23.68h-1.043z" id="a"/>
    </defs>
    <g fill="none" fill-rule="evenodd">
        <path class="stroke-color" stroke="#4A90E2" stroke-width="2" fill="#FFF" d="M37 38h12.294L56 44.358V60H37z"/>
        <path class="stroke-color" stroke="#4A90E2" stroke-width="2" d="M49 38v7h6"/>
        <path class="stroke-color" stroke="#4A90E2" stroke-width="2" fill="#FFF" d="M30 47h12.294L49 53.358V69H30z"/>
        <path class="stroke-color" stroke="#4A90E2" stroke-width="2" d="M42 47v7h6"/>
        <path class="stroke-color" d="M14 36v20h14.597" stroke="#4A90E2" stroke-width="2" stroke-linecap="round" stroke-linejoin="round" stroke-dasharray="0,4"/>
        <g transform="translate(1 1)">
            <use fill="#000" xlink:href="#a"/>
            <use fill="#4A90E2" xlink:href="#a"/>
        </g>
        <path class="stroke-color" d="M16.757 4.875H41a2 2 0 0 1 2 2V30a2 2 0 0 1-2 2H3a2 2 0 0 1-2-2V3a2 2 0 0 1 2-2h9.968a2 2 0 0 1 1.63.84l2.16 3.035h-.001z" stroke="#4A90E2" stroke-width="2" stroke-linejoin="round"/>
    </g>
</svg>
