<svg xmlns="http://www.w3.org/2000/svg" viewBox="0 0 32 40">
  <style>.color{fill:#000}</style>
    <g fill-rule="nonzero" fill="none">
        <path d="M17.122 5.806L9.6 10.438v8.8l1.954 1.17v-8.8l5.57-3.442 5.574 3.436.024.014-.004 8.78 1.935-1.157v-8.8l-7.531-4.632zm.996 15.71l-.996.617-.996-.622V11.233l-2.581 1.614v8.8l3.577 2.224 3.606-2.24v-8.79l-2.61-1.616v10.29z" fill="#F37B1F"/>
        <path d="M0 0v40h32V6.184L25.865 0H0zm1.28 1.29h22.4v7.096h7.04V38.71H1.28V1.29zM24.96.912l6.135 6.185H24.96V.912zM4.48 2.581a.645.645 0 0 0 0 1.29.645.645 0 0 0 0-1.29zm0 2.58a.645.645 0 0 0 0 1.291.645.645 0 0 0 0-1.29zm0 2.58a.645.645 0 0 0 0 1.291c.352 0 .64-.29.64-.645a.644.644 0 0 0-.64-.645zm0 2.581c-.352 0-.64.29-.64.646 0 .355.288.645.64.645.352 0 .64-.29.64-.645a.644.644 0 0 0-.64-.646zm0 2.581c-.352 0-.64.29-.64.645 0 .356.288.646.64.646a.644.644 0 0 0 0-1.29zm0 2.581a.645.645 0 0 0 0 1.29.645.645 0 0 0 0-1.29zm0 2.58a.645.645 0 0 0 0 1.291.645.645 0 0 0 0-1.29zm0 2.58a.645.645 0 0 0 0 1.291c.352 0 .64-.29.64-.645a.644.644 0 0 0-.64-.645zm0 2.582a.645.645 0 0 0 0 1.29c.352 0 .64-.29.64-.645a.644.644 0 0 0-.64-.645zm9.21 1.936c-.877 0-1.603.584-2.072 1.352-.472.772-.738 1.77-.738 2.861 0 .912.267 2.034.867 3.007.093.148.256.25.366.39-.37.32-.946.885-.946.885a.65.65 0 0 0-.182.894.638.638 0 0 0 .888.18s.692-.653 1.16-1.052c.485.303 1.04.515 1.687.515.928 0 1.685-.3 2.238-.747.552-.448.907-1.02 1.162-1.554.205-.434.328-.795.445-1.109.05.14.088.237.148.403.122.34.262.715.522 1.059.26.342.712.657 1.245.657.587 0 1.027-.383 1.31-.76.28-.379.483-.802.69-1.196.21-.39.42-.75.622-.97.205-.219.348-.3.578-.3a.642.642 0 0 0 .562-.32.656.656 0 0 0 0-.65.642.642 0 0 0-.562-.32c-.627 0-1.155.323-1.51.708-.357.386-.6.832-.82 1.248-.217.413-.412.796-.583 1.023-.172.227-.234.248-.287.248-.105 0-.12-.008-.227-.15-.106-.14-.228-.41-.336-.715-.107-.303-.202-.633-.352-.948a1.614 1.614 0 0 0-.312-.469 1.032 1.032 0 0 0-.693-.3c-.358 0-.635.237-.775.426-.14.192-.22.378-.303.58-.162.4-.31.862-.515 1.296-.207.432-.467.828-.81 1.105-.344.28-.767.464-1.437.464-.267 0-.465-.12-.682-.204C15.03 31.496 16 29.823 16 27.742c0-.555-.145-1.154-.512-1.67a2.206 2.206 0 0 0-1.798-.91zm-9.21.644c-.352 0-.64.29-.64.646 0 .355.288.645.64.645.352 0 .64-.29.64-.645a.644.644 0 0 0-.64-.646zm9.21.646c.4 0 .59.138.76.375.17.24.27.605.27.915 0 1.684-.845 3.112-1.71 4.153-.052-.073-.125-.113-.176-.192-.447-.728-.674-1.693-.674-2.328 0-.874.227-1.658.547-2.182.318-.525.68-.741.983-.741zm-9.21 1.935c-.352 0-.64.29-.64.645 0 .356.288.646.64.646a.644.644 0 0 0 0-1.29zm0 2.581a.645.645 0 0 0 0 1.29.645.645 0 0 0 0-1.29zm0 2.58a.645.645 0 0 0 0 1.29.644.644 0 1 0 0-1.29zm0 2.58a.645.645 0 0 0 0 1.291c.352 0 .64-.29.64-.645a.644.644 0 0 0-.64-.645z" fill="#000"/>
    </g>
</svg>
