<svg xmlns="http://www.w3.org/2000/svg" viewBox="0 0 42 40">
  <style>.color{fill:#000}</style>
    <path class="color" d="M37.227 0a2.23 2.23 0 0 0-2.217 2.17 28.546 28.546 0 0 1-19.1 7.354H7c-.833 0-1.541.548-1.8 1.297-2.908.265-5.2 2.716-5.2 5.687v1.27c0 2.924 2.247 5.252 5.09 5.585v.13h.113a1.942 1.942 0 0 0 1.273 1.187c2.513 2.611 3.462 7.843 3.745 12.13.15 2.213 2.377 3.716 4.487 3.014l2.215-.736c1.723-.576 2.71-2.416 2.2-4.165-.566-1.952-1.469-2.758-2.043-5.082h.631c1.104 0 1.972-.994 1.82-2.083l-.388-2.805a28.588 28.588 0 0 1 15.867 7.163 2.23 2.23 0 0 0 2.217 2.17 2.234 2.234 0 0 0 2.228-2.223V20.19a3.106 3.106 0 0 0 2.416-2.411H42v-.635c0-1.528-1.099-2.813-2.545-3.11V2.223A2.234 2.234 0 0 0 37.227 0zm0 1.27c.535 0 .955.419.955.952v29.841c0 .534-.42.953-.955.953a.944.944 0 0 1-.954-.953v-.546l-.206-.187c-5.34-4.892-12.286-7.622-19.522-7.778V10.734c7.237-.156 14.182-2.887 19.522-7.778l.206-.188v-.546c0-.533.42-.952.954-.952zm-1.59 3.81a.638.638 0 0 0-.637.634.638.638 0 0 0 1.273 0 .638.638 0 0 0-.637-.635zm0 2.539a.638.638 0 0 0-.637.635.638.638 0 0 0 1.273 0 .638.638 0 0 0-.637-.635zm0 2.54a.638.638 0 0 0-.637.635.638.638 0 0 0 1.273 0 .638.638 0 0 0-.637-.635zM7 10.794h8.273v12.698H7a.625.625 0 0 1-.636-.635V11.43c0-.36.276-.635.636-.635zm-1.91 1.398v9.901a4.514 4.514 0 0 1-2.987-1.776h.442v-1.27H1.464c-.121-.399-.191-.825-.191-1.27h1.272v-1.27H1.273c0-.444.07-.87.19-1.269h1.082v-1.27h-.442a4.514 4.514 0 0 1 2.988-1.776zm3.183.506v1.27h2.545v-1.27H8.273zm27.363 0a.638.638 0 0 0-.636.635.638.638 0 0 0 1.273 0 .638.638 0 0 0-.637-.635zm0 2.54a.638.638 0 0 0-.636.635.638.638 0 0 0 1.273 0 .638.638 0 0 0-.637-.635zm3.819.26c.708.279 1.272.834 1.272 1.645 0 .81-.564 1.366-1.272 1.644v-3.289zm-31.182 1.01v1.27h2.545v-1.27H8.273zm27.363 1.27a.638.638 0 0 0-.636.635.638.638 0 0 0 1.273 0 .638.638 0 0 0-.637-.635zm-27.363 2.54v1.27h2.545v-1.27H8.273zm27.363 0a.638.638 0 0 0-.636.634.638.638 0 0 0 1.273 0 .638.638 0 0 0-.637-.635zm0 2.54a.638.638 0 0 0-.636.634.638.638 0 0 0 1.273 0 .638.638 0 0 0-.637-.635zm-27.59 1.904h7.269c.122 7.01 1.857 8.006 2.588 10.516a2.12 2.12 0 0 1-1.385 2.606l-2.213.734a2.123 2.123 0 0 1-2.811-1.892c-.268-4.003-1.074-8.797-3.447-11.964zm8.509.013c.43.012.86.031 1.29.061l.428 3.093a.553.553 0 0 1-.562.642h-.884c-.152-.992-.25-2.234-.271-3.796h-.001zm19.081.622a.638.638 0 0 0-.636.635.638.638 0 0 0 1.273 0 .638.638 0 0 0-.637-.635zm0 2.54a.638.638 0 0 0-.636.634.638.638 0 0 0 1.273 0 .638.638 0 0 0-.637-.634z" fill="#000" fill-rule="nonzero"/>
</svg>
