<svg xmlns="http://www.w3.org/2000/svg" viewBox="0 0 42 47">
    <style>
        .color{fill:#000}
    </style>
    <path class="color" d="M18 0v8h-2v2h3.266L7.07 31.002A1 1 0 0 0 7 31s-3.51-.067-5.168-2.555a1 1 0 1 0-1.664 1.11c1.647 2.47 4.33 3.157 5.793 3.355L1.264 41H13.82l-.629 3.768-2.949-.739a1 1 0 1 0-.484 1.942l4 1a1 1 0 0 0 1.228-.807L15.848 41h11.304l.862 5.164a1 1 0 0 0 1.302.785l3-1a1 1 0 1 0-.632-1.898l-1.891.63L29.18 41h11.556l-4.697-8.09c1.463-.198 4.146-.885 5.793-3.355a1 1 0 1 0-1.664-1.11C38.509 30.933 35 31 35 31a1 1 0 0 0-.068.002L22.734 10H26V8h-2V0h-6zm2 2h2v6h-2V2zm1 8.992l4.076 7.022C23.986 17.42 22.645 17 21 17c-1.644 0-2.984.416-4.072 1.004L21 10.992zM21 19c4.201 0 5.567 2.905 5.826 3.504C26.572 23.104 25.234 26 21 26c-4.239 0-5.576-2.904-5.828-3.5.252-.596 1.59-3.5 5.828-3.5zm0 0s-1 1.75-1 3.5 1 3.5 1 3.5 1-1.75 1-3.5-1-3.5-1-3.5zm-7.43 4.787C14.483 25.263 16.741 28 21 28s6.517-2.737 7.43-4.213L32.617 31H9.383l4.187-7.213zM8.223 33H15v2H7.06l1.163-2zM17 33h8v2h-8v-2zm10 0h6.777l1.162 2H27v-2zm9 3.826L37.262 39H33v-2h3v-.174zM5.9 37H9v2H4.738L5.9 37zm5.1 0h9v2h-4.828a1 1 0 0 0-.338 0H11v-2zm11 0h9v2h-2.846a1 1 0 0 0-.318 0H22v-2z"/>
</svg>
