<svg xmlns="http://www.w3.org/2000/svg" viewBox="0 0 99 80">
    <style>
        .color{fill:#000}
    </style>
    <g transform="translate(1 1)" fill="none" fill-rule="evenodd">
        <path class="color" d="M82.57 47.483c2.74-.446 5.181-1.157 7.155-2.045 1.722-.774 3.082-1.68 3.968-2.626.887-.945 1.313-1.87 1.313-2.812 0-.941-.426-1.867-1.313-2.813-.886-.945-2.246-1.851-3.968-2.624C86.279 33.011 81.408 32 76.005 32c-5.401 0-10.273 1.012-13.718 2.563-1.723.773-3.082 1.68-3.969 2.624-.886.946-1.312 1.872-1.312 2.813 0 .941.426 1.867 1.312 2.813.887.945 2.246 1.851 3.97 2.624 2.043.92 4.588 1.65 7.447 2.092l1.059-9.168h1.938v8.579a.51.51 0 0 0 .254.453.51.51 0 0 0 .52 0 .51.51 0 0 0 .255-.453v-8.58h1.88v8.58a.51.51 0 0 0 .255.453.51.51 0 0 0 .52 0 .51.51 0 0 0 .254-.453v-8.58h1.882v8.58a.51.51 0 0 0 .254.453.51.51 0 0 0 .52 0 .51.51 0 0 0 .254-.453v-8.58l1.937.002 1.053 9.12zM69.504 49.53c-3.047-.456-5.792-1.228-8.06-2.249-1.817-.816-3.317-1.793-4.438-2.937v5.468a.753.753 0 0 1 0 .188c0 .941.426 1.867 1.312 2.813.887.945 2.246 1.851 3.97 2.624 2.921 1.316 6.869 2.243 11.296 2.495V54.55c.007.01-.038-.624-.062-.58a.516.516 0 0 0-.452-.27h-.423a3.242 3.242 0 0 1-3.25-3.241l.107-.929zm13.297-.045l.112.975a3.242 3.242 0 0 1-3.248 3.24h-.423a.516.516 0 0 0-.452.27c-.024-.044-.07.59-.062.582v3.362c4.305-.276 8.14-1.191 10.997-2.477 1.722-.773 3.082-1.68 3.968-2.624.887-.946 1.313-1.872 1.313-2.813v-5.656c-1.121 1.144-2.621 2.12-4.438 2.937-2.195.988-4.837 1.743-7.767 2.204zm-9.217 10.452c-4.682-.245-8.898-1.196-12.14-2.656-1.817-.816-3.317-1.793-4.438-2.937v5.468a.753.753 0 0 1 0 .188c0 .941.426 1.867 1.312 2.813.887.945 2.246 1.851 3.97 2.624 2.921 1.316 6.869 2.243 11.296 2.495v-7.995zm5.144-.017v7.994c4.305-.276 8.14-1.191 10.997-2.477 1.722-.773 3.082-1.68 3.968-2.624.887-.946 1.313-1.872 1.313-2.813v-5.656c-1.121 1.144-2.621 2.12-4.438 2.937-3.173 1.428-7.278 2.37-11.84 2.64zm-5.144 10.017c-4.682-.245-8.898-1.196-12.14-2.656-1.817-.816-3.317-1.793-4.438-2.937V69c0 .941.426 1.867 1.312 2.813.887.945 2.246 1.851 3.97 2.624C65.731 75.989 70.603 77 76.005 77c5.402 0 10.273-1.012 13.719-2.563 1.722-.773 3.082-1.68 3.968-2.624.887-.946 1.313-1.872 1.313-2.813v-4.656c-1.121 1.144-2.621 2.12-4.438 2.937-3.173 1.428-7.278 2.37-11.84 2.64v1.752c0 .66-.25 1.314-.754 1.819a2.564 2.564 0 0 1-3.637 0 2.556 2.556 0 0 1-.753-1.819v-1.736zM76.006 30c5.644 0 10.77 1.012 14.562 2.719 1.895.851 3.457 1.883 4.594 3.093 1.137 1.211 1.844 2.645 1.844 4.188v29c0 1.543-.707 2.977-1.844 4.188-1.137 1.21-2.7 2.242-4.594 3.093C86.775 77.988 81.65 79 76.006 79c-5.645 0-10.77-1.012-14.563-2.719-1.894-.851-3.457-1.883-4.593-3.094-1.137-1.21-1.844-2.644-1.844-4.187v-9a.753.753 0 0 1 0-.188V50a.753.753 0 0 1 0-.188V40c0-1.543.707-2.977 1.844-4.188 1.136-1.21 2.699-2.242 4.593-3.093C65.236 31.012 70.361 30 76.006 30z" fill="#4A90E2" fill-rule="nonzero"/>
        <rect stroke="#000" stroke-width="2" x=".828" y="33" width="40" height="23" rx="4"/>
        <circle fill="#000" cx="8.5" cy="37.5" r="1.5"/>
        <circle fill="#000" cx="8.5" cy="43.5" r="1.5"/>
        <circle fill="#000" cx="8.5" cy="49.5" r="1.5"/>
        <path class="color" d="M70.319 14.636l-.228-.746 1.912-.586.293.957.072.24 6.19-.407-6.067 14.43-7.903-13.512 5.73-.376zM21.999 27.39l-.037 1-1.998-.075.037-.999a49.17 49.17 0 0 1 .116-2.037l.079-.997 1.994.156-.079.997c-.05.639-.087 1.29-.112 1.955zm.602-5.828l-.176.984-1.969-.352.176-.984c.123-.688.263-1.36.42-2.015l.233-.973 1.945.466-.233.973c-.148.617-.28 1.25-.396 1.9zm1.547-5.596l-.365.931-1.862-.73.365-.93c.257-.656.536-1.292.836-1.906l.438-.899 1.798.877-.44.9a23.89 23.89 0 0 0-.77 1.757zm2.769-5.063l-.595.803-1.608-1.19.596-.804c.418-.565.861-1.106 1.329-1.623l.67-.741 1.484 1.341-.67.742c-.425.468-.826.96-1.206 1.472zM30.92 6.89l-.802.597-1.194-1.604.802-.597a22.39 22.39 0 0 1 1.737-1.17l.854-.52 1.04 1.71-.855.519A20.39 20.39 0 0 0 30.92 6.89zm5.06-2.784l-.93.368-.736-1.86.93-.368c.632-.25 1.283-.48 1.953-.69l.955-.3.599 1.909-.955.299c-.624.196-1.23.41-1.817.642zm5.645-1.576l-.984.179L40.286.74l.984-.179a39.87 39.87 0 0 1 2.028-.312l.992-.127.254 1.984-.992.127c-.657.084-1.299.183-1.926.296zm5.714-.612l-1 .042-.084-1.998 1-.042a54.74 54.74 0 0 1 2.036-.048l1-.005.01 2-1 .005c-.666.004-1.32.019-1.962.046zm5.865.116l-.996-.094.187-1.99.996.093c.7.065 1.38.15 2.045.253l.988.154-.308 1.976-.988-.154a31.75 31.75 0 0 0-1.924-.238zm5.705 1.113l-.953-.303.605-1.906.953.302a22.64 22.64 0 0 1 1.963.722l.922.388-.777 1.843-.922-.388a20.727 20.727 0 0 0-1.79-.658zm5.117 2.494l-.816-.578 1.157-1.632.816.578c.58.412 1.131.854 1.653 1.327l.741.67-1.343 1.483-.74-.671a15.74 15.74 0 0 0-1.468-1.177zm3.92 4.004l-.562-.827 1.654-1.124.562.828c.39.574.753 1.177 1.087 1.808l.468.884-1.768.936-.468-.884c-.3-.567-.624-1.107-.973-1.62z" fill="#BD3C39" fill-rule="nonzero"/>
    </g>
</svg>
