<svg xmlns="http://www.w3.org/2000/svg" viewBox="0 0 102 71">
    <style>
        .color{fill:#000}
    </style>
    <g fill="none">
        <path class="color" d="M54.5 21c-1.37 0-2.5 1.13-2.5 2.5v10c0 1.37 1.13 2.5 2.5 2.5h15c1.37 0 2.5-1.13 2.5-2.5v-10c0-1.37-1.13-2.5-2.5-2.5h-15zM62 36a.835.835 0 0 0-.833.833c0 .46.374.834.833.834a.835.835 0 0 0 .833-.834A.835.835 0 0 0 62 36zm-7.5-13.333h15c.472 0 .833.361.833.833v10a.819.819 0 0 1-.833.833h-15a.819.819 0 0 1-.833-.833v-10c0-.472.361-.833.833-.833zm2.5 1.666a.835.835 0 0 0-.833.834c0 .459.374.833.833.833a.835.835 0 0 0 .833-.833.835.835 0 0 0-.833-.834zm0 3.334a.835.835 0 0 0-.833.833c0 .459.374.833.833.833a.835.835 0 0 0 .833-.833.835.835 0 0 0-.833-.833zM57 31a.835.835 0 0 0-.833.833c0 .46.374.834.833.834a.835.835 0 0 0 .833-.834A.835.835 0 0 0 57 31zm27.5 5c-1.37 0-2.5 1.13-2.5 2.5v4.167a.835.835 0 0 0-.833.833c0 .459.374.833.833.833V48.5c0 1.37 1.13 2.5 2.5 2.5h15c1.37 0 2.5-1.13 2.5-2.5v-10c0-1.37-1.13-2.5-2.5-2.5h-15zm0 1.667h15c.472 0 .833.361.833.833v10a.819.819 0 0 1-.833.833h-15a.819.819 0 0 1-.833-.833v-10c0-.472.361-.833.833-.833zM62 39.333a.835.835 0 0 0-.833.834c0 .459.374.833.833.833a.835.835 0 0 0 .833-.833.835.835 0 0 0-.833-.834zm25 0a.835.835 0 0 0-.833.834c0 .459.374.833.833.833a.835.835 0 0 0 .833-.833.835.835 0 0 0-.833-.834zm-25 3.334a.835.835 0 0 0-.833.833c0 .459.374.833.833.833a.835.835 0 0 0 .833-.833.835.835 0 0 0-.833-.833zm3.333 0a.835.835 0 0 0-.833.833c0 .459.374.833.833.833a.835.835 0 0 0 .834-.833.835.835 0 0 0-.834-.833zm3.334 0a.835.835 0 0 0-.834.833c0 .459.375.833.834.833a.835.835 0 0 0 .833-.833.835.835 0 0 0-.833-.833zm3.333 0a.835.835 0 0 0-.833.833c0 .459.374.833.833.833a.835.835 0 0 0 .833-.833.835.835 0 0 0-.833-.833zm3.333 0a.835.835 0 0 0-.833.833c0 .459.374.833.833.833a.835.835 0 0 0 .834-.833.835.835 0 0 0-.834-.833zm3.334 0a.835.835 0 0 0-.834.833c0 .459.375.833.834.833a.835.835 0 0 0 .833-.833.835.835 0 0 0-.833-.833zm8.333 0a.835.835 0 0 0-.833.833c0 .459.374.833.833.833a.835.835 0 0 0 .833-.833.835.835 0 0 0-.833-.833zM62 46a.835.835 0 0 0-.833.833c0 .46.374.834.833.834a.835.835 0 0 0 .833-.834A.835.835 0 0 0 62 46zm25 0a.835.835 0 0 0-.833.833c0 .46.374.834.833.834a.835.835 0 0 0 .833-.834A.835.835 0 0 0 87 46zm-25 3.333a.835.835 0 0 0-.833.834c0 .459.374.833.833.833a.835.835 0 0 0 .833-.833.835.835 0 0 0-.833-.834zm0 3.334a.835.835 0 0 0-.833.833c0 .459.374.833.833.833a.835.835 0 0 0 .833-.833.835.835 0 0 0-.833-.833zM62 56a.835.835 0 0 0-.833.833c0 .46.374.834.833.834a.835.835 0 0 0 .833-.834A.835.835 0 0 0 62 56zm22.5 0c-1.37 0-2.5 1.13-2.5 2.5v4.167a.835.835 0 0 0-.833.833c0 .459.374.833.833.833V68.5c0 1.37 1.13 2.5 2.5 2.5h15c1.37 0 2.5-1.13 2.5-2.5v-10c0-1.37-1.13-2.5-2.5-2.5h-15zm0 1.667h15c.472 0 .833.361.833.833v10a.819.819 0 0 1-.833.833h-15a.819.819 0 0 1-.833-.833v-10c0-.472.361-.833.833-.833zM62 59.333a.835.835 0 0 0-.833.834c0 .459.374.833.833.833a.835.835 0 0 0 .833-.833.835.835 0 0 0-.833-.834zm25 0a.835.835 0 0 0-.833.834c0 .459.374.833.833.833a.835.835 0 0 0 .833-.833.835.835 0 0 0-.833-.834zm-25 3.334a.835.835 0 0 0-.833.833c0 .459.374.833.833.833a.835.835 0 0 0 .833-.833.835.835 0 0 0-.833-.833zm3.333 0a.835.835 0 0 0-.833.833c0 .459.374.833.833.833a.835.835 0 0 0 .834-.833.835.835 0 0 0-.834-.833zm3.334 0a.835.835 0 0 0-.834.833c0 .459.375.833.834.833a.835.835 0 0 0 .833-.833.835.835 0 0 0-.833-.833zm3.333 0a.835.835 0 0 0-.833.833c0 .459.374.833.833.833a.835.835 0 0 0 .833-.833.835.835 0 0 0-.833-.833zm3.333 0a.835.835 0 0 0-.833.833c0 .459.374.833.833.833a.835.835 0 0 0 .834-.833.835.835 0 0 0-.834-.833zm3.334 0a.835.835 0 0 0-.834.833c0 .459.375.833.834.833a.835.835 0 0 0 .833-.833.835.835 0 0 0-.833-.833zm8.333 0a.835.835 0 0 0-.833.833c0 .459.374.833.833.833a.835.835 0 0 0 .833-.833.835.835 0 0 0-.833-.833zM87 66a.835.835 0 0 0-.833.833c0 .46.374.834.833.834a.835.835 0 0 0 .833-.834A.835.835 0 0 0 87 66zM27.57 37.483c2.74-.446 5.181-1.157 7.155-2.045 1.722-.774 3.082-1.68 3.968-2.626.887-.945 1.313-1.87 1.313-2.812 0-.941-.426-1.867-1.313-2.813-.886-.945-2.246-1.851-3.968-2.625C31.279 23.012 26.408 22 21.005 22c-5.401 0-10.273 1.012-13.718 2.563-1.723.773-3.082 1.68-3.969 2.625-.886.945-1.312 1.87-1.312 2.812 0 .941.426 1.867 1.312 2.813.887.945 2.246 1.851 3.97 2.624 2.043.92 4.588 1.65 7.447 2.092l1.059-9.168h1.938v8.579a.51.51 0 0 0 .254.453.51.51 0 0 0 .52 0 .51.51 0 0 0 .255-.453v-8.58h1.88v8.58a.51.51 0 0 0 .255.453.51.51 0 0 0 .52 0 .51.51 0 0 0 .254-.453v-8.58h1.882v8.58a.51.51 0 0 0 .254.453.51.51 0 0 0 .52 0 .51.51 0 0 0 .254-.453v-8.58l1.937.002 1.053 9.12zM14.504 39.53c-3.047-.456-5.792-1.228-8.06-2.249-1.817-.816-3.317-1.793-4.438-2.937v5.468a.753.753 0 0 1 0 .188c0 .941.426 1.867 1.312 2.813.887.945 2.246 1.851 3.97 2.624 2.921 1.316 6.869 2.243 11.296 2.495V44.55c.007.01-.038-.624-.062-.58a.516.516 0 0 0-.452-.27h-.423a3.242 3.242 0 0 1-3.25-3.241l.107-.929zm13.297-.045l.112.975a3.242 3.242 0 0 1-3.248 3.24h-.423a.516.516 0 0 0-.452.27c-.024-.044-.07.59-.062.582v3.362c4.305-.276 8.14-1.191 10.997-2.477 1.722-.773 3.082-1.68 3.968-2.624.887-.946 1.313-1.872 1.313-2.813v-5.656c-1.121 1.144-2.621 2.12-4.438 2.937-2.195.988-4.837 1.743-7.767 2.204zm-9.217 10.452c-4.682-.245-8.898-1.196-12.14-2.656-1.817-.816-3.317-1.793-4.438-2.937v5.468a.753.753 0 0 1 0 .188c0 .941.426 1.867 1.312 2.813.887.945 2.246 1.851 3.97 2.624 2.921 1.316 6.869 2.243 11.296 2.495v-7.995zm5.144-.017v7.994c4.305-.276 8.14-1.191 10.997-2.477 1.722-.773 3.082-1.68 3.968-2.624.887-.946 1.313-1.872 1.313-2.813v-5.656c-1.121 1.144-2.621 2.12-4.438 2.937-3.173 1.428-7.278 2.37-11.84 2.64zm-5.144 10.017c-4.682-.245-8.898-1.196-12.14-2.656-1.817-.816-3.317-1.793-4.438-2.937V59c0 .941.426 1.867 1.312 2.813.887.945 2.246 1.851 3.97 2.624C10.731 65.989 15.603 67 21.005 67c5.402 0 10.273-1.012 13.719-2.563 1.722-.773 3.082-1.68 3.968-2.624.887-.946 1.313-1.872 1.313-2.813v-4.656c-1.121 1.144-2.621 2.12-4.438 2.937-3.173 1.428-7.278 2.37-11.84 2.64v1.752c0 .66-.25 1.314-.754 1.819a2.564 2.564 0 0 1-3.637 0 2.556 2.556 0 0 1-.753-1.819v-1.736zM21.006 20c5.644 0 10.77 1.012 14.562 2.719 1.895.851 3.457 1.883 4.594 3.093 1.137 1.211 1.844 2.645 1.844 4.188v29c0 1.543-.707 2.977-1.844 4.188-1.137 1.21-2.7 2.242-4.594 3.093C31.775 67.988 26.65 69 21.006 69c-5.645 0-10.77-1.012-14.563-2.719-1.894-.851-3.457-1.883-4.593-3.094C.713 61.977.006 60.544.006 59v-9a.753.753 0 0 1 0-.188V40a.753.753 0 0 1 0-.188V30c0-1.543.707-2.977 1.844-4.188 1.136-1.21 2.699-2.242 4.593-3.093C10.236 21.012 15.361 20 21.006 20z" fill="#4A90E2"/>
        <path class="color" d="M89.973 18.274a42.735 42.735 0 0 0-.221-1.559l-.16-.987 1.974-.32.16.988c.098.604.185 1.226.26 1.866l6.1-.035-6.92 14.04-7.08-13.96 5.887-.033zm-27.585.806l-.064.998-1.996-.128.064-.998c.045-.703.107-1.386.187-2.048l.12-.993 1.986.24-.12.993c-.075.624-.134 1.27-.177 1.936zm.903-5.726l-.264.964-1.929-.53.265-.964c.19-.694.407-1.359.65-1.994l.357-.934 1.868.714-.357.934a19.61 19.61 0 0 0-.59 1.81zm2.344-5.137l-.58.814-1.629-1.162.581-.814c.424-.594.884-1.145 1.38-1.653l.699-.716 1.43 1.397-.698.716a12.03 12.03 0 0 0-1.183 1.418zm4.138-3.6l-.888.46-.919-1.777.889-.459a14.92 14.92 0 0 1 1.97-.843l.946-.327.654 1.89-.945.327c-.6.208-1.168.451-1.707.73zm5.456-1.53l-.995.102-.203-1.99.995-.101a24.292 24.292 0 0 1 2.082-.12l1-.016.032 2-1 .016c-.66.01-1.297.047-1.911.11zm5.63.312l-.964-.268.536-1.927.963.268c.714.198 1.395.455 2.042.772l.899.439-.879 1.797-.898-.44a9.872 9.872 0 0 0-1.7-.641zm4.62 2.847l-.676-.738 1.476-1.35.675.738c.472.516.914 1.082 1.324 1.697l.554.833-1.664 1.109-.555-.833a12.041 12.041 0 0 0-1.135-1.456zm2.823 4.81l-.354-.934 1.87-.71.354.936c.238.627.457 1.286.656 1.975l.278.96-1.922.556-.277-.96a23.72 23.72 0 0 0-.605-1.822z" fill="#BD3C39"/>
    </g>
</svg>
