<svg xmlns="http://www.w3.org/2000/svg" viewBox="0 0 41 40">
  <style>.color{fill:#000}</style>
    <path class="color" d="M2.68 0C1.58 0 .67.904.67 2v8c0 1.096.909 2 2.01 2h12.06c1.1 0 2.009-.904 2.009-2V2c0-1.096-.909-2-2.01-2H2.68zm6.03 12a.67.67 0 0 0-.67.666.67.67 0 0 0 1.34 0A.67.67 0 0 0 8.71 12zM2.68 1.334h12.06c.379 0 .669.288.669.666v8a.654.654 0 0 1-.67.666H2.68A.66.66 0 0 1 2.01 10V2c0-.378.29-.666.67-.666zm2.01 1.332c-.37.001-.67.3-.67.668a.67.67 0 0 0 1.34 0 .67.67 0 0 0-.67-.668zm0 2.668A.67.67 0 0 0 4.02 6a.67.67 0 0 0 1.34 0 .67.67 0 0 0-.67-.666zM4.69 8a.67.67 0 0 0-.67.666.67.67 0 0 0 1.34 0A.67.67 0 0 0 4.69 8zm22.108 4c-1.101 0-2.01.904-2.01 2v3.334a.67.67 0 0 0-.67.666c0 .367.301.666.67.666V22c0 1.096.909 2 2.01 2h12.059c1.101 0 2.01-.904 2.01-2v-8c0-1.096-.909-2-2.01-2h-12.06zm0 1.334h12.059c.38 0 .67.288.67.666v8a.654.654 0 0 1-.67.666h-12.06a.66.66 0 0 1-.669-.666v-8c0-.378.29-.666.67-.666zM8.71 14.666c-.37.001-.67.3-.67.668a.67.67 0 0 0 1.34 0 .67.67 0 0 0-.67-.668zm20.098 0c-.37.001-.67.3-.67.668a.67.67 0 0 0 1.34 0 .67.67 0 0 0-.67-.668zM8.71 17.334a.67.67 0 0 0-.67.666.67.67 0 0 0 1.34 0 .67.67 0 0 0-.67-.666zm2.68 0a.67.67 0 0 0-.67.666.67.67 0 0 0 1.34 0 .67.67 0 0 0-.67-.666zm2.68 0a.67.67 0 0 0-.671.666.67.67 0 0 0 1.34 0 .67.67 0 0 0-.67-.666zm2.679 0a.67.67 0 0 0-.67.666.67.67 0 0 0 1.34 0 .67.67 0 0 0-.67-.666zm2.68 0a.67.67 0 0 0-.67.666.67.67 0 0 0 1.34 0 .67.67 0 0 0-.67-.666zm2.68 0a.67.67 0 0 0-.67.666.67.67 0 0 0 1.34 0 .67.67 0 0 0-.67-.666zm6.699 0a.67.67 0 0 0-.67.666.67.67 0 0 0 1.34 0 .67.67 0 0 0-.67-.666zM8.71 20a.67.67 0 0 0-.67.666.67.67 0 0 0 1.34 0A.67.67 0 0 0 8.71 20zm20.098 0a.67.67 0 0 0-.67.666.67.67 0 0 0 1.34 0 .67.67 0 0 0-.67-.666zM8.71 22.666c-.37.001-.67.3-.67.668a.67.67 0 0 0 1.34 0 .67.67 0 0 0-.67-.668zm0 2.668a.67.67 0 0 0-.67.666.67.67 0 0 0 1.34 0 .67.67 0 0 0-.67-.666zm0 2.666a.67.67 0 0 0-.67.666.67.67 0 0 0 1.34 0A.67.67 0 0 0 8.71 28zm18.088 0c-1.101 0-2.01.904-2.01 2v3.334a.67.67 0 0 0-.67.666c0 .367.301.666.67.666V38c0 1.096.909 2 2.01 2h12.059c1.101 0 2.01-.904 2.01-2v-8c0-1.096-.909-2-2.01-2h-12.06zm0 1.334h12.059c.38 0 .67.288.67.666v8a.654.654 0 0 1-.67.666h-12.06a.66.66 0 0 1-.669-.666v-8c0-.378.29-.666.67-.666zM8.71 30.666c-.37.001-.67.3-.67.668a.67.67 0 0 0 1.34 0 .67.67 0 0 0-.67-.668zm20.098 0c-.37.001-.67.3-.67.668a.67.67 0 0 0 1.34 0 .67.67 0 0 0-.67-.668zM8.71 33.334a.67.67 0 0 0-.67.666.67.67 0 0 0 1.34 0 .67.67 0 0 0-.67-.666zm2.68 0a.67.67 0 0 0-.67.666.67.67 0 0 0 1.34 0 .67.67 0 0 0-.67-.666zm2.68 0a.67.67 0 0 0-.671.666.67.67 0 0 0 1.34 0 .67.67 0 0 0-.67-.666zm2.679 0a.67.67 0 0 0-.67.666.67.67 0 0 0 1.34 0 .67.67 0 0 0-.67-.666zm2.68 0a.67.67 0 0 0-.67.666.67.67 0 0 0 1.34 0 .67.67 0 0 0-.67-.666zm2.68 0a.67.67 0 0 0-.67.666.67.67 0 0 0 1.34 0 .67.67 0 0 0-.67-.666zm6.699 0a.67.67 0 0 0-.67.666.67.67 0 0 0 1.34 0 .67.67 0 0 0-.67-.666zm0 2.666a.67.67 0 0 0-.67.666.67.67 0 0 0 1.34 0 .67.67 0 0 0-.67-.666z" fill="#000" fill-rule="nonzero"/>
</svg>
