<svg xmlns="http://www.w3.org/2000/svg" viewBox="0 0 64 40">
  <style>.color{fill:#000}</style>
    <g fill="#000" fill-rule="nonzero">
        <path class="color" d="M32 0c-6.456 0-11.83 4.526-13.214 10.57a9.49 9.49 0 0 0-7.996 7.072C4.808 17.863 0 22.764 0 28.8 0 34.976 5.024 40 11.2 40h5.6a.8.8 0 1 0 0-1.6h-5.6a9.587 9.587 0 0 1-9.6-9.6c0-5.312 4.288-9.6 9.6-9.6-.024 0 .026.008.152.008h.666l.002-.01a.8.8 0 0 0 .334-1.514 7.982 7.982 0 0 1 7.126-5.658l.458-.028a.8.8 0 0 0 .476-1.483C21.775 5.386 26.432 1.6 32 1.6c5.146 0 9.51 3.238 11.22 7.78l.006.017a.8.8 0 1 0 1.557.362A9.264 9.264 0 0 1 46.4 9.6c5.312 0 9.6 4.288 9.6 9.6 0 .84-.118 1.656-.326 2.446l-.21.792.797.188c3.518.84 6.139 3.99 6.139 7.774 0 4.428-3.572 8-8 8h-5.6a.8.8 0 1 0 0 1.6h5.6c5.292 0 9.6-4.308 9.6-9.6 0-4.262-2.832-7.793-6.688-9.04.144-.704.288-1.408.288-2.16C57.6 13.024 52.576 8 46.4 8c-.694 0-1.349.122-2.002.246C42.308 3.422 37.585 0 32 0z"/>
        <path d="M23.2 10.4a.8.8 0 1 0 0 1.6.8.8 0 0 0 0-1.6zM26.4 12a.8.8 0 1 0 0 1.6.8.8 0 0 0 0-1.6zM44.8 12a.8.8 0 1 0 0 1.6.8.8 0 0 0 0-1.6zM28.8 14.4a.8.8 0 1 0 0 1.6.8.8 0 0 0 0-1.6zM44.8 15.2a.8.8 0 1 0 0 1.6.8.8 0 0 0 0-1.6zM15.2 17.6a.8.8 0 1 0 0 1.6.8.8 0 0 0 0-1.6zM18.4 19.2a.8.8 0 1 0 0 1.6.8.8 0 0 0 0-1.6zM55.2 24a.8.8 0 1 0 0 1.6.8.8 0 0 0 0-1.6zM53.6 26.4a.8.8 0 1 0 0 1.6.8.8 0 0 0 0-1.6zM20 38.4a.8.8 0 1 0 0 1.6.8.8 0 0 0 0-1.6zM23.2 38.4a.8.8 0 1 0 0 1.6.8.8 0 0 0 0-1.6zM26.4 38.4a.8.8 0 1 0 0 1.6.8.8 0 0 0 0-1.6zM29.6 38.4a.8.8 0 1 0 0 1.6.8.8 0 0 0 0-1.6zM32.8 38.4a.8.8 0 1 0 0 1.6.8.8 0 0 0 0-1.6zM36 38.4a.8.8 0 1 0 0 1.6.8.8 0 0 0 0-1.6zM39.2 38.4a.8.8 0 1 0 0 1.6.8.8 0 0 0 0-1.6zM42.4 38.4a.8.8 0 1 0 0 1.6.8.8 0 0 0 0-1.6zM45.6 38.4a.8.8 0 1 0 0 1.6.8.8 0 0 0 0-1.6z"/>
    </g>
</svg>
