<svg xmlns="http://www.w3.org/2000/svg" viewBox="0 0 40 40">
  <style>.color{fill:#000}</style>
    <path class="color" d="M30 0a4.29 4.29 0 0 1 4.286 4.286A4.29 4.29 0 0 1 30 8.57a4.29 4.29 0 0 1-4.286-4.285A4.29 4.29 0 0 1 30 0zM8.571 0a4.29 4.29 0 0 1 4.286 4.286A4.29 4.29 0 0 1 8.571 8.57a4.29 4.29 0 0 1-4.285-4.285A4.29 4.29 0 0 1 8.57 0zM30 1.256a3.03 3.03 0 1 0 .001 6.058A3.03 3.03 0 0 0 30 1.256zm-21.429 0a3.03 3.03 0 1 0 .002 6.058 3.03 3.03 0 0 0-.002-6.058zm14.286 1.601c.393 0 .714.322.714.714V5a.716.716 0 0 1-.714.714.716.716 0 0 1-.714-.714V3.571c0-.392.321-.714.714-.714zm-3.571 0c.393 0 .714.322.714.714V5a.716.716 0 0 1-.714.714A.716.716 0 0 1 18.57 5V3.571c0-.392.322-.714.715-.714zm-3.572 0c.393 0 .715.322.715.714V5a.716.716 0 0 1-.715.714A.716.716 0 0 1 15 5V3.571c0-.392.321-.714.714-.714zM8.496 8.861c3.49-.03 6.705 2.288 7.935 5.679l.19.527c.213.58.606 1.077 1.122 1.417l1.174.77 2.054-1.01c.485-.239.892-.61 1.175-1.071l1.135-1.85c1.948-3.18 5.665-4.983 9.317-4.219.212.045.423.098.636.16l.279.078a7.862 7.862 0 0 1 4.233 2.988l1.278 1.786c.664.928.842 2.12.48 3.205l-1.195 3.583a2.846 2.846 0 0 1-2.598 1.945v.652l1.329 13.51a2.827 2.827 0 0 1-.79 2.108 2.833 2.833 0 0 1-2.068.881 2.862 2.862 0 0 1-2.756-2.079A2.857 2.857 0 0 1 28.672 40a2.831 2.831 0 0 1-2.065-.881 2.81 2.81 0 0 1-.793-2.068l-.1-13.48v-4.316c-.887.96-2 1.683-3.239 2.1l-2.054.687c-.444.144-.92.16-1.372.045a2.535 2.535 0 0 1-2.238-.126l-1.345-.77a7.862 7.862 0 0 1-1.895-1.515v3.862l.606 13.378c.034.688-.14 1.382-.553 1.932A2.846 2.846 0 0 1 11.325 40a2.859 2.859 0 0 1-2.754-2.09A2.86 2.86 0 0 1 5.814 40a2.847 2.847 0 0 1-2.295-1.155c-.413-.55-.586-1.241-.553-1.929l.516-11.402a2.486 2.486 0 0 1-1.386.167C.867 25.488 0 24.36 0 23.116v-6.305c0-1.736.53-3.457 1.624-4.805A7.824 7.824 0 0 1 5.566 9.4l.798-.226c.206-.06.415-.112.625-.153.496-.103 1.001-.156 1.507-.16zm.086 1.426c-.616 0-1.23.087-1.821.26l-.801.229a6.39 6.39 0 0 0-3.26 2.173c-.859 1.077-1.271 2.444-1.271 3.825v6.44a1.071 1.071 0 1 0 2.142 0v-7.737c0-.393.322-.714.715-.714.393 0 .714.321.714.714v7.796l-.614 13.803a1.429 1.429 0 0 0 1.554 1.49c.726-.056 1.273-.7 1.309-1.426l.608-12.176a.716.716 0 0 1 1.429.001l.605 12.154c.039.725.572 1.378 1.298 1.445.437.046.871-.114 1.175-.433.272-.285.41-.658.392-1.055l-.613-13.505v-8.125c0-.392.321-.714.714-.714.393 0 .714.322.714.714v1.789a.657.657 0 0 1 .095.12c.648 1.004 1.379 1.95 2.417 2.544l1.258.717a2.476 2.476 0 0 1-.198-.94c0-.569.193-1.102.527-1.532l-.711-.465a4.306 4.306 0 0 1-1.68-2.124L15.078 15c-1.01-2.784-3.633-4.71-6.495-4.713zm22.506.07c-2.642-.075-5.167 1.387-6.579 3.694l-1.144 1.867a4.28 4.28 0 0 1-1.764 1.607l-2.438 1.2a1.05 1.05 0 0 0-.592.951c0 .346.16.662.441.863.282.203.63.257.957.147L22.023 20a6.382 6.382 0 0 0 3.024-2.131l2.25-2.863a.711.711 0 0 1 1-.12.71.71 0 0 1 .12 1.001l-1.285 1.644c0 .019.01.039.01.058v5.977l.1 13.513a1.426 1.426 0 0 0 1.434 1.492c.761 0 1.389-.594 1.425-1.317L30 25.006a.716.716 0 0 1 .672-.72.717.717 0 0 1 .754.635l1.328 12.292a1.43 1.43 0 0 0 1.43 1.358 1.426 1.426 0 0 0 1.429-1.453L34.286 23.57v-8.094c0-.393.321-.714.714-.714.393 0 .714.321.714.714l-.003 5.932a1.413 1.413 0 0 0 1.242-.957l1.194-3.586a2.14 2.14 0 0 0-.29-1.922l-1.272-1.785a6.459 6.459 0 0 0-3.466-2.445l-.276-.078a6.885 6.885 0 0 0-.62-.147 6.56 6.56 0 0 0-1.135-.132z" fill="#000" fill-rule="nonzero"/>
</svg>
