<svg xmlns="http://www.w3.org/2000/svg" viewBox="0 0 53 40">
  <style>.color{fill:#000}</style>
    <path class="color" d="M28.277 0c-4.693 0-8.121 1.855-9.935 4.605a8.747 8.747 0 0 0-.888 1.777l-.263-.526a1.05 1.05 0 0 0-.922-.593c-3.642 0-6.364 1.48-7.795 3.684-1.308 2.01-1.386 4.54-.56 6.909-.066.106-.206.164-.262.295a3.116 3.116 0 0 0-.23 1.645v.033c.118.958.361 1.645.756 2.171.168.221.436.221.658.362.156.781.379 1.558.69 2.203.186.388.382.72.593 1.021.07.102.19.172.263.263 0 .806-.03 1.529-.099 2.467-.19.48-.65.905-1.514 1.348-.884.453-2.068.872-3.289 1.415s-2.524 1.2-3.553 2.27C.9 32.417.172 33.915.053 35.821a1.058 1.058 0 0 0 1.052 1.12h6.547a9.702 9.702 0 0 0-.33 1.94A1.058 1.058 0 0 0 8.375 40h35.987a1.053 1.053 0 0 0 1.053-1.119 9.716 9.716 0 0 0-.362-2.039h6.579a1.053 1.053 0 0 0 1.052-1.119c-.119-1.903-.856-3.404-1.875-4.474-1.02-1.068-2.277-1.726-3.487-2.269-1.208-.542-2.38-.962-3.256-1.414-.834-.431-1.279-.877-1.48-1.35-.068-.82-.101-1.642-.099-2.465.07-.091.193-.166.264-.264.209-.296.377-.638.557-1.02.293-.622.507-1.36.626-2.106.214-.135.465-.147.625-.361.395-.526.638-1.213.757-2.172a3.295 3.295 0 0 0-.164-1.579c-.05-.126-.23-.205-.297-.328.231-.539.494-1.048.56-1.71a9.234 9.234 0 0 0-.263-3.158c-.28-1.074-.766-2.138-1.613-2.961-.682-.666-1.644-1.056-2.73-1.217l-.428-.987a1.054 1.054 0 0 0-.954-.625c-1.455 0-3.005.144-4.44.593-.374-.832-.868-1.621-1.547-2.27-.9-.868-2.166-1.386-3.618-1.547l-.59-1.413a1.056 1.056 0 0 0-.955-.625V0zm-.692 2.172l.56 1.216c.169.38.542.621.954.626 1.307 0 2.196.414 2.895 1.084.699.67 1.195 1.625 1.48 2.698a9.4 9.4 0 0 1 .263 3.225c-.1.979-.432 1.768-.625 2.006a1.053 1.053 0 0 0 .394 1.612c-.015-.008 0-.008.033.066.058.136.12.44.099.822-.004.033.004.033 0 .067-.143.871-.39 1.39-.56 1.61-.085.116-.146.153-.163.165a1.05 1.05 0 0 0-.955.922c-.086.785-.39 1.809-.756 2.598a5.982 5.982 0 0 1-.56.954c-.123.169-.246.263-.23.263-.352.186-.57.555-.56.954 0 1.37-.007 2.467.1 4.079.007.102.03.202.066.297.563 1.48 1.834 2.371 3.223 3.059 1.39.686 2.961 1.2 4.441 1.842 1.48.642 2.858 1.414 3.849 2.434.768.789 1.238 1.833 1.513 3.125H9.691c.275-1.292.744-2.336 1.513-3.125.99-1.02 2.369-1.793 3.849-2.434 1.48-.642 3.05-1.156 4.44-1.842 1.39-.688 2.66-1.58 3.224-3.06.036-.095.059-.194.066-.295.106-1.514.098-2.71.098-4.08a1.048 1.048 0 0 0-.558-.954s-.01-.012-.034-.032c-.008-.005-.02.004-.032 0a1.636 1.636 0 0 1-.198-.23 6.309 6.309 0 0 1-.592-.955c-.386-.768-.703-1.744-.79-2.566a1.056 1.056 0 0 0-.855-.92c-.102-.022-.642.003-.822-1.81-.074-.81.308-1.049.263-1.02.44-.28.609-.84.395-1.316-.674-1.55-.889-3.149-.658-4.637.24-.268.328-.64.23-.987a7.017 7.017 0 0 1 .855-1.842c1.312-1.987 3.78-3.443 7.5-3.62zM38.77 7.466l.33.725c.157.39.533.649.954.657.936 0 1.52.285 2.006.757.485.474.843 1.176 1.053 1.974.21.798.267 1.665.197 2.401-.07.737-.32 1.337-.428 1.48a1.04 1.04 0 0 0-.197.839c.053.297.235.556.494.707.037.095.065.3.033.56-.091.723-.251 1.077-.33 1.185a1.05 1.05 0 0 0-.92.953c-.038.542-.288 1.3-.56 1.875-.113.24-.245.471-.395.69-.09.128-.172.227-.164.231a1.053 1.053 0 0 0-.46.856c0 1.159-.013 2.051.098 3.256.013.09.034.176.066.263.449 1.238 1.46 2.01 2.533 2.566 1.074.555 2.282.95 3.388 1.447 1.106.497 2.11 1.086 2.829 1.843.502.526.835 1.192 1.052 2.006h-6.184a8.168 8.168 0 0 0-1.118-1.448c-1.3-1.336-2.92-2.174-4.507-2.862-1.586-.686-3.15-1.216-4.341-1.808-1.152-.572-1.84-1.181-2.14-1.876a49.926 49.926 0 0 1-.097-3.322c.11-.127.292-.221.395-.362.291-.403.544-.832.756-1.282.394-.856.63-1.85.79-2.83.287-.172.633-.164.855-.46.46-.613.777-1.46.954-2.632a.49.49 0 0 0 .032-.066c.066-.724-.037-1.368-.263-1.908-.057-.135-.25-.168-.328-.295.36-.743.583-1.545.657-2.368.107-1.053.07-2.2-.165-3.356.947-.259 2.057-.354 3.127-.395h-.002zM15.678 7.5l.395.757c.147.316.444.538.79.591-.14 1.53.098 3.117.657 4.638-.4.548-.72 1.28-.625 2.303.185 1.838 1.007 2.71 1.81 3.191.168 1.007.472 2.027.887 2.862.243.484.51.917.79 1.283.102.136.283.21.394.329 0 1.114-.02 2.113-.098 3.29-.3.694-.987 1.303-2.14 1.875-1.19.592-2.754 1.122-4.341 1.808-1.586.688-3.206 1.527-4.505 2.862a8.055 8.055 0 0 0-1.186 1.547H2.421c.221-.815.547-1.481 1.053-2.008.727-.755 1.743-1.344 2.862-1.842 1.118-.497 2.306-.891 3.387-1.447 1.082-.555 2.114-1.29 2.566-2.533.037-.094.06-.194.067-.295a36.01 36.01 0 0 0 .13-3.225 1.053 1.053 0 0 0-.492-.92c-.033-.038-.103-.111-.165-.198a5.179 5.179 0 0 1-.428-.724c-.287-.596-.538-1.368-.625-2.006a1.052 1.052 0 0 0-.92-.887c-.08-.108-.24-.462-.33-1.185-.032-.3.025-.473.067-.56.426-.29.58-.848.36-1.315-.87-1.974-.718-4.03.296-5.592.934-1.439 2.748-2.435 5.429-2.599z" fill="#000" fill-rule="nonzero"/>
</svg>
