<svg xmlns="http://www.w3.org/2000/svg" viewBox="0 0 50 71">
    <style>
        .color{fill:#000}
    </style>
    <g fill="none">
        <path class="color" d="M2.5 21C1.13 21 0 22.13 0 23.5v10C0 34.87 1.13 36 2.5 36h15c1.37 0 2.5-1.13 2.5-2.5v-10c0-1.37-1.13-2.5-2.5-2.5h-15zM10 36a.835.835 0 0 0-.833.833c0 .46.374.834.833.834a.835.835 0 0 0 .833-.834A.835.835 0 0 0 10 36zM2.5 22.667h15c.472 0 .833.361.833.833v10a.819.819 0 0 1-.833.833h-15a.819.819 0 0 1-.833-.833v-10c0-.472.361-.833.833-.833zM5 24.333a.835.835 0 0 0-.833.834c0 .459.374.833.833.833a.835.835 0 0 0 .833-.833.835.835 0 0 0-.833-.834zm0 3.334a.835.835 0 0 0-.833.833c0 .459.374.833.833.833a.835.835 0 0 0 .833-.833.835.835 0 0 0-.833-.833zM5 31a.835.835 0 0 0-.833.833c0 .46.374.834.833.834a.835.835 0 0 0 .833-.834A.835.835 0 0 0 5 31zm27.5 5c-1.37 0-2.5 1.13-2.5 2.5v4.167a.835.835 0 0 0-.833.833c0 .459.374.833.833.833V48.5c0 1.37 1.13 2.5 2.5 2.5h15c1.37 0 2.5-1.13 2.5-2.5v-10c0-1.37-1.13-2.5-2.5-2.5h-15zm0 1.667h15c.472 0 .833.361.833.833v10a.819.819 0 0 1-.833.833h-15a.819.819 0 0 1-.833-.833v-10c0-.472.361-.833.833-.833zM10 39.333a.835.835 0 0 0-.833.834c0 .459.374.833.833.833a.835.835 0 0 0 .833-.833.835.835 0 0 0-.833-.834zm25 0a.835.835 0 0 0-.833.834c0 .459.374.833.833.833a.835.835 0 0 0 .833-.833.835.835 0 0 0-.833-.834zm-25 3.334a.835.835 0 0 0-.833.833c0 .459.374.833.833.833a.835.835 0 0 0 .833-.833.835.835 0 0 0-.833-.833zm3.333 0a.835.835 0 0 0-.833.833c0 .459.374.833.833.833a.835.835 0 0 0 .834-.833.835.835 0 0 0-.834-.833zm3.334 0a.835.835 0 0 0-.834.833c0 .459.375.833.834.833a.835.835 0 0 0 .833-.833.835.835 0 0 0-.833-.833zm3.333 0a.835.835 0 0 0-.833.833c0 .459.374.833.833.833a.835.835 0 0 0 .833-.833.835.835 0 0 0-.833-.833zm3.333 0a.835.835 0 0 0-.833.833c0 .459.374.833.833.833a.835.835 0 0 0 .834-.833.835.835 0 0 0-.834-.833zm3.334 0a.835.835 0 0 0-.834.833c0 .459.375.833.834.833a.835.835 0 0 0 .833-.833.835.835 0 0 0-.833-.833zm8.333 0a.835.835 0 0 0-.833.833c0 .459.374.833.833.833a.835.835 0 0 0 .833-.833.835.835 0 0 0-.833-.833zM10 46a.835.835 0 0 0-.833.833c0 .46.374.834.833.834a.835.835 0 0 0 .833-.834A.835.835 0 0 0 10 46zm25 0a.835.835 0 0 0-.833.833c0 .46.374.834.833.834a.835.835 0 0 0 .833-.834A.835.835 0 0 0 35 46zm-25 3.333a.835.835 0 0 0-.833.834c0 .459.374.833.833.833a.835.835 0 0 0 .833-.833.835.835 0 0 0-.833-.834zm0 3.334a.835.835 0 0 0-.833.833c0 .459.374.833.833.833a.835.835 0 0 0 .833-.833.835.835 0 0 0-.833-.833zM10 56a.835.835 0 0 0-.833.833c0 .46.374.834.833.834a.835.835 0 0 0 .833-.834A.835.835 0 0 0 10 56zm22.5 0c-1.37 0-2.5 1.13-2.5 2.5v4.167a.835.835 0 0 0-.833.833c0 .459.374.833.833.833V68.5c0 1.37 1.13 2.5 2.5 2.5h15c1.37 0 2.5-1.13 2.5-2.5v-10c0-1.37-1.13-2.5-2.5-2.5h-15zm0 1.667h15c.472 0 .833.361.833.833v10a.819.819 0 0 1-.833.833h-15a.819.819 0 0 1-.833-.833v-10c0-.472.361-.833.833-.833zM10 59.333a.835.835 0 0 0-.833.834c0 .459.374.833.833.833a.835.835 0 0 0 .833-.833.835.835 0 0 0-.833-.834zm25 0a.835.835 0 0 0-.833.834c0 .459.374.833.833.833a.835.835 0 0 0 .833-.833.835.835 0 0 0-.833-.834zm-25 3.334a.835.835 0 0 0-.833.833c0 .459.374.833.833.833a.835.835 0 0 0 .833-.833.835.835 0 0 0-.833-.833zm3.333 0a.835.835 0 0 0-.833.833c0 .459.374.833.833.833a.835.835 0 0 0 .834-.833.835.835 0 0 0-.834-.833zm3.334 0a.835.835 0 0 0-.834.833c0 .459.375.833.834.833a.835.835 0 0 0 .833-.833.835.835 0 0 0-.833-.833zm3.333 0a.835.835 0 0 0-.833.833c0 .459.374.833.833.833a.835.835 0 0 0 .833-.833.835.835 0 0 0-.833-.833zm3.333 0a.835.835 0 0 0-.833.833c0 .459.374.833.833.833a.835.835 0 0 0 .834-.833.835.835 0 0 0-.834-.833zm3.334 0a.835.835 0 0 0-.834.833c0 .459.375.833.834.833a.835.835 0 0 0 .833-.833.835.835 0 0 0-.833-.833zm8.333 0a.835.835 0 0 0-.833.833c0 .459.374.833.833.833a.835.835 0 0 0 .833-.833.835.835 0 0 0-.833-.833zM35 66a.835.835 0 0 0-.833.833c0 .46.374.834.833.834a.835.835 0 0 0 .833-.834A.835.835 0 0 0 35 66z" fill="#4A90E2"/>
        <path class="color" d="M37.973 18.274a42.735 42.735 0 0 0-.221-1.559l-.16-.987 1.974-.32.16.988c.098.604.185 1.226.26 1.866l6.1-.035-6.92 14.04-7.08-13.96 5.887-.033zm-27.585.806l-.064.998-1.996-.128.064-.998c.045-.703.107-1.386.187-2.048l.12-.993 1.986.24-.12.993c-.075.624-.134 1.27-.177 1.936zm.903-5.726l-.264.964-1.929-.53.265-.964c.19-.694.407-1.359.65-1.994l.357-.934 1.868.714-.357.934a19.61 19.61 0 0 0-.59 1.81zm2.344-5.137l-.58.814-1.629-1.162.581-.814c.424-.594.884-1.145 1.38-1.653l.699-.716 1.43 1.397-.698.716a12.03 12.03 0 0 0-1.183 1.418zm4.138-3.6l-.888.46-.919-1.777.889-.459a14.92 14.92 0 0 1 1.97-.843l.946-.327.654 1.89-.945.327c-.6.208-1.168.451-1.707.73zm5.456-1.53l-.995.102-.203-1.99.995-.101a24.292 24.292 0 0 1 2.082-.12l1-.016.032 2-1 .016c-.66.01-1.297.047-1.911.11zm5.63.312l-.964-.268.536-1.927.963.268c.714.198 1.395.455 2.042.772l.899.439-.879 1.797-.898-.44a9.872 9.872 0 0 0-1.7-.641zm4.62 2.847l-.676-.738 1.476-1.35.675.738c.472.516.914 1.082 1.324 1.697l.554.833-1.664 1.109-.555-.833a12.041 12.041 0 0 0-1.135-1.456zm2.823 4.81l-.354-.934 1.87-.71.354.936c.238.627.457 1.286.656 1.975l.278.96-1.922.556-.277-.96a23.72 23.72 0 0 0-.605-1.822z" fill="#BD3C39"/>
    </g>
</svg>
