<svg xmlns="http://www.w3.org/2000/svg" viewBox="0 0 38 40">
  <style>.color{fill:#000}</style>
    <path class="color" d="M19.573 0c-1.536 0-2.554.46-3.163.952-.427.346-.479.544-.582.741-.951.063-1.86.396-2.61.955-.946.71-1.703 1.877-1.703 3.471 0 1.22.39 2.996.528 3.809-.21.222-.375.488-.375.822 0 .313.092.548.166.783l.094.305c.023.08.023.16.023.069 0 .653.578 1.163 1.25 1.18.22 1.32.662 2.796 1.769 3.726v2c-.345.108-1.991.613-3.998 1.56-1.103.52-2.215 1.13-3.084 1.822-.868.693-1.555 1.493-1.555 2.463v.547h1.152v-.547c0-.437.393-1.025 1.143-1.622.751-.6 1.798-1.184 2.854-1.683 2.112-.995 4.241-1.654 4.241-1.654l.398-.123v-3.253l-.238-.164c-.921-.634-1.47-2.298-1.655-3.68l-.064-.478h-.935c-.088 0-.126-.046-.126-.094 0-.182-.034-.252-.064-.357-.03-.106-.067-.217-.101-.328-.07-.22-.118-.476-.118-.473 0-.064.032-.118.129-.174l.324-.189-.054-.357c-.124-.824-.552-2.87-.552-3.91 0-1.278.55-2.074 1.263-2.61.715-.536 1.632-.77 2.191-.77h.406l.136-.364s.085-.258.493-.588c.407-.33 1.115-.691 2.418-.691 1.798 0 3.585.99 4.911 2.02 1.09.845 1.54 1.41 1.778 1.685-.095.08-.115.044-.208.156-.382.46-.722 1.215-.722 2.342 0 .502-.102 1.037-.222 1.512-.12.475-.257.87-.318 1.21l-.066.363.33.195c.093.055.123.108.123.17 0-.003-.049.252-.118.473-.034.11-.07.222-.1.328-.031.105-.065.175-.065.357 0 .048-.038.094-.126.094h-.936l-.063.48c-.182 1.38-.733 3.044-1.655 3.678l-.238.164v3.253l.398.123s2.129.659 4.24 1.655c1.057.498 2.104 1.083 2.855 1.681.75.598 1.143 1.186 1.143 1.623v.547h1.152v-.547c0-.97-.687-1.77-1.555-2.463-.87-.693-1.981-1.302-3.084-1.822-2.007-.947-3.653-1.452-3.998-1.56v-2c1.107-.93 1.55-2.405 1.769-3.726.672-.017 1.25-.526 1.25-1.18 0 .092 0 .01.023-.07s.058-.187.094-.304c.074-.235.166-.47.166-.784 0-.314-.15-.57-.34-.786.058-.224.135-.49.238-.896.13-.516.255-1.128.255-1.768 0-.924.258-1.401.474-1.662.217-.261.343-.29.343-.29l.743-.257-.485-.594s-.914-1.118-2.347-2.23C23.78 1.153 21.801 0 19.573 0zm-3.452 3.288c-.317 0-.576.246-.576.548 0 .302.259.548.576.548.317 0 .576-.246.576-.548 0-.302-.259-.548-.576-.548zm.576 1.644c-.317 0-.576.246-.576.547 0 .302.259.548.576.548.317 0 .576-.246.576-.548 0-.301-.259-.547-.576-.547zm1.151 13.698c-.317 0-.575.246-.575.548 0 .302.258.548.575.548.318 0 .576-.246.576-.548 0-.302-.258-.548-.576-.548zm2.304 0c-.318 0-.576.246-.576.548 0 .302.258.548.576.548.317 0 .575-.246.575-.548 0-.302-.258-.548-.575-.548zm8.636 7.123l-.46.22-.092.483.352.359.2.034.46-.22.092-.483-.352-.358-.2-.035zm-19.576.039l-.46.22-.092.483.352.36.2.033.46-.22.092-.483-.352-.359-.2-.034zm21.513 1.146l-.46.22-.092.484.353.36.2.032.46-.22.091-.483-.352-.358-.2-.035zm-23.45.04l-.461.219-.091.484.352.358.2.034.46-.22.092-.482-.353-.359-.2-.034zm-4.396.42C1.295 27.397 0 28.63 0 30.136s1.295 2.74 2.879 2.74c1.583 0 2.879-1.233 2.879-2.74 0-1.507-1.296-2.74-2.88-2.74zm32.242 0c-1.583 0-2.879 1.232-2.879 2.739s1.296 2.74 2.88 2.74c1.583 0 2.878-1.233 2.878-2.74 0-1.507-1.295-2.74-2.879-2.74zM19 27.944l-.46.22-.092.483.352.359.2.034.46-.22.092-.483-.352-.358-.2-.035zm-16.121.548c.96 0 1.727.73 1.727 1.644 0 .915-.766 1.644-1.727 1.644-.961 0-1.727-.73-1.727-1.644 0-.915.766-1.644 1.727-1.644zm32.242 0c.961 0 1.727.73 1.727 1.644 0 .915-.766 1.644-1.727 1.644-.96 0-1.727-.73-1.727-1.644 0-.915.766-1.644 1.727-1.644zM19 30.137l-.46.22-.092.483.352.358.2.035.46-.22.092-.483-.352-.358-.2-.035zm0 2.192l-.46.22-.092.483.352.358.2.035.46-.22.092-.483-.352-.359-.2-.034zm0 2.192c-1.583 0-2.879 1.232-2.879 2.74C16.121 38.766 17.417 40 19 40s2.879-1.233 2.879-2.74c0-1.507-1.296-2.74-2.879-2.74zm0 1.095c.96 0 1.727.73 1.727 1.644 0 .915-.766 1.644-1.727 1.644-.96 0-1.727-.73-1.727-1.644 0-.914.766-1.644 1.727-1.644z" fill="#000" fill-rule="nonzero"/>
</svg>
