<svg xmlns="http://www.w3.org/2000/svg" viewBox="0 0 35 40">
  <style>.color{fill:#000}</style>
    <path class="color" d="M17.112 0C12.517 0 8.346.826 5.258 2.22c-1.542.695-2.814 1.536-3.739 2.525-.925.989-1.5 2.159-1.5 3.418v8.01a.616.616 0 0 0 0 .153v8.01a.616.616 0 0 0 0 .154v7.347c0 1.259.575 2.43 1.5 3.418.925.989 2.197 1.83 3.739 2.526C8.346 39.174 12.518 40 17.112 40c4.594 0 8.766-.826 11.852-2.22 1.543-.695 2.814-1.536 3.74-2.525.925-.989 1.5-2.159 1.5-3.418V8.163c0-1.259-.575-2.43-1.5-3.418-.926-.989-2.198-1.83-3.74-2.526C25.879.826 21.707 0 17.113 0zm0 1.632c4.397 0 8.362.826 11.166 2.093 1.402.631 2.508 1.371 3.23 2.142.722.772 1.068 1.528 1.068 2.296 0 .768-.346 1.524-1.068 2.296-.722.772-1.828 1.512-3.23 2.143-2.804 1.266-6.769 2.092-11.166 2.092s-8.363-.826-11.167-2.092c-1.402-.632-2.509-1.37-3.23-2.143-.722-.772-1.068-1.528-1.068-2.296 0-.768.346-1.524 1.068-2.296.721-.771 1.828-1.512 3.23-2.142 2.805-1.267 6.77-2.093 11.168-2.093h-.001zM1.647 11.71c.912.934 2.133 1.732 3.611 2.398 3.088 1.394 7.26 2.22 11.854 2.22 4.594 0 8.766-.826 11.852-2.22 1.48-.666 2.7-1.464 3.612-2.398v4.617c0 .768-.346 1.524-1.068 2.296-.722.772-1.828 1.512-3.23 2.143-2.804 1.266-6.769 2.092-11.166 2.092s-8.363-.826-11.167-2.092c-1.402-.632-2.509-1.37-3.23-2.143-.722-.772-1.068-1.528-1.068-2.296a.616.616 0 0 0 0-.153V11.71zm0 8.164c.912.933 2.133 1.73 3.611 2.397 3.088 1.394 7.26 2.22 11.854 2.22 4.594 0 8.766-.826 11.852-2.22 1.48-.666 2.7-1.464 3.612-2.397v4.616c0 .768-.346 1.525-1.068 2.296-.722.772-1.828 1.512-3.23 2.144-2.804 1.265-6.769 2.092-11.166 2.092s-8.363-.827-11.167-2.092c-1.402-.632-2.509-1.372-3.23-2.144-.722-.77-1.068-1.528-1.068-2.296a.616.616 0 0 0 0-.152v-4.464zm0 8.163c.912.934 2.133 1.731 3.611 2.397 3.088 1.394 7.26 2.22 11.854 2.22 4.594 0 8.766-.826 11.852-2.22 1.48-.666 2.7-1.464 3.612-2.397v3.8c0 .77-.346 1.525-1.068 2.296-.722.772-1.828 1.512-3.23 2.144-2.804 1.265-6.769 2.091-11.166 2.091s-8.363-.826-11.167-2.092c-1.402-.631-2.509-1.371-3.23-2.142-.722-.772-1.068-1.528-1.068-2.296v-3.801z" fill="#000" fill-rule="nonzero"/>
</svg>
