<svg xmlns="http://www.w3.org/2000/svg" viewBox="0 0 40 40">
  <style>.color{fill:#000}</style>
    <path class="color" d="M2 0C.903 0 0 .903 0 2v8c0 1.097.903 2 2 2h12c1.097 0 2-.903 2-2V2c0-1.097-.903-2-2-2H2zm6 12a.667.667 0 1 0 0 1.333A.667.667 0 0 0 8 12zM2 1.333h12c.377 0 .667.29.667.667v8c0 .377-.29.667-.667.667H2A.656.656 0 0 1 1.333 10V2c0-.377.29-.667.667-.667zM26 12c-1.097 0-2 .903-2 2v3.333a.667.667 0 0 0 0 1.334V22c0 1.097.903 2 2 2h12c1.097 0 2-.903 2-2v-8c0-1.097-.903-2-2-2H26zm0 1.333h12c.377 0 .667.29.667.667v8c0 .377-.29.667-.667.667H26a.656.656 0 0 1-.667-.667v-8c0-.377.29-.667.667-.667zM25.333 16a.667.667 0 1 0 1.334 0 .667.667 0 0 0-1.334 0zm0 4a.667.667 0 1 0 1.334 0 .667.667 0 0 0-1.334 0zM28 22.667a.667.667 0 1 0 0-1.334.667.667 0 0 0 0 1.334zm4 0a.667.667 0 1 0 0-1.334.667.667 0 0 0 0 1.334zm4 0a.667.667 0 1 0 0-1.334.667.667 0 0 0 0 1.334zM38.667 20a.667.667 0 1 0-1.334 0 .667.667 0 0 0 1.334 0zm0-4a.667.667 0 1 0-1.334 0 .667.667 0 0 0 1.334 0zM36 13.333a.667.667 0 1 0 0 1.334.667.667 0 0 0 0-1.334zm-4 0a.667.667 0 1 0 0 1.334.667.667 0 0 0 0-1.334zm-4 0a.667.667 0 1 0 0 1.334.667.667 0 0 0 0-1.334zM8 14.667A.667.667 0 1 0 8 16a.667.667 0 0 0 0-1.333zm22 .666a.667.667 0 1 0 0 1.334.667.667 0 0 0 0-1.334zm4 0a.667.667 0 1 0 0 1.334.667.667 0 0 0 0-1.334zm-26 2a.667.667 0 1 0 0 1.334.667.667 0 0 0 0-1.334zm2.667 0a.667.667 0 1 0 0 1.334.667.667 0 0 0 0-1.334zm2.666 0a.667.667 0 1 0 0 1.334.667.667 0 0 0 0-1.334zm2.667 0a.667.667 0 1 0 0 1.334.667.667 0 0 0 0-1.334zm2.667 0a.667.667 0 1 0 0 1.334.667.667 0 0 0 0-1.334zm2.666 0a.667.667 0 1 0 0 1.334.667.667 0 0 0 0-1.334zm6.667 0a.667.667 0 1 0 0 1.334.667.667 0 0 0 0-1.334zm4 0a.667.667 0 1 0 0 1.334.667.667 0 0 0 0-1.334zm4 0a.667.667 0 1 0 0 1.334.667.667 0 0 0 0-1.334zm-6 2a.667.667 0 1 0 0 1.334.667.667 0 0 0 0-1.334zm4 0a.667.667 0 1 0 0 1.334.667.667 0 0 0 0-1.334zM8 20a.667.667 0 1 0 0 1.333A.667.667 0 0 0 8 20zm0 2.667A.667.667 0 1 0 8 24a.667.667 0 0 0 0-1.333zm0 2.666a.667.667 0 1 0 0 1.334.667.667 0 0 0 0-1.334zM8 28a.667.667 0 1 0 0 1.333A.667.667 0 0 0 8 28zm18 0c-1.097 0-2 .903-2 2v3.333a.667.667 0 0 0 0 1.334V38c0 1.097.903 2 2 2h12c1.097 0 2-.903 2-2v-8c0-1.097-.903-2-2-2H26zm0 1.333h12c.377 0 .667.29.667.667v8c0 .377-.29.667-.667.667H26a.656.656 0 0 1-.667-.667v-8c0-.377.29-.667.667-.667zM8 30.667A.667.667 0 1 0 8 32a.667.667 0 0 0 0-1.333zm0 2.666a.667.667 0 1 0 0 1.334.667.667 0 0 0 0-1.334zm2.667 0a.667.667 0 1 0 0 1.334.667.667 0 0 0 0-1.334zm2.666 0a.667.667 0 1 0 0 1.334.667.667 0 0 0 0-1.334zm2.667 0a.667.667 0 1 0 0 1.334.667.667 0 0 0 0-1.334zm2.667 0a.667.667 0 1 0 0 1.334.667.667 0 0 0 0-1.334zm2.666 0a.667.667 0 1 0 0 1.334.667.667 0 0 0 0-1.334z" fill="#000" fill-rule="nonzero"/>
</svg>
