<svg xmlns="http://www.w3.org/2000/svg" viewBox="0 0 34 40">
  <style>.color{fill:#000}</style>
    <path class="color" d="M16.346 0c-3.774 0-7.085 1.545-9.409 4.261C4.615 6.978 3.27 10.845 3.27 15.484c0 4.126 1.758 10.491 1.758 10.491l.132.477h7.192c.026.017.046.04.071.058v.244l-2.604 1.73c-1.482.637-3.837 1.67-5.875 2.94-1.032.642-1.982 1.34-2.703 2.107-.719.766-1.24 1.63-1.24 2.598V40h34v-3.871c0-.968-.521-1.832-1.241-2.598-.72-.766-1.67-1.465-2.702-2.107-2.038-1.27-4.394-2.303-5.875-2.941l-2.605-1.73v-.243c.026-.018.046-.041.072-.058h6.19l.192-.326s2.7-4.645 2.7-10.642c0-4.133-.825-7.321-2.317-9.524-1.435-2.12-3.542-3.266-5.917-3.349C22.174 2.228 20.223 0 16.347 0zm0 1.29c3.632 0 5.362 2.322 5.362 2.322l.196.259h.327c2.086 0 3.808.904 5.095 2.808 1.288 1.902 2.097 4.843 2.097 8.805 0 5.3-2.135 9.221-2.388 9.677H22.99c1.198-1.487 1.857-3.447 1.857-5.57v-4.107c0-2.172-.715-3.632-1.458-4.519-.74-.89-1.556-1.237-1.556-1.237l-.398-.164-.309.292s-.412.399-1.405.847c-.994.449-2.53.91-4.682.91-1.246 0-2.66.62-3.826 1.724-1.164 1.106-2.058 2.742-2.058 4.76v1.497c0 2.122.659 4.08 1.857 5.567H6.18c-.196-.743-1.604-6.17-1.604-9.677 0-4.393 1.269-7.946 3.36-10.39 2.091-2.446 4.992-3.804 8.41-3.804zm5.885 3.226c-.36 0-.654.29-.654.645 0 .355.294.645.654.645.36 0 .654-.29.654-.645a.651.651 0 0 0-.654-.645zm0 2.58c-.36 0-.654.291-.654.646 0 .355.294.645.654.645.36 0 .654-.29.654-.645a.651.651 0 0 0-.654-.645zm-.695 3.995c.146.074.393.157.845.694.565.675 1.157 1.799 1.157 3.699v4.108c0 3.57-1.915 6.39-5.269 6.98l-.186.03-.14.13a1.39 1.39 0 0 1-.943.365c-.366 0-.687-.136-.942-.365l-.14-.13-.187-.03c-3.354-.59-5.27-3.409-5.27-6.978v-1.497c0-1.645.713-2.93 1.658-3.83.945-.897 2.148-1.364 2.92-1.364 2.342 0 4.073-.506 5.225-1.026.83-.375 1.03-.59 1.272-.786zm-8.132 5.683a.974.974 0 0 0-.98.968c0 .534.438.968.98.968s.98-.434.98-.968a.974.974 0 0 0-.98-.968zm7.192 0a.974.974 0 0 0-.98.968c0 .534.438.968.98.968s.98-.434.98-.968a.974.974 0 0 0-.98-.968zm-.327 10.49v2.491c-.155.175-.904.97-2.524 1.17a6.204 6.204 0 0 1-.745.043c-2.138 0-3.093-1.013-3.27-1.213v-2.49a7.68 7.68 0 0 0 1.595.51c.46.365 1.034.612 1.675.612.64 0 1.216-.247 1.676-.613a7.538 7.538 0 0 0 1.593-.51zm-7.846 1.044v1.97l.15.178s.085.09.228.222c.118.114.253.227.483.394.09.064.187.13.294.198.05.033.091.063.148.098.163.097.345.194.544.285.076.039.166.07.248.106.07.03.14.06.214.088l-2.807 1.39-.779-4.082 1.277-.845v-.002zm9.154 0l1.566 1.04-.74 3.888-2.959-1.462.039-.015c.081-.035.171-.068.247-.105.197-.091.378-.188.54-.283.058-.036.101-.068.152-.1.1-.064.199-.13.294-.2.17-.12.332-.25.483-.394.143-.13.228-.22.228-.22l.15-.18V28.31zm-11.629 1.53l1.012 5.313 4.814-2.371.403.997-.383 4.933H1.308v-2.581c0-.492.296-1.086.893-1.721.598-.635 1.466-1.288 2.437-1.893 1.77-1.101 3.838-2.039 5.31-2.676zm14.408.132c1.445.635 3.353 1.517 5.006 2.545.97.605 1.839 1.258 2.437 1.893.597.635.893 1.23.893 1.721v2.58H18.206l-.383-4.932.46-1.133 5.084 2.507.989-5.18v-.001z" fill="#000" fill-rule="nonzero"/>
</svg>
