<svg xmlns="http://www.w3.org/2000/svg" viewBox="0 0 35 40">
  <style>.color{fill:#000}</style>
    <path class="color" d="M22.533 14.256c2.193-.365 4.148-.938 5.732-1.654 1.401-.631 2.508-1.371 3.23-2.143.721-.772 1.068-1.527 1.068-2.296 0-.768-.347-1.524-1.069-2.296-.72-.771-1.828-1.511-3.23-2.143-2.804-1.264-6.77-2.091-11.167-2.091-4.395 0-8.36.826-11.165 2.092-1.402.63-2.509 1.371-3.23 2.143-.722.771-1.068 1.526-1.068 2.295 0 .768.346 1.524 1.068 2.297.721.771 1.828 1.51 3.23 2.142 1.641.74 3.68 1.331 5.97 1.694l.954-8.288h1.577v7.003a.417.417 0 0 0 .63.37.417.417 0 0 0 .208-.37V6.008h1.53v7.004a.417.417 0 0 0 .207.37c.13.078.293.078.424 0a.417.417 0 0 0 .206-.37V6.008h1.532v7.004a.417.417 0 0 0 .63.37.417.417 0 0 0 .207-.37V6.008l1.577.002.949 8.246zM11.719 15.93c-2.446-.374-4.65-1-6.475-1.823-1.478-.666-2.699-1.464-3.611-2.398v4.465a.616.616 0 0 1 0 .153c0 .768.347 1.524 1.068 2.296.722.771 1.828 1.51 3.231 2.143 2.378 1.073 5.591 1.83 9.195 2.036v-3.578c.005.009-.031-.509-.051-.473a.42.42 0 0 0-.368-.22h-.344a2.643 2.643 0 0 1-2.646-2.601h.001zm11-.039a2.643 2.643 0 0 1-2.643 2.64h-.344a.42.42 0 0 0-.368.22c-.02-.036-.057.482-.05.475v3.56c3.504-.224 6.625-.971 8.95-2.021 1.402-.631 2.51-1.372 3.23-2.143.722-.771 1.069-1.526 1.069-2.295v-4.618c-.912.934-2.133 1.731-3.612 2.398-1.764.797-3.883 1.407-6.231 1.784zm-7.592 8.547c-3.811-.2-7.243-.976-9.882-2.168-1.479-.666-2.7-1.463-3.612-2.397v4.463a.616.616 0 0 1 0 .154c0 .768.347 1.524 1.068 2.296.722.772 1.828 1.511 3.231 2.142 2.378 1.074 5.591 1.831 9.195 2.037v-6.527zm4.186-.014v6.526c3.505-.225 6.626-.972 8.952-2.022 1.401-.63 2.508-1.371 3.23-2.142.721-.772 1.068-1.528 1.068-2.296v-4.617c-.912.934-2.133 1.73-3.612 2.397-2.583 1.166-5.924 1.935-9.638 2.155zm-4.186 8.178c-3.811-.2-7.243-.977-9.882-2.169-1.479-.666-2.7-1.463-3.612-2.397v3.8c0 .769.347 1.525 1.068 2.297.722.771 1.828 1.511 3.231 2.142 2.803 1.267 6.768 2.092 11.165 2.092 4.397 0 8.362-.826 11.167-2.092 1.401-.63 2.508-1.371 3.23-2.142.721-.772 1.068-1.528 1.068-2.296v-3.801c-.912.934-2.133 1.73-3.612 2.397-2.583 1.166-5.924 1.935-9.637 2.156v.613c0 .54-.204 1.073-.614 1.485a2.084 2.084 0 0 1-2.96 0 2.09 2.09 0 0 1-.613-1.485v-.6zM17.097 0c4.595 0 8.767.826 11.854 2.22 1.542.694 2.814 1.537 3.739 2.525.926.987 1.5 2.159 1.5 3.418v23.674c0 1.26-.575 2.43-1.5 3.419-.925.987-2.198 1.83-3.74 2.524C25.864 39.174 21.693 40 17.099 40c-4.595 0-8.766-.826-11.854-2.22-1.541-.694-2.814-1.537-3.738-2.524-.926-.99-1.501-2.16-1.501-3.42V24.49a.616.616 0 0 1 0-.154v-8.01a.616.616 0 0 1 0-.153v-8.01c0-1.26.575-2.43 1.5-3.419.925-.986 2.198-1.83 3.74-2.524C8.331.826 12.502 0 17.097 0z" fill="#000" fill-rule="nonzero"/>
</svg>
