<svg xmlns="http://www.w3.org/2000/svg" viewBox="0 0 97 80">
    <style>
        .color{fill:#000}
    </style>
    <g fill="none">
        <path class="color" d="M76 31c-5.645 0-10.77 1.012-14.563 2.719-1.894.851-3.457 1.883-4.593 3.093C55.707 38.023 55 39.458 55 41v9.813A.753.753 0 0 0 55 51v9.813A.753.753 0 0 0 55 61v9c0 1.543.707 2.977 1.844 4.188 1.136 1.21 2.699 2.242 4.593 3.093C65.23 78.988 70.356 80 76 80c5.645 0 10.77-1.012 14.563-2.719 1.894-.851 3.457-1.883 4.593-3.094C96.293 72.978 97 71.543 97 70V41c0-1.543-.707-2.977-1.844-4.188-1.136-1.21-2.699-2.242-4.594-3.093C86.77 32.012 81.645 31 76 31zm0 2c5.402 0 10.273 1.012 13.719 2.563 1.722.773 3.082 1.68 3.969 2.624C94.573 39.133 95 40.06 95 41c0 .941-.426 1.867-1.313 2.813-.886.945-2.246 1.851-3.968 2.624C86.273 47.989 81.402 49 76 49c-5.402 0-10.273-1.012-13.719-2.563-1.722-.773-3.082-1.68-3.968-2.624C57.425 42.867 57 41.94 57 41c0-.941.426-1.867 1.313-2.813.886-.945 2.246-1.851 3.968-2.624C65.727 34.011 70.598 33 76 33zM57 45.344c1.121 1.144 2.621 2.12 4.438 2.937C65.23 49.988 70.355 51 76 51s10.77-1.012 14.563-2.719c1.816-.816 3.316-1.793 4.437-2.937V51c0 .941-.426 1.867-1.313 2.813-.886.945-2.246 1.851-3.968 2.624C86.273 57.989 81.402 59 76 59c-5.402 0-10.273-1.012-13.719-2.563-1.722-.773-3.082-1.68-3.968-2.624C57.425 52.867 57 51.94 57 51a.753.753 0 0 0 0-.188v-5.468zm0 10c1.121 1.144 2.621 2.12 4.438 2.937C65.23 59.988 70.355 61 76 61s10.77-1.012 14.563-2.719c1.816-.816 3.316-1.793 4.437-2.937V61c0 .941-.426 1.867-1.313 2.813-.886.945-2.246 1.851-3.968 2.624C86.273 67.989 81.402 69 76 69c-5.402 0-10.273-1.012-13.719-2.563-1.722-.773-3.082-1.68-3.968-2.624C57.425 62.867 57 61.94 57 61a.753.753 0 0 0 0-.188v-5.468zm0 10c1.121 1.144 2.621 2.12 4.438 2.937C65.23 69.988 70.355 71 76 71s10.77-1.012 14.563-2.719c1.816-.816 3.316-1.793 4.437-2.937V70c0 .941-.426 1.867-1.313 2.813-.886.945-2.246 1.851-3.968 2.624C86.273 76.989 81.402 78 76 78c-5.402 0-10.273-1.012-13.719-2.563-1.722-.773-3.082-1.68-3.968-2.624C57.425 71.867 57 70.94 57 70v-4.656z" fill="#000"/>
        <path class="color" d="M27.207 48.54c2.885-.442 5.453-1.176 7.512-2.102 1.722-.774 3.082-1.68 3.968-2.626C39.575 42.867 40 41.943 40 41c0-.941-.426-1.867-1.313-2.813-.886-.945-2.246-1.851-3.968-2.624C31.273 34.011 26.402 33 21 33c-5.402 0-10.273 1.012-13.719 2.563-1.722.773-3.082 1.68-3.968 2.624C2.425 39.133 2 40.06 2 41c0 .941.426 1.867 1.313 2.813.886.945 2.246 1.851 3.968 2.624 1.957.881 4.373 1.588 7.086 2.034l1.055-9.135h1.938v8.58a.51.51 0 0 0 .254.453.51.51 0 0 0 .52 0 .51.51 0 0 0 .254-.454v-8.579h1.881v8.58a.51.51 0 0 0 .255.453.51.51 0 0 0 .52 0 .51.51 0 0 0 .254-.454v-8.579h1.881v8.58a.51.51 0 0 0 .254.453.51.51 0 0 0 .52 0 .51.51 0 0 0 .255-.454v-8.579l1.936.002 1.063 9.201zm-13.071 1.934c-2.903-.462-5.52-1.212-7.698-2.193C4.62 47.465 3.12 46.488 2 45.344v5.468A.753.753 0 0 1 2 51c0 .941.426 1.867 1.313 2.813.886.945 2.246 1.851 3.968 2.624 2.841 1.28 6.652 2.192 10.93 2.472v-3.384c.008.01-.037-.624-.062-.58a.516.516 0 0 0-.451-.27h-.424a3.242 3.242 0 0 1-3.25-3.24l.112-.96zm13.302.066l.103.896a3.242 3.242 0 0 1-3.248 3.24h-.423a.516.516 0 0 0-.452.27c-.024-.045-.071.59-.063.582v3.407c4.455-.245 8.427-1.176 11.364-2.498 1.722-.773 3.082-1.68 3.968-2.624C39.575 52.867 40 51.94 40 51v-5.656c-1.121 1.144-2.621 2.12-4.438 2.937-2.284 1.028-5.051 1.804-8.124 2.259zm-9.226 10.376c-4.536-.274-8.617-1.214-11.774-2.635C4.62 57.465 3.12 56.488 2 55.344v5.468A.753.753 0 0 1 2 61c0 .941.426 1.867 1.313 2.813.886.945 2.246 1.851 3.968 2.624 2.841 1.28 6.652 2.192 10.93 2.472v-7.993zm5.143.025v7.994c4.455-.245 8.427-1.176 11.364-2.498 1.722-.773 3.082-1.68 3.968-2.624C39.575 62.867 40 61.94 40 61v-5.656c-1.121 1.144-2.621 2.12-4.438 2.937-3.257 1.467-7.498 2.42-12.207 2.66zm-5.143 9.975c-4.536-.274-8.617-1.214-11.774-2.635C4.62 67.465 3.12 66.488 2 65.344V70c0 .941.426 1.867 1.313 2.813.886.945 2.246 1.851 3.968 2.624C10.727 76.989 15.598 78 21 78c5.402 0 10.273-1.012 13.719-2.563 1.722-.773 3.082-1.68 3.968-2.624C39.575 71.867 40 70.94 40 70v-4.656c-1.121 1.144-2.621 2.12-4.438 2.937-3.257 1.467-7.498 2.42-12.207 2.66v1.708c0 .66-.249 1.314-.753 1.818a2.564 2.564 0 0 1-3.637 0 2.556 2.556 0 0 1-.753-1.818v-1.733zM21 31c5.645 0 10.77 1.012 14.563 2.719 1.894.851 3.457 1.883 4.593 3.093C41.293 38.023 42 39.458 42 41v29c0 1.543-.707 2.977-1.844 4.188-1.136 1.21-2.699 2.242-4.593 3.093C31.77 78.988 26.645 80 21 80c-5.645 0-10.77-1.012-14.563-2.719-1.894-.851-3.457-1.883-4.593-3.094C.707 72.978 0 71.543 0 70v-9a.753.753 0 0 1 0-.188V51a.753.753 0 0 1 0-.188V41c0-1.543.707-2.977 1.844-4.188 1.136-1.21 2.699-2.242 4.593-3.093C10.23 32.012 15.355 31 21 31z" fill="#4A90E2"/>
        <path class="color" d="M27.18 14.314c.163-.359.333-.71.509-1.055l.453-.892 1.783.908-.454.891a23.8 23.8 0 0 0-.285.577l5.624 1.203-9.773 12.226-3.917-15.154 6.06 1.296zm4.315-3.405l-.602.798-1.596-1.204.602-.799c.425-.563.872-1.1 1.342-1.611l.676-.736L33.39 8.71l-.677.736c-.426.464-.832.951-1.218 1.463zm4.068-3.994l-.811.584-1.17-1.622.811-.585a21.229 21.229 0 0 1 1.761-1.14l.865-.503 1.004 1.73-.865.502c-.552.32-1.084.665-1.595 1.034zm5.143-2.665l-.943.334-.669-1.885.943-.334a26.342 26.342 0 0 1 1.985-.616l.966-.26.518 1.932-.966.26a23.63 23.63 0 0 0-1.834.569zm5.562-1.3l-.991.13-.259-1.984.992-.13A36.31 36.31 0 0 1 48.056.76l.997-.073.146 1.995-.997.073a34.31 34.31 0 0 0-1.934.196zm5.869-.286l-1-.026.051-2 1 .026a38.47 38.47 0 0 1 2.05.107l.997.079-.157 1.993-.997-.079a36.615 36.615 0 0 0-1.944-.1zm5.786.647l-.978-.208.415-1.956.978.207c.69.147 1.362.316 2.015.51l.959.282-.567 1.918-.959-.283a24.65 24.65 0 0 0-1.863-.47zm5.423 1.876l-.891-.454.909-1.782.89.455c.632.322 1.24.672 1.823 1.051l.839.545-1.09 1.677-.838-.544a18.218 18.218 0 0 0-1.642-.948zm4.564 3.334l-.7-.714 1.427-1.4.7.713c.49.499.954 1.026 1.393 1.582l.62.785-1.57 1.24-.62-.785c-.394-.5-.81-.973-1.25-1.421zm3.316 4.662l-.455-.89 1.782-.91.454.89c.31.609.6 1.24.868 1.895l.378.926-1.851.757-.379-.926a22.893 22.893 0 0 0-.797-1.742zm2.008 5.469l-.244-.97 1.94-.487.244.97c.164.652.311 1.321.442 2.01l.188.981-1.965.375-.187-.982a33.73 33.73 0 0 0-.418-1.897zm.964 5.832l-.091-.996 1.991-.182.092.996c.06.664.109 1.342.145 2.034l.052.999-1.998.103-.051-.998a49.502 49.502 0 0 0-.14-1.956z" fill="#BD3C39"/>
    </g>
</svg>
