<svg xmlns="http://www.w3.org/2000/svg" viewBox="0 0 97 80">
    <style>
        .color{fill:#000}
    </style>
    <g fill="none">
        <path class="color" d="M76 31c-5.645 0-10.77 1.012-14.563 2.719-1.894.851-3.457 1.883-4.593 3.093C55.707 38.023 55 39.458 55 41v9.813A.753.753 0 0 0 55 51v9.813A.753.753 0 0 0 55 61v9c0 1.543.707 2.977 1.844 4.188 1.136 1.21 2.699 2.242 4.593 3.093C65.23 78.988 70.356 80 76 80c5.645 0 10.77-1.012 14.563-2.719 1.894-.851 3.457-1.883 4.593-3.094C96.293 72.978 97 71.543 97 70V41c0-1.543-.707-2.977-1.844-4.188-1.136-1.21-2.699-2.242-4.594-3.093C86.77 32.012 81.645 31 76 31zm0 2c5.402 0 10.273 1.012 13.719 2.563 1.722.773 3.082 1.68 3.969 2.624C94.573 39.133 95 40.06 95 41c0 .941-.426 1.867-1.313 2.813-.886.945-2.246 1.851-3.968 2.624C86.273 47.989 81.402 49 76 49c-5.402 0-10.273-1.012-13.719-2.563-1.722-.773-3.082-1.68-3.968-2.624C57.425 42.867 57 41.94 57 41c0-.941.426-1.867 1.313-2.813.886-.945 2.246-1.851 3.968-2.624C65.727 34.011 70.598 33 76 33zM57 45.344c1.121 1.144 2.621 2.12 4.438 2.937C65.23 49.988 70.355 51 76 51s10.77-1.012 14.563-2.719c1.816-.816 3.316-1.793 4.437-2.937V51c0 .941-.426 1.867-1.313 2.813-.886.945-2.246 1.851-3.968 2.624C86.273 57.989 81.402 59 76 59c-5.402 0-10.273-1.012-13.719-2.563-1.722-.773-3.082-1.68-3.968-2.624C57.425 52.867 57 51.94 57 51a.753.753 0 0 0 0-.188v-5.468zm0 10c1.121 1.144 2.621 2.12 4.438 2.937C65.23 59.988 70.355 61 76 61s10.77-1.012 14.563-2.719c1.816-.816 3.316-1.793 4.437-2.937V61c0 .941-.426 1.867-1.313 2.813-.886.945-2.246 1.851-3.968 2.624C86.273 67.989 81.402 69 76 69c-5.402 0-10.273-1.012-13.719-2.563-1.722-.773-3.082-1.68-3.968-2.624C57.425 62.867 57 61.94 57 61a.753.753 0 0 0 0-.188v-5.468zm0 10c1.121 1.144 2.621 2.12 4.438 2.937C65.23 69.988 70.355 71 76 71s10.77-1.012 14.563-2.719c1.816-.816 3.316-1.793 4.437-2.937V70c0 .941-.426 1.867-1.313 2.813-.886.945-2.246 1.851-3.968 2.624C86.273 76.989 81.402 78 76 78c-5.402 0-10.273-1.012-13.719-2.563-1.722-.773-3.082-1.68-3.968-2.624C57.425 71.867 57 70.94 57 70v-4.656z" fill="#000"/>
        <path class="color" d="M27.207 48.54c2.885-.442 5.453-1.176 7.512-2.102 1.722-.774 3.082-1.68 3.968-2.626C39.575 42.867 40 41.943 40 41c0-.941-.426-1.867-1.313-2.813-.886-.945-2.246-1.851-3.968-2.624C31.273 34.011 26.402 33 21 33c-5.402 0-10.273 1.012-13.719 2.563-1.722.773-3.082 1.68-3.968 2.624C2.425 39.133 2 40.06 2 41c0 .941.426 1.867 1.313 2.813.886.945 2.246 1.851 3.968 2.624 1.957.881 4.373 1.588 7.086 2.034l1.055-9.135h1.938v8.58a.51.51 0 0 0 .254.453.51.51 0 0 0 .52 0 .51.51 0 0 0 .254-.454v-8.579h1.881v8.58a.51.51 0 0 0 .255.453.51.51 0 0 0 .52 0 .51.51 0 0 0 .254-.454v-8.579h1.881v8.58a.51.51 0 0 0 .254.453.51.51 0 0 0 .52 0 .51.51 0 0 0 .255-.454v-8.579l1.936.002 1.063 9.201zm-13.071 1.934c-2.903-.462-5.52-1.212-7.698-2.193C4.62 47.465 3.12 46.488 2 45.344v5.468A.753.753 0 0 1 2 51c0 .941.426 1.867 1.313 2.813.886.945 2.246 1.851 3.968 2.624 2.841 1.28 6.652 2.192 10.93 2.472v-3.384c.008.01-.037-.624-.062-.58a.516.516 0 0 0-.451-.27h-.424a3.242 3.242 0 0 1-3.25-3.24l.112-.96zm13.302.066l.103.896a3.242 3.242 0 0 1-3.248 3.24h-.423a.516.516 0 0 0-.452.27c-.024-.045-.071.59-.063.582v3.407c4.455-.245 8.427-1.176 11.364-2.498 1.722-.773 3.082-1.68 3.968-2.624C39.575 52.867 40 51.94 40 51v-5.656c-1.121 1.144-2.621 2.12-4.438 2.937-2.284 1.028-5.051 1.804-8.124 2.259zm-9.226 10.376c-4.536-.274-8.617-1.214-11.774-2.635C4.62 57.465 3.12 56.488 2 55.344v5.468A.753.753 0 0 1 2 61c0 .941.426 1.867 1.313 2.813.886.945 2.246 1.851 3.968 2.624 2.841 1.28 6.652 2.192 10.93 2.472v-7.993zm5.143.025v7.994c4.455-.245 8.427-1.176 11.364-2.498 1.722-.773 3.082-1.68 3.968-2.624C39.575 62.867 40 61.94 40 61v-5.656c-1.121 1.144-2.621 2.12-4.438 2.937-3.257 1.467-7.498 2.42-12.207 2.66zm-5.143 9.975c-4.536-.274-8.617-1.214-11.774-2.635C4.62 67.465 3.12 66.488 2 65.344V70c0 .941.426 1.867 1.313 2.813.886.945 2.246 1.851 3.968 2.624C10.727 76.989 15.598 78 21 78c5.402 0 10.273-1.012 13.719-2.563 1.722-.773 3.082-1.68 3.968-2.624C39.575 71.867 40 70.94 40 70v-4.656c-1.121 1.144-2.621 2.12-4.438 2.937-3.257 1.467-7.498 2.42-12.207 2.66v1.708c0 .66-.249 1.314-.753 1.818a2.564 2.564 0 0 1-3.637 0 2.556 2.556 0 0 1-.753-1.818v-1.733zM21 31c5.645 0 10.77 1.012 14.563 2.719 1.894.851 3.457 1.883 4.593 3.093C41.293 38.023 42 39.458 42 41v29c0 1.543-.707 2.977-1.844 4.188-1.136 1.21-2.699 2.242-4.593 3.093C31.77 78.988 26.645 80 21 80c-5.645 0-10.77-1.012-14.563-2.719-1.894-.851-3.457-1.883-4.593-3.094C.707 72.978 0 71.543 0 70v-9a.753.753 0 0 1 0-.188V51a.753.753 0 0 1 0-.188V41c0-1.543.707-2.977 1.844-4.188 1.136-1.21 2.699-2.242 4.593-3.093C10.23 32.012 15.355 31 21 31z" fill="#4A90E2"/>
        <path class="color" d="M67.405 15.679l-.11-.296a24.161 24.161 0 0 0-.735-1.774l-.42-.907 1.814-.84.42.906c.286.618.552 1.258.797 1.921l.27.728 6.127-.79-5.156 14.78-8.73-12.992 5.723-.736zm-44.37 12.557l-.064.998-1.996-.128.064-.998c.044-.689.099-1.364.165-2.027l.098-.995 1.99.197-.098.995c-.064.64-.117 1.292-.16 1.958zm.7-5.84l-.18.984-1.967-.36.18-.984c.126-.685.265-1.354.418-2.006l.229-.974 1.947.457-.229.974c-.145.62-.278 1.257-.398 1.91zm1.5-5.637l-.342.94-1.88-.683.342-.94c.24-.66.498-1.3.773-1.92l.407-.913 1.827.813-.407.914a27.437 27.437 0 0 0-.72 1.79zm2.574-5.185l-.553.833L25.59 11.3l.554-.833c.391-.588.804-1.151 1.24-1.688l.63-.776 1.553 1.26-.63.776c-.395.487-.771.999-1.128 1.535zm3.793-4.215l-.774.632-1.266-1.549.775-.632a20.198 20.198 0 0 1 1.696-1.244l.837-.549 1.097 1.673-.836.548c-.53.348-1.04.722-1.529 1.12zm4.946-2.897l-.927.373-.747-1.856.928-.373a23.964 23.964 0 0 1 1.969-.692l.957-.291.582 1.913-.957.291a21.8 21.8 0 0 0-1.805.635zm5.634-1.477l-.99.143-.286-1.98.99-.143a33.43 33.43 0 0 1 2.05-.23l.996-.082.163 1.994-.997.081c-.658.054-1.3.126-1.926.217zm5.704-.325l-1-.022.044-2 1 .022c.7.015 1.385.05 2.054.103l.997.079-.158 1.994-.997-.08a33.55 33.55 0 0 0-1.94-.096zm5.768.66l-.976-.217.437-1.952.975.218a24.7 24.7 0 0 1 2.014.538l.955.3-.6 1.908-.954-.3a22.7 22.7 0 0 0-1.85-.494zm5.364 1.982l-.876-.482.964-1.752.876.482a19.15 19.15 0 0 1 1.79 1.116l.818.575-1.15 1.636-.818-.575a17.15 17.15 0 0 0-1.604-1zm4.42 3.501l-.668-.744 1.487-1.337.669.744c.466.518.906 1.065 1.322 1.641l.585.811-1.623 1.17-.585-.811a17.336 17.336 0 0 0-1.187-1.474z" fill="#BD3C39"/>
    </g>
</svg>
