<svg xmlns="http://www.w3.org/2000/svg" viewBox="0 0 40 40">
  <style>.color{fill:#000}</style>
    <path class="color" d="M.952 0A.952.952 0 0 0 0 .952v38.096c0 .526.426.952.952.952h38.096a.952.952 0 0 0 .952-.952V.952A.952.952 0 0 0 39.048 0H.952zm.953 1.905h36.19v36.19H1.905V1.905zm13.333 4.762v7.619h19.048v-7.62H15.238zm1.905 1.904H32.38v3.81H17.143v-3.81zm-11.429.953v1.905h7.62V9.524h-7.62zm9.524 8.571v7.62h19.048v-7.62H15.238zM17.143 20H32.38v3.81H17.143V20zm-11.429.952v1.905h7.62v-1.905h-7.62zm9.524 8.572v5.714h5.714v-5.714h-5.714zm1.905 1.905h1.905v1.904h-1.905V31.43zm5.714 0v1.904h11.429V31.43H22.857z" fill="#000" fill-rule="nonzero"/>
</svg>
