<svg xmlns="http://www.w3.org/2000/svg" viewBox="0 0 40 40">
  <style>.color{fill:#000}</style>
    <path class="color" d="M20 0C8.974 0 0 8.974 0 20c0 8.723 5.617 16.156 13.418 18.882.112.08.245.126.383.13A19.9 19.9 0 0 0 20 40c11.026 0 20-8.974 20-20S31.026 0 20 0zm0 1.38c10.266 0 18.62 8.354 18.62 18.62 0 8.042-5.123 14.906-12.276 17.508a2.82 2.82 0 0 1-.137-.78v-3.625c0-1.444-.706-3.017-1.4-4.073 3.827-.646 8.202-2.632 8.202-10.043 0-2.032-.635-3.823-1.888-5.331.274-.906.614-2.816-.335-5.213a.696.696 0 0 0-.43-.405c-.194-.059-1.964-.52-5.64 1.892a19.142 19.142 0 0 0-9.422 0c-3.675-2.414-5.45-1.953-5.641-1.892a.696.696 0 0 0-.432.405c-.95 2.4-.611 4.307-.33 5.213-1.259 1.508-1.895 3.3-1.895 5.331 0 7.344 4.297 9.367 8.093 10.04-.477.604-.978 1.385-1.199 2.18-.98.272-2.99.28-4.34-2.032-.048-.088-1.228-2.184-3.556-2.345-.37.002-1.307.061-1.532.778-.252.794.627 1.398 1.004 1.654.024.016.062.037.086.05.043.022 1.048.55 1.797 2.436.157.494 1.528 4.208 6.45 3.554.002.544 0 .819-.006 1.037v.385c0 .224-.067.56-.143.778C6.498 34.9 1.38 28.036 1.38 20 1.38 9.734 9.733 1.38 20 1.38zm-.167 2.071c-2.688.03-5.347.738-7.688 2.077a.686.686 0 0 0-.26.938.688.688 0 0 0 .94.258 14.545 14.545 0 0 1 9.479-1.714.688.688 0 0 0 .79-.57.694.694 0 0 0-.572-.792 15.806 15.806 0 0 0-2.688-.197h-.001zm5.448.954a.685.685 0 0 0-.615.447.688.688 0 0 0 .404.889c.49.183.976.393 1.45.63a.692.692 0 0 0 .926-.304.694.694 0 0 0-.307-.927c-.516-.26-1.046-.49-1.587-.692a.729.729 0 0 0-.272-.043zm4.363 4.937c.742 2.18.234 3.759.051 4.206a.693.693 0 0 0 .132.728c1.194 1.306 1.8 2.89 1.8 4.711 0 6.99-4.144 8.395-8.2 8.844a.688.688 0 0 0-.374 1.207c.544.466 1.774 2.49 1.774 4.065v3.624c0 .013.003.614.2 1.199-3.29.927-6.772.926-10.062-.003.125-.388.194-.792.205-1.199l.003-.369c.002-.312.008-.736 0-1.875a.7.7 0 0 0-.26-.536.696.696 0 0 0-.579-.134c-4.63 1.01-5.632-2.334-5.67-2.474l-.024-.07c-.663-1.681-1.536-2.537-2.056-2.925 1.123.396 1.751 1.492 1.768 1.517 1.823 3.121 4.835 3.202 6.411 2.496a.686.686 0 0 0 .401-.533c.14-.986 1.224-2.29 1.77-2.769a.688.688 0 0 0 .202-.725.683.683 0 0 0-.576-.48c-4.046-.46-8.184-1.874-8.184-8.86 0-1.818.606-3.405 1.805-4.712a.687.687 0 0 0 .129-.728c-.184-.446-.692-2.02.046-4.201.587.018 2.018.268 4.426 1.904a.698.698 0 0 0 .574.094c1.44-.4 3.049-.616 4.644-.624 1.6.008 3.208.223 4.653.624.194.054.403.02.57-.094 2.423-1.644 3.853-1.888 4.421-1.908zM13.362 22.341a.684.684 0 0 0-.681.34l-.69 1.193a.69.69 0 0 0 .595 1.035.686.686 0 0 0 .596-.346l.69-1.193a.688.688 0 0 0-.51-1.03zm13.276 0a.691.691 0 0 0-.51 1.032l.69 1.193a.686.686 0 0 0 1.261-.167.686.686 0 0 0-.07-.522l-.69-1.194a.691.691 0 0 0-.681-.342zm-3.06 1.344a.653.653 0 0 0-.278.019.69.69 0 0 0-.488.843l.358 1.334a.69.69 0 0 0 .847.488.691.691 0 0 0 .488-.847l-.356-1.33a.694.694 0 0 0-.571-.506v-.001zm-7.152 0a.694.694 0 0 0-.575.507l-.355 1.334a.69.69 0 0 0 1.334.355l.357-1.334a.69.69 0 0 0-.762-.861v-.001zm3.574.453a.688.688 0 0 0-.69.69v1.38a.688.688 0 0 0 1.178.487.688.688 0 0 0 .202-.488v-1.38a.688.688 0 0 0-.69-.69z" fill="#000" fill-rule="nonzero"/>
</svg>
