<svg xmlns="http://www.w3.org/2000/svg" viewBox="0 0 32 40">
  <style>.color{fill:#000}</style>
    <g fill="none" fill-rule="evenodd">
        <path class="color" d="M16 0c-1.888 0-3.392 1.308-3.71 2.985H1.92C.867 2.985 0 3.795 0 4.777v33.432C0 39.19.867 40 1.92 40h28.16c1.053 0 1.92-.81 1.92-1.791V4.777c0-.983-.867-1.792-1.92-1.792H19.71C19.393 1.308 17.888 0 16 0zm0 1.194c1.42 0 2.56 1.064 2.56 2.388v.597h3.84V5.97c0 .338-.278.597-.64.597H10.24c-.362 0-.64-.259-.64-.597V4.178h3.84v-.596c0-1.324 1.14-2.388 2.56-2.388zm0 1.79c-.352 0-.64.27-.64.598 0 .328.288.597.64.597.352 0 .64-.268.64-.597 0-.328-.288-.597-.64-.597zM1.92 4.18h6.4V5.97c0 .982.867 1.79 1.92 1.79h11.52c1.053 0 1.92-.808 1.92-1.79V4.178h6.4c.362 0 .64.26.64.598v33.433c0 .338-.278.597-.64.597H1.92c-.362 0-.64-.259-.64-.597V4.777c0-.34.278-.598.64-.598zm6.4 11.343v4.776h5.12v-4.776H8.32zm1.28 1.195h2.56v2.388H9.6v-2.388zm6.4.597v1.193h9.6v-1.193H16zM8.32 23.88v4.776h5.12V23.88H8.32zm1.28 1.193h2.56v2.388H9.6v-2.388zm.64.598v1.194h1.28v-1.194h-1.28zm5.76 0v1.194h9.6v-1.194H16z" fill="#000" fill-rule="nonzero"/>
        <path d="M4.5 6.373v31.045" stroke="#000" stroke-width="1.5" stroke-linecap="round" stroke-linejoin="round" stroke-dasharray="0,3"/>
    </g>
</svg>
