<svg xmlns="http://www.w3.org/2000/svg" viewBox="0 0 25 32">
    <style>
        .color{fill:#000}
    </style>
    <path class="color" d="M13.235 0C9.846 0 7.583 2.022 6.26 3.952 5.035 5.735 4.573 7.356 4.5 7.623a2.38 2.38 0 0 0-.825 1.826v.443c-1.306.664-2.205 2.01-2.205 3.554a3.96 3.96 0 0 0 1.24 2.87 2.49 2.49 0 0 0-.505 1.491v.727h.15c.054.168.126.324.209.477-.066.071-.124.128-.195.227-.259.341-.575.86-.853 1.582.011-.026-.087.153-.224.35-.141.2-.328.448-.512.729-.37.565-.781 1.249-.781 2.087 0 .107.026.215.072.315 0 0 .376.735 1.278 1.365.41.293.948.571 1.611.792.015.1.02.194.043.299.15.684.652 1.482 1.537 2.01.138.261.448.92 1.178 1.468.25.19.551.357.899.508v.51a.73.73 0 0 0 .364.64c.23.13.512.13.741 0a.73.73 0 0 0 .365-.64v-.11c.44.068.925.11 1.47.11 2.784 0 4.39-1.268 5.14-2.54.712-1.207.735-2.345.735-2.467.002-.015.123-.929-.233-2.079-.36-1.161-1.218-2.612-3.056-3.71-2.64-1.582-6.474-1.56-6.474-1.56h-.89a1.097 1.097 0 0 1-1.104-1.09c0-.601.494-1.09 1.103-1.09h3.335a4.794 4.794 0 0 0 4.018 2.18c2.631 0 4.78-2.123 4.78-4.724 0-2.6-2.149-4.724-4.78-4.724a4.781 4.781 0 0 0-3.475 1.496A4.05 4.05 0 0 0 5.515 9.45a3.73 3.73 0 0 0-.368.02v-.02c0-.386.483-.909.483-.909a.71.71 0 0 0 .23-.363S6.306 6.47 7.475 4.77c1.167-1.7 2.947-3.313 5.756-3.316 0 0 2.462.022 4.88.97 1.21.472 2.387 1.17 3.249 2.17.862 1.002 1.433 2.3 1.433 4.128 0 1.167-.006 2.354-.356 3.74a.735.735 0 0 0-.402-.106.746.746 0 0 0-.61.352l-2.205 3.634a.73.73 0 0 0 .615 1.125c.27 0 .517-.145.649-.375l.838-1.386v1.738c0 .327.222.613.54.698a.74.74 0 0 0 .828-.323l.838-1.386v1.738a.73.73 0 0 0 .365.639c.23.13.511.13.741 0a.73.73 0 0 0 .365-.64v-4.36a.737.737 0 0 0-1.267-.5c.529-1.789.532-3.299.532-4.588 0-2.14-.716-3.827-1.784-5.07-1.068-1.242-2.464-2.048-3.829-2.579C15.924.006 13.238 0 13.238 0h-.003zm-7.72 10.903c.982 0 1.83.542 2.263 1.334a4.649 4.649 0 0 0-.425 1.936c0 .375.052.738.135 1.09H4.779c-.307 0-.6.063-.873.162a2.512 2.512 0 0 1-.965-1.979c0-1.413 1.143-2.543 2.574-2.543zm6.617 0c1.836 0 3.31 1.456 3.31 3.27 0 1.815-1.474 3.271-3.31 3.271-1.835 0-3.308-1.456-3.308-3.27 0-1.815 1.473-3.271 3.308-3.271zm-6.985 2.18a.733.733 0 0 0-.735.727c0 .4.33.727.735.727a.733.733 0 0 0 .735-.727c0-.4-.33-.727-.735-.727zm8.088.727a.733.733 0 0 0-.735.727c0 .4.33.727.735.727a.733.733 0 0 0 .736-.727c0-.4-.33-.727-.736-.727zm8.01 5.088c-.726 0-1.283.25-1.625.528-.344.278-.514.63-.514.63a.722.722 0 0 0 .37.96.74.74 0 0 0 .974-.37s-.008-.01.1-.096c.107-.085.285-.199.696-.199.422 0 .523.08.617.205.095.122.196.417.196.908 0-.03-.104.333-.394.594-.29.264-.703.474-1.26.474a.743.743 0 0 0-.535.224.72.72 0 0 0-.2.534s.206 5.454.944 8.154a.73.73 0 0 0 .52.531.75.75 0 0 0 .72-.193.723.723 0 0 0 .179-.718c-.557-2.039-.804-6.309-.853-7.226.583-.142 1.109-.372 1.476-.707.532-.48.873-1.014.873-1.667 0-.658-.103-1.283-.494-1.791-.393-.508-1.068-.775-1.79-.775zM3.597 20.053c.35.188.753.298 1.183.298h.874s3.67.114 5.733 1.349c1.528.917 2.136 2.01 2.41 2.89.27.88.183 1.477.183 1.477l-.008.05v.05s-.006.905-.543 1.813c-.537.909-1.505 1.82-3.87 1.82-1.633 0-2.472-.36-2.949-.718-.477-.36-.612-.71-.816-1.079l-.12-.224-.239-.102c-.508-.213-.752-.523-.887-.87.413.052.853.086 1.335.086 2.088 0 3.43-.185 4.277-.383.422-.1.724-.202.928-.287a2.5 2.5 0 0 0 .362-.188.724.724 0 0 0-.09-1.277.743.743 0 0 0-.749.085l-.098.04c-.12.05-.339.13-.692.213-.704.164-1.936.343-3.938.343-1.913 0-3.03-.497-3.682-.954-.534-.377-.603-.57-.658-.67.05-.304.196-.704.471-1.121.158-.242.33-.474.483-.69.152-.216.29-.39.4-.667.226-.597.476-.994.654-1.235.035-.04.02-.018.046-.049z"/>
</svg>
