<svg xmlns="http://www.w3.org/2000/svg" viewBox="0 0 42 42">
    <style>
        .color{fill:#000}
    </style>
    <path class="color" d="M1.953 0C1.441 0 .922.188.555.555.187.922 0 1.44 0 1.953v38.094c0 .508.188 1.031.555 1.398.367.367.886.555 1.398.555h38.094c.508 0 1.031-.188 1.398-.555.367-.367.555-.886.555-1.398V1.953c0-.512-.188-1.031-.555-1.398C41.078.187 40.56 0 40.047 0H1.953zM2 2h38v38H2V2zm6.434 14.89V27h1.96v-4.23h2.06V27h1.964V16.89h-1.965v4.051h-2.058v-4.05H8.434zm7.035 0v1.813h1.781V27h1.969v-8.297h1.797v-1.812h-5.547zm6.941 0L21.676 27h1.699l.16-3.512c.063-1.004.121-2.277.152-3.375h.047c.149 1.098.418 2.356.614 3.168l.84 3.551h1.394l.871-3.613c.192-.778.465-2.024.645-3.106h.043c-.028 1.082.047 2.387.093 3.348L28.41 27h1.758l-.617-10.11h-2.067l-.797 3.66c-.269 1.274-.496 2.419-.644 3.544h-.027c-.184-1.145-.438-2.27-.723-3.543l-.809-3.66H22.41zm9.2 0V27h4.558v-1.664h-2.594V16.89H31.61z"/>
</svg>
