<svg xmlns="http://www.w3.org/2000/svg" viewBox="0 0 97 40">
    <style>
        .color{fill:#000}
    </style>
    <defs>
        <linearGradient x1="23.962%" y1="46.043%" x2="68.784%" y2="55.602%" id="a">
            <stop stop-color="#919191" offset="0%"/>
            <stop stop-color="#FFF" offset="100%"/>
        </linearGradient>
        <linearGradient x1="26.427%" y1="42.381%" x2="67.132%" y2="51.906%" id="b">
            <stop stop-color="#900" offset="0%"/>
            <stop stop-color="#E80000" offset="100%"/>
        </linearGradient>
        <linearGradient x1="50%" y1="99.822%" x2="50%" y2="-.044%" id="c">
            <stop stop-color="#1A1A1A" offset="0%"/>
            <stop stop-color="#4A4A4C" offset="40.26%"/>
            <stop stop-color="#333" offset="100%"/>
        </linearGradient>
    </defs>
    <g fill="none">
        <path class="color" d="M87.089.55a.472.472 0 0 0 0 .231s.248 1.638-.039 2.37l-11.772 30.89c-.84 2.274.287 4.798 2.542 5.665s4.758-.25 5.657-2.505l11.772-30.89c.229-.597 1.548-1.772 1.548-1.772.057-.058.114-.116.153-.173v-.02c0-.019.019-.019.019-.038.305-.79-1.663-2.293-4.377-3.353-2.713-1.06-5.178-1.272-5.484-.463 0 0-.02.02-.02.058z" fill="#000" opacity=".1"/>
        <path class="color" d="M86.088.55a.473.473 0 0 0 0 .231s.249 1.638-.038 2.37l-11.772 30.89c-.84 2.274.287 4.798 2.542 5.665s4.758-.25 5.657-2.505l11.772-30.89c.229-.597 1.548-1.772 1.548-1.772.057-.058.114-.116.153-.173v-.02c0-.019.019-.019.019-.038.305-.79-1.663-2.293-4.377-3.353-2.714-1.06-5.179-1.272-5.485-.463 0 .02 0 .039-.019.058z" fill="url(#a)"/>
        <path class="color" d="M89 15l-8.125 22.017c-.602 1.58-2.337 2.4-3.888 1.77-1.552-.628-2.374-2.475-1.808-4.056l5.185-14.075s.64-1.085 1.917-1.866c1.278-.78 2.319-.61 3.725-1.257C87.43 16.886 89 15 89 15z" fill="url(#b)"/>
        <path class="color" d="M94.985 4.65c.166-.623-1.035-1.868-2.683-2.78-1.648-.91-3.12-1.144-3.287-.52-.166.623 1.035 1.867 2.683 2.78 1.648.91 3.12 1.144 3.287.52z" fill="#333"/>
        <path class="color" d="M86.023 1s.247 1.63-.038 2.359L74.277 34.094c-.837 2.263.285 4.775 2.528 5.638.38.153.779.249 1.178.268a4.451 4.451 0 0 1-1.464-5.062L88 4.816S86.422 3.339 86.023 1z" fill="#FFF" opacity=".3"/>
        <g opacity=".5" transform="translate(80 22)" fill="#FFF">
            <circle cx="3.437" cy=".634" r="1"/>
            <ellipse cx="5.447" cy="2.951" rx="1" ry="1"/>
            <ellipse cx="2.119" cy="5.903" rx="1" ry="1"/>
            <ellipse cx=".595" cy="7.704" rx="1" ry="1"/>
            <circle cx="2.749" cy="11.692" r="1"/>
        </g>
        <path class="color" d="M22.614 18.348c.513.428 1.445.175 2.072-.525.665-.74.76-1.694.247-2.122-.513-.428-1.445-.175-2.072.564-.665.74-.78 1.675-.247 2.083zm-1.54 1.382c-.133 0-.38.253-.171.35.285.098.418.35.418.701-.247 1.46-2.015 3.115-2.7 3.68-.17.174.077.564.248.427.38-.311 1.178-.953 1.825-1.81-1.065 2.433-3.156 5.586-3.954 6.696-3.118 4.418-7.852 8.486-11.103 8.486-2.604 0-4.81-1.81-5.285-4.457-.038-.292-.418-.35-.342.039.59 3.64 3.327 5.06 6.635 5.06 3.63 0 7.89-2.685 10.247-5.45 3.802-4.457 6.254-9.595 5.608-12.496-.266-1.07-1.008-1.245-1.426-1.226zm23.364 9.713c1.008-.253 1.825-.818 1.825-1.713 0-.097-.17-.097-.17 0 0 .526-.59.973-1.256 1.07-1.558.254-4.638-1.615-6.083-3.542 1.559.603 4.734-.272 6.235-1.382 1.388-1.032 1.94-2.16 2.035-3.075.17-1.519-1.445-2.414-3.708-1.519-1.444.604-3.174 1.908-4.98 4.36 1.9-3.211 5.646-8.466 9.315-11.814 4.468-4.068 7.053-3.29 3.042 1.031-1.654 1.771-4.772 4.068-6.92 5.061-.665.292-.342.681.133.467 2.281-1.031 5.323-3.153 7.167-4.924 5.437-5.353.893-9.382-5.114-3.718-4.087 3.854-6.749 7.883-9.068 13.119-.798.993-1.388 1.81-2.11 2.433-.095.078-.152.156-.21.234-1.996 1.751-5.132 4.126-7.09 4.146-1.388.039-1.978-1.032-1.73-2.414.38-2.16 2.566-4.71 4.43-5.586 2.413-1.13 3.84 1.07.664 2.822-1.216.642-2.66.993-3.25.993-.685 0-.628.292-.038.311.97.04 2.528-.39 3.555-.876 3.25-1.596 3.46-4.574-.076-4.671-3.84-.136-8.441 3.211-8.403 7.435.038 1.908 1.52 2.94 3.555 2.94 3.403-.04 6.425-2.687 8.916-5.022a16.88 16.88 0 0 0 1.046-.993c-.875 2.258-1.312 4.36-1.103 5.917.133 1.129.76 1.655 1.255 2.083.095.077.304 0 .17-.215-.722-.875-.513-3.503.476-6.053.836 1.713 4.087 3.874 7.49 3.095zm-4.087-7.377c3.973-3.64 5.532-.39 3.004 1.596-1.312 1.032-3.917 1.81-4.734 1.304l-.171-.097c-.095-.175-.21-.35-.285-.526.665-.837 1.426-1.576 2.186-2.277zm22.09-4.146c1.597.175.932-1.81-.684-1.304-.722.214-1.426 1.635-1.94 2.861-1.596 2.433-4.258 5.762-6.12 7.513-1.654 1.46-3.175 1.85-1.312-.876.76-1.09 1.73-2.257 2.281-3.425 1.312-2.94-1.483-4.243-3.745-2.472-1.312 1.031-3.08 3.153-4.468 4.321-.38.311-.285.778.096.467 1.102-.915 3.041-3.017 4.714-4.243 1.388-1.09 1.94-.39 1.14.525-1.102 1.304-3.041 3.582-3.535 5.022-.685 2.16.133 3.114 1.52 3.114 1.902 0 4.734-3.036 6.635-5.45a41.405 41.405 0 0 0 1.901-2.686c-1.654 3.29-3.384 6.618-5.532 9.635-3.042 4.244-6.844 7.436-10.456 7.436a5.367 5.367 0 0 1-5.323-4.458c-.038-.292-.38-.35-.342.04.59 3.639 3.327 5.06 6.635 5.06 3.63 0 7.129-2.16 9.581-4.808 4.943-5.353 5.532-11.367 7.053-14.734.723-1.538 1.37-1.596 1.901-1.538zm20.114-5.139c.722-1.265.684-2.258-1.008-2.258-1.274.04-3.593.954-4.677 1.81-.247.254-.133.39.172.254.209-.078.456-.215.684-.312 1.217-.681.722.74.456 1.265-1.445 2.59-4.011 6.229-5.36 8.04a27.35 27.35 0 0 1-2.073 2.53c-1.293 1.265-3.86 3.503-5.817 4.243-6.293 2.413 1.73-8.565 2.395-9.46 1.483-1.907 4.81-5.236 5.817-6.91.723-1.265.685-2.258-1.007-2.258-1.274.04-3.593.954-4.677 1.81-.247.254-.133.39.171.254.21-.078.456-.215.685-.312 1.216-.681.722.74.456 1.265-1.445 2.589-4.011 6.229-5.361 8.04-1.103 1.517-2.452 3.035-3.498 3.892-.418.35-.171.681.247.39.38-.254.932-.818 1.559-1.48-1.14 2.336-2.072 5.625.931 6.014 2.567.35 5.609-2.316 7.586-4.301l.703-.72.171-.176c-1.14 2.336-2.072 5.626.932 6.015 3.289.467 7.376-4.068 8.954-5.742.304-.311.209-.857-.304-.311-.932.992-4.088 3.931-6.369 4.807-6.292 2.414 1.73-8.564 2.395-9.46 1.502-1.946 4.83-5.274 5.837-6.929z" fill="#000" opacity=".1"/>
        <path class="color" d="M22.6 18.348c.513.428 1.445.175 2.073-.525.665-.74.76-1.694.247-2.122-.514-.428-1.445-.175-2.073.564-.665.74-.76 1.655-.247 2.083zm-1.521 1.382c-.133 0-.38.253-.171.35.285.098.418.35.418.701-.247 1.46-2.016 3.115-2.7 3.679-.171.175.076.564.247.428.38-.311 1.179-.953 1.825-1.81-1.065 2.433-3.156 5.586-3.955 6.696-3.118 4.418-7.853 8.486-11.105 8.486-2.605 0-4.81-1.81-5.286-4.457-.038-.292-.418-.35-.342.039.59 3.64 3.328 5.06 6.636 5.06 3.632 0 7.892-2.686 10.25-5.45 3.802-4.457 6.255-9.595 5.609-12.496-.285-1.09-1.008-1.265-1.426-1.226zm23.35 9.713c1.008-.253 1.826-.818 1.826-1.713 0-.097-.171-.097-.171 0 0 .526-.59.973-1.255 1.07-1.56.253-4.64-1.615-6.085-3.542 1.56.603 4.735-.272 6.237-1.382 1.388-1.032 1.94-2.16 2.034-3.075.171-1.519-1.445-2.414-3.708-1.519-1.445.604-3.175 1.908-4.982 4.36 1.902-3.211 5.648-8.466 9.318-11.814 4.468-4.068 7.054-3.29 3.042 1.031-1.654 1.771-4.772 4.068-6.921 5.061-.666.292-.342.681.133.467 2.282-1.031 5.324-3.153 7.168-4.925 5.439-5.352.894-9.381-5.114-3.717-4.089 3.834-6.75 7.883-9.07 13.119-.8.993-1.389 1.81-2.111 2.433a1.136 1.136 0 0 0-.21.234c-1.996 1.751-5.134 4.126-7.092 4.145-1.388.04-1.978-1.031-1.73-2.413.38-2.16 2.567-4.71 4.43-5.586 2.415-1.13 3.841 1.07.666 2.822-1.218.642-2.663.993-3.252.993-.685 0-.628.291-.038.311.97.039 2.529-.39 3.556-.876 3.251-1.596 3.46-4.574-.077-4.671-3.84-.137-8.442 3.211-8.404 7.435.038 1.908 1.521 2.94 3.556 2.94 3.404-.04 6.427-2.687 8.918-5.023.361-.311.703-.642 1.046-.992-.875 2.258-1.312 4.36-1.103 5.917.133 1.129.76 1.654 1.255 2.083.095.077.304 0 .17-.214-.722-.876-.513-3.504.476-6.054.856 1.713 4.108 3.873 7.492 3.095zm-4.088-7.397c3.974-3.64 5.534-.389 3.005 1.597-1.313 1.031-3.918 1.81-4.735 1.304l-.171-.098c-.096-.175-.21-.35-.286-.525.666-.818 1.426-1.577 2.187-2.278zm22.096-4.126c1.597.175.931-1.81-.685-1.304-.723.214-1.426 1.635-1.94 2.861-1.597 2.433-4.259 5.762-6.122 7.514-1.655 1.46-3.176 1.849-1.312-.876.76-1.09 1.73-2.258 2.282-3.426 1.311-2.94-1.484-4.243-3.747-2.472-1.312 1.031-3.08 3.153-4.468 4.321-.38.311-.285.778.095.467 1.103-.915 3.042-3.017 4.716-4.243 1.388-1.09 1.94-.39 1.14.525-1.102 1.305-3.042 3.582-3.536 5.022-.685 2.16.133 3.114 1.521 3.114 1.901 0 4.735-3.036 6.636-5.45a41.258 41.258 0 0 0 1.902-2.686c-1.654 3.29-3.385 6.618-5.534 9.635-3.042 4.244-6.845 7.436-10.458 7.436-2.605 0-4.849-1.81-5.324-4.458-.038-.292-.38-.35-.342.04.59 3.639 3.327 5.06 6.636 5.06 3.632 0 7.13-2.16 9.584-4.808 4.943-5.352 5.533-11.367 7.054-14.734.723-1.538 1.388-1.616 1.901-1.538zm20.118-5.158c.722-1.265.684-2.258-1.008-2.258-1.274.04-3.594.954-4.678 1.81-.247.253-.133.39.171.253.21-.078.457-.214.685-.311 1.217-.681.722.74.456 1.265-1.445 2.589-4.012 6.229-5.362 8.039a27.361 27.361 0 0 1-2.073 2.53c-1.293 1.265-3.86 3.504-5.818 4.243-6.294 2.414 1.73-8.564 2.396-9.46 1.483-1.907 4.81-5.235 5.818-6.909.723-1.265.685-2.258-1.008-2.258-1.274.039-3.594.954-4.677 1.81-.248.253-.133.39.17.253.21-.078.457-.214.685-.311 1.217-.681.723.74.457 1.265-1.445 2.589-4.013 6.229-5.363 8.039-1.103 1.518-2.453 3.036-3.498 3.893-.419.35-.171.68.247.389.38-.253.931-.818 1.559-1.48-1.14 2.336-2.073 5.626.932 6.015 2.567.35 5.61-2.316 7.587-4.301l.703-.72.172-.176c-1.141 2.336-2.073 5.625.931 6.015 3.29.467 7.378-4.068 8.956-5.742.305-.312.21-.857-.304-.312-.931.993-4.088 3.932-6.37 4.808-6.294 2.413 1.73-8.564 2.396-9.46 1.521-1.946 4.83-5.275 5.837-6.93z" fill="url(#c)"/>
    </g>
</svg>
