<svg xmlns="http://www.w3.org/2000/svg" viewBox="0 0 56 61">
    <style>
        .color{fill:#000}
    </style>
    <path class="color" d="M31.07.01c-8.903.194-13.993 4.238-14.279 4.467-.227.076-6.106 2.11-7.3 7.417-.184.076-.234.068-.503.229-.538.356-1.21.94-1.756 1.881-1.041 1.79-1.478 4.858-.344 9.63-1.58 1.23-2.436 3.154-2.453 5.188-.017 2.365.781 4.84 2.386 6.57 1.436 1.55 2.83 2.22 3.906 2.45.42.093.436.008.747 0 .193 1.017.924 3.958 2.495 7.01-.907.517-3.503 1.983-6.56 3.772a235.205 235.205 0 0 0-4.704 2.814c-.639.407-1.168.755-1.571 1.034a8.09 8.09 0 0 0-.512.39c-.076.06-.143.119-.227.212-.084.102-.252.161-.311.678L0 54.583 2.554 61h50.97l.235-.763s.588-1.882 1.15-4.01c.286-1.06.563-2.178.773-3.17.202-1 .353-1.805.311-2.543-.034-.424-.168-.576-.269-.737a4.41 4.41 0 0 0-.344-.441 12.264 12.264 0 0 0-.933-.924 58.56 58.56 0 0 0-2.595-2.204c-1.504-1.212-2.461-1.924-2.99-2.331.453-.568 1.428-1.594 2.67-4.773 1.521-3.865 2.873-9.74 2.31-17.784-.537-7.612-3.14-12.91-6.98-16.301-3.108-2.73-6.955-4.17-11.037-4.73V.272c-.034 0-.059.008-.092 0a34.428 34.428 0 0 0-2.831-.254 33.117 33.117 0 0 0-1.831-.009zm2.344 2.432a20.054 20.054 0 0 1 2.142 0c3.747.517 7.182 1.823 9.895 4.222 1.487 1.313 2.772 2.975 3.797 5.026a5.615 5.615 0 0 0-2.302-.398c-1.822.102-3.158.975-3.158.975l1.15 1.84s.933-.586 2.118-.645c1.159-.06 2.478.246 3.746 2.441.428 1.653.74 3.467.89 5.51-.067-.118-.117-.22-.201-.356a79.525 79.525 0 0 0-.874-1.576c-.638-1.102-1.26-2.162-1.26-2.162L47.51 18.42s.613 1.051 1.235 2.145c.32.542.63 1.102.865 1.534.076.127.118.212.168.313-.092.051-.134.085-.336.128-.655.144-1.747.127-2.797-.187l-.596 2.094c1.377.398 2.73.458 3.838.212.563-.119 1.067-.297 1.512-.678.143-.119.27-.297.387-.483.201 6.67-.975 11.553-2.243 14.809-1.403 3.577-2.856 5.136-2.856 5.136l-.806.89v.009c-1.176 1.161-3.847 3.213-8.367 3.543-6.283.467-10.583-3.5-12.658-5.73-1.982-2.12-2.26-3.738-2.26-3.738l-2.116.415s.495 2.331 2.814 4.815a24.097 24.097 0 0 0 4.183 3.586c-.135.008-.278-.009-.42.017-.84.144-1.672.534-2.251 1.254-3.05-.178-5.192-1.068-6.552-1.958-1.462-.966-2.016-1.797-2.033-1.823-1.436-2.356-2.285-5.662-2.63-7.222.58-.296 1.303-.83 2.05-1.754l-1.671-1.374c-.588.72-1.075 1.051-1.386 1.212l-.017.009-.538.17s-.21.093-.848-.043-1.613-.542-2.789-1.814c-1.134-1.22-1.822-3.238-1.806-5.06.017-1.832.672-3.307 1.899-3.934l.033-.025c1.454-.814 2.42-.924 3.075-.789.655.136 1.108.517 1.495 1.068.781 1.11 1.008 2.78 1.008 2.78l.151 1.349 4.36-1.518-.11-.873s-.201-1.5-.84-3.34c-.394-1.11-.218-2.551.202-4.043.412-1.492 1.025-2.967 1.277-4.315.268-1.424-.076-2.441-.462-3.136.772-1.577 4.888-9.062 14.741-9.63zm-9.407.856c-3.638 2.34-5.813 5.366-6.863 7.112l-.294.034c-1.99.187-3.713.509-5.006.789 1.495-3.213 5.745-4.756 5.745-4.756l.193-.068.152-.127s2.116-1.763 6.073-2.984zm4.972 8.486c-2.25.118-3.788 1.246-4.611 2.509C23.259 15.98 23.2 17.81 23.2 17.81l2.142.118s.093-1.34.815-2.441c.722-1.102 1.831-2.06 4.813-1.356l.496-2.111a8.756 8.756 0 0 0-2.487-.237zm-12.482.915c.437.492.781.746.53 2.102-.177.95-.79 2.476-1.252 4.145-.454 1.662-.781 3.535-.151 5.34.403 1.154.436 1.586.52 2.06l-.37.128c-.134-.746-.108-1.399-.923-2.56-.613-.865-1.546-1.679-2.84-1.941-.957-.195-2.049-.068-3.275.415-.849-4.001-.303-6.163.353-7.282.352-.618.756-.957 1.05-1.144.294-.186.411-.212.411-.212h.017s2.94-.695 5.93-1.051zM33.7 17.658l-1.982.84s1.461 3.492 2.427 5.212c-.067.043-.075.068-.302.12-.723.16-2.1.084-3.663-.603l-.865 1.992c1.915.84 3.654 1.026 4.981.73.664-.145 1.269-.39 1.705-.95.446-.56.488-1.509.11-2.136-.672-1.128-2.411-5.205-2.411-5.205zm8.324 1.297l-2.15.025s.059 5.163 4.158 8.91h-.009c1.722 1.576 2.445 2.602 2.562 2.966.059.187.042.17.009.238-.026.068-.152.237-.404.474-.319.289-1.579.924-2.94 1.34-1.36.415-2.889.686-3.855.661-.361-.017-.412-.085-.47-.144-.068-.068-.135-.212-.168-.44-.068-.45.058-1.027.058-1.027l-2.091-.534s-.244.873-.093 1.882c.076.509.26 1.094.714 1.594.462.5 1.193.814 1.991.84 1.378.033 3.016-.29 4.536-.755 1.52-.467 2.864-.992 3.755-1.806.353-.322.705-.687.932-1.204.227-.517.26-1.186.076-1.788-.387-1.187-1.361-2.247-3.167-3.908-3.377-3.086-3.444-7.324-3.444-7.324zM10.13 26.092c-.689.043-1.411.356-2.066.899l1.21 1.466c-.295.89-.589 2.196-.345 3.544l2.117-.39c-.118-.644.059-1.518.252-2.247.269.551.478 1.094.478 1.094l2.075-.551s-.31-1.322-1.15-2.441c-.429-.56-1.025-1.136-1.899-1.323a2.23 2.23 0 0 0-.672-.05zm37.841 8.359c-1.638 1.873-4.637 2.127-4.637 2.127l.126 2.17s3.747-.127 6.124-2.873L47.97 34.45zm-14.43.771L32.18 36.9c4.56 3.739 10.07 2.137 10.07 2.137l-.595-2.077s-4.444 1.263-8.115-1.738zm-.597 3.475l-2.075.594c.42 1.509 1.462 2.585 2.646 3.255 1.176.67 2.512.983 3.772 1.153 2.52.33 4.804.017 4.804.017l-.277-2.153s-2.075.27-4.242-.017c-1.092-.136-2.184-.424-3.015-.89-.823-.475-1.37-1.052-1.613-1.959zm14.658 6.943c.537.415 1.453 1.094 2.906 2.263.915.738 1.831 1.5 2.495 2.111.336.314.613.585.772.771l.042.043c-.008.28-.067.932-.243 1.78-.193.932-.47 2.026-.74 3.06-.453 1.67-.747 2.636-.907 3.162H49.4l-.075-.619c-.093-.83-.538-1.34-.992-1.687.084-.16.194-.313.244-.474.227-.67.294-1.374.294-2.06.017-1.382-.227-2.772-.32-3.535-.142-1.246-.612-2.314-1.402-3.043a3.637 3.637 0 0 0-.924-.585 13.186 13.186 0 0 0 1.378-1.187zM14.85 46.835c.327.763.899 1.924 2.369 3.849 2.066 2.712 5.476 3.662 7.08 3.967.093 1.009.21 1.975.471 2.848.134.466.328.916.588 1.33H3.999l-1.781-4.475c.058-.042.075-.06.142-.102.336-.237.857-.576 1.487-.957a181.19 181.19 0 0 1 4.637-2.79c2.957-1.729 5.3-3.06 6.367-3.67zm29.701 1.899c.513-.102.84.009 1.151.297.311.28.613.822.714 1.678.101.882.311 2.162.303 3.272 0 .551-.068 1.051-.168 1.365-.11.322-.219.424-.336.483-.857.44-2.428.348-3.763.017a15.32 15.32 0 0 1-1.563-.492c.126-.339.21-.703.21-1.085 0-.966-.445-1.822-1.125-2.415.722-.577 1.512-1.213 2.335-1.798.52-.364 1.016-.703 1.428-.94.42-.238.78-.373.814-.382zm-25.745.432a15.54 15.54 0 0 0 5.225 1.467c-.025.356-.025.729.017 1.127.025.187.033.365.05.56-1.487-.399-3.864-1.23-5.183-2.959-.092-.118-.025-.076-.109-.195zm9.467.204c.957.068 2.158.407 3.124.89l3.99 2.102a3.169 3.169 0 0 0-.655 1.907c0 .577.168 1.11.437 1.586-1.411.813-4.141 2.229-6.392 2.399-.74.05-1.092-.085-1.336-.272-.235-.186-.445-.517-.613-1.102-.344-1.17-.386-3.162-.638-5.374-.11-.882.05-1.34.235-1.602.193-.263.479-.432.974-.509.252-.042.546-.05.874-.025zm10.777.474c-.336.263-.756.568-1.025.78.1-.076-.277.085-.655.077-.311 0-.48-.026-.563-.043l-1.143-.602c.647.043 1.31.043 2-.008.495-.034.924-.127 1.386-.204zm-1.134 3.391c.58 0 1.033.45 1.033 1.034a1.02 1.02 0 0 1-1.033 1.035 1.02 1.02 0 0 1-1.034-1.035 1.02 1.02 0 0 1 1.034-1.034zm1.789 3.942c.336.153.957.44 2.125.737v.916h-3.713l-.705-1.407c.168.025.336.05.504.05.067 0 .126-.016.193-.016.344.11.672.186.932.11.403-.127.429-.22.664-.39zm6.946.805v.034s.513.22.538.441l.042.373h-3.25v-.543c.881.068 1.797.009 2.67-.305zm-11.247.255l.302.593h-1.444a29.64 29.64 0 0 0 1.142-.593z"/>
</svg>
