<svg xmlns="http://www.w3.org/2000/svg" viewBox="0 0 42 42">
    <style>
        .color{fill:#000}
    </style>
    <path class="color" d="M1.953 0C1.441 0 .922.188.555.555.187.922 0 1.44 0 1.953v38.094c0 .508.188 1.031.555 1.398.367.367.886.555 1.398.555h38.094c.508 0 1.031-.188 1.398-.555.367-.367.555-.886.555-1.398V1.953c0-.512-.188-1.031-.555-1.398C41.078.187 40.56 0 40.047 0H1.953zM2 2h38v38H2V2zm21.938 13.813c-2.114 0-3.192 1.347-3.192 2.968 0 .914.524 1.98 1.906 2.82.852.555 1.301.915 1.301 1.649 0 .66-.45 1.14-1.379 1.14-.57 0-1.258-.163-1.664-.39l-.285 1.695c.328.196 1.125.407 1.938.407 1.976 0 3.343-1.215 3.343-3.059 0-1.066-.496-2.086-1.832-2.898-1.094-.66-1.394-.973-1.394-1.575 0-.539.406-1.05 1.246-1.05.57 0 1.004.164 1.289.343l.316-1.691c-.3-.18-.933-.36-1.593-.36zm-6.387.09v6.972c0 1.305-.48 1.531-1.051 1.531-.254 0-.45-.015-.645-.074l-.168 1.648c.227.09.586.149.993.149 1.441 0 2.851-.434 2.851-3.344v-6.883h-1.98z"/>
</svg>
