<svg xmlns="http://www.w3.org/2000/svg" viewBox="0 0 46 45">
    <style>
        .color{fill:#000}
    </style>
    <path class="color" d="M22 0c-6.715 0-12 6.363-12 14 0 .414.055.797.086 1.195-2.602.242-4.867 1.285-6.414 3.082C1.934 20.29 1 23.027 1 26c0 2.219.754 4.227 1.883 5.953C1.207 33.32 0 35.234 0 37.5 0 41.672 3.633 45 8 45c.36.004.695-.184.879-.496a1.01 1.01 0 0 0 0-1.008c-.184-.312-.52-.5-.879-.496-3.363 0-6-2.492-6-5.5 0-1.883 1.023-3.543 2.625-4.547a.996.996 0 0 0 .258-1.457A8.931 8.931 0 0 1 3 26c0-2.55.805-4.813 2.188-6.418C6.566 17.977 8.508 17 11 17c-.047 0 0 .008.145.008a.996.996 0 0 0 .75-.34 1.01 1.01 0 0 0 .242-.793A13.716 13.716 0 0 1 12 14c0-6.723 4.563-12 10-12 5.438 0 10 5.277 10 12 0-.043-.004-.004-.004.105a1.004 1.004 0 0 0 1.125.993c.465-.059.926-.098 1.379-.098 5.836 0 9.5 4.379 9.5 10 0 2.523-.984 4.809-2.613 6.578a.992.992 0 0 0 .172 1.504C43.055 34.098 44 35.692 44 37.5c0 3.008-2.637 5.5-6 5.5a1.006 1.006 0 0 0-.879.496 1.01 1.01 0 0 0 0 1.008c.184.312.52.5.879.496 4.367 0 8-3.328 8-7.5 0-2.16-1.105-3.988-2.648-5.348C44.938 30.148 46 27.72 46 25c0-6.531-4.633-12-11.5-12-.23 0-.441.031-.664.047C33.398 5.863 28.418 0 22 0zm.012 9.488a1.001 1.001 0 0 0-.907.559l-1.316 2.66-2.934.426c-.378.055-.69.32-.808.68a1.01 1.01 0 0 0 .254 1.027l2.125 2.066-.504 2.922a1.003 1.003 0 0 0 1.453 1.059L22 19.504l2.625 1.383a1.003 1.003 0 1 0 1.453-1.059l-.504-2.922L27.7 14.84a1.01 1.01 0 0 0 .254-1.027 1.001 1.001 0 0 0-.808-.68l-2.934-.426-1.316-2.66a1.006 1.006 0 0 0-.883-.559zM22 12.75l.652 1.313a.99.99 0 0 0 .754.546l1.446.215-1.051 1.02a.994.994 0 0 0-.285.886l.246 1.442-1.297-.68a1.003 1.003 0 0 0-.93 0l-1.297.68.246-1.442a.994.994 0 0 0-.285-.886l-1.05-1.02 1.445-.215a.99.99 0 0 0 .754-.546L22 12.75zM27 24a1.006 1.006 0 0 0-.879.496 1.01 1.01 0 0 0 0 1.008c.184.312.52.5.879.496h3c.36.004.695-.184.879-.496a1.01 1.01 0 0 0 0-1.008c-.184-.312-.52-.5-.879-.496h-3zm2 2c-.55 0-1 .45-1 1s.45 1 1 1 1-.45 1-1-.45-1-1-1zm-13.977-1.004a1.001 1.001 0 0 0-.34 1.953l.727.242a1 1 0 1 0 1.543.516l.73.242a1.001 1.001 0 0 0 .633-1.898l-3-1a1.051 1.051 0 0 0-.293-.055zM22.5 28c-1.121 0-2.148.246-2.969.719C18.707 29.187 18 29.977 18 31c0 1.023.707 1.813 1.531 2.281.82.473 1.848.719 2.969.719 1.121 0 2.148-.246 2.969-.719C26.293 32.813 27 32.023 27 31c0-1.023-.707-1.813-1.531-2.281-.82-.473-1.848-.719-2.969-.719zm0 2c.813 0 1.535.2 1.98.453.442.254.52.469.52.547 0 .078-.078.293-.52.547-.445.254-1.168.453-1.98.453-.813 0-1.535-.2-1.98-.453-.442-.254-.52-.469-.52-.547 0-.078.078-.293.52-.547.445-.254 1.168-.453 1.98-.453z"/>
</svg>
