<svg xmlns="http://www.w3.org/2000/svg" viewBox="0 0 73 73">
    <style>
        .color{fill:#000}
    </style>
    <path class="color" d="M55.971.307c-.428.011-.873.04-1.307.09-1.73.197-3.516.67-5.228 1.307-3.426 1.274-6.58 3.2-8.61 5.229-2.19 2.191-3.267 4.867-3.244 7.617.017 2.377.907 4.778 2.208 7.076l-3.29 3.336a1.448 1.448 0 0 0-.501 1.447 1.45 1.45 0 0 0 1.081 1.082 1.449 1.449 0 0 0 1.448-.501l4.057-4.057a1.44 1.44 0 0 0 .18-1.803c-1.476-2.281-2.282-4.535-2.299-6.58-.017-2.045.688-3.888 2.39-5.59 1.577-1.577 4.551-3.408 7.616-4.551 1.927-.716 3.764-.986 5.454-1.037l-5.454 5.409a.673.673 0 0 0-.045.09c-1.481 1.69-1.55 4.265.045 5.86l7.663 7.661.045.046c1.69 1.481 4.265 1.549 5.86-.046l5.453-5.453c-.045 1.718-.316 3.572-1.037 5.498-1.138 3.049-2.969 5.99-4.552 7.573-1.702 1.701-3.51 2.326-5.544 2.298-2.034-.028-4.338-.828-6.716-2.253a1.442 1.442 0 0 0-1.758.225l-2.298 2.299a1.45 1.45 0 0 0 2.028 2.073l1.623-1.623c2.343 1.257 4.698 2.13 7.076 2.164 2.727.04 5.425-.964 7.617-3.155 2.023-2.023 3.955-5.155 5.228-8.564 1.274-3.408 1.944-7.104.902-10.231a1.444 1.444 0 0 0-1.042-.935 1.45 1.45 0 0 0-1.347.394l-7.662 7.617c-.406.406-1.24.462-1.848 0-.028-.022-.062-.022-.09-.045L52.5 12.702c-.429-.428-.451-1.324.09-1.938l7.572-7.572a1.45 1.45 0 0 0 .394-1.347 1.444 1.444 0 0 0-.935-1.042C58.467.409 57.25.268 55.972.307zM5.265.442a1.45 1.45 0 0 0-.811.406L.848 4.454a1.442 1.442 0 0 0-.225 1.758l6.084 10.546c.305.496.868.761 1.443.676l3.155-.495L30.866 36.5l-.721.721a4.077 4.077 0 0 0 0 5.77l.991 1.036c1.15 1.15 2.733 1.144 4.147.676l2.434 2.389c-.163 1.944.406 3.876 1.803 5.273L57.098 69.99a9.113 9.113 0 0 0 12.89 0v-.045c3.42-3.595 3.466-9.381 0-12.846L52.366 39.52c-1.453-1.454-3.386-1.904-5.273-1.803l-2.389-2.434c.468-1.414.473-2.997-.676-4.147l-1.037-.991a4.089 4.089 0 0 0-2.884-1.217c-1.048 0-2.09.422-2.885 1.217l-.721.721L16.94 11.305l.495-3.155a1.441 1.441 0 0 0-.676-1.443L6.212.623A1.411 1.411 0 0 0 5.4.443h-.135zm.496 3.246L14.46 8.69l-.451 2.93c-.062.444.09.895.406 1.216l20.057 20.057-1.578 1.578-20.057-20.057a1.455 1.455 0 0 0-1.217-.406l-2.93.45L3.688 5.76 5.76 3.687zm34.345 28.17c.32 0 .642.101.856.315l.992 1.037c.473.473.467 1.177.09 1.622a1.443 1.443 0 0 0 .09 1.984l3.29 3.29c.333.332.8.484 1.262.405 1.336-.22 2.733.119 3.651 1.037l17.578 17.623c2.299 2.299 2.321 6.277 0 8.744-2.496 2.496-6.248 2.496-8.744 0L41.548 50.337c-.958-.958-1.335-2.315-1.037-3.515a1.436 1.436 0 0 0-.405-1.398l-3.29-3.29a1.443 1.443 0 0 0-1.984-.09 1.196 1.196 0 0 1-1.622-.09l-1.037-.992c-.428-.428-.428-1.284 0-1.713l7.076-7.076c.214-.214.536-.315.857-.315zm-14.153 4.326a1.45 1.45 0 0 0-.856.451l-6.851 6.851c-.98-.191-1.944-.36-2.93-.36-8.13 0-14.738 6.608-14.738 14.738 0 8.13 6.608 14.694 14.738 14.694 8.13 0 14.694-6.564 14.694-14.694 0-1.053-.237-2.096-.496-3.11l4.958-4.958a1.45 1.45 0 0 0-2.028-2.073l-5.454 5.499a1.45 1.45 0 0 0-.36 1.532c.36.958.495 1.921.495 3.11 0 6.58-5.228 11.81-11.809 11.81-6.58 0-11.854-5.23-11.854-11.81S8.736 46.01 15.316 46.01c1.031 0 2.068.147 3.11.406a1.452 1.452 0 0 0 1.352-.406l7.347-7.347a1.445 1.445 0 0 0-1.037-2.479h-.135zm20.238 7.933l-2.074 2.074 17.308 17.307 2.073-2.073-17.307-17.308zm-29.342 5.364a1.45 1.45 0 0 0-.226.045l-6.76 1.893a1.44 1.44 0 0 0-.992.991l-1.893 6.761a1.438 1.438 0 0 0 .36 1.443l5.048 5.048c.367.36.902.501 1.398.36l6.94-1.893c.508-.13.908-.53 1.037-1.036l1.713-6.761a1.44 1.44 0 0 0-.36-1.398l-5.048-5.048a1.455 1.455 0 0 0-1.217-.405zm-.27 3.065l3.875 3.876-1.307 5.183-5.273 1.397-3.876-3.876 1.397-5.183 5.183-1.397z"/>
</svg>
