<svg xmlns="http://www.w3.org/2000/svg" viewBox="0 0 52 62">
    <style>
        .color{fill:#000}
    </style>
    <path class="color" d="M24.727 0c-4.73 0-8.47 1.883-10.961 4.676C11.273 7.473 10 11.14 10 14.75c0 3.246.715 6.957.93 8.008A2.737 2.737 0 0 0 10 24.8c0 .648.195 1.203.355 1.746.079.273.157.527.207.719.051.191.063.379.063.234 0 1.36 1.14 2.422 2.484 2.469A12.946 12.946 0 0 0 18 39.519v3.731c-1.441.438-4.902 1.555-8.426 3.219-2.3 1.086-4.613 2.394-6.414 3.945C1.36 51.964 0 53.82 0 56v6h52v-6c0-2.18-1.36-4.035-3.16-5.586-1.8-1.55-4.113-2.86-6.414-3.945-3.524-1.664-6.985-2.782-8.426-3.219v-3.727a12.948 12.948 0 0 0 4.89-9.554c1.344-.047 2.485-1.11 2.485-2.469 0 .145.012-.043.063-.234.05-.192.128-.446.207-.72.16-.542.355-1.097.355-1.745 0-.82-.371-1.543-.941-2.055.183-1.055.941-5.57.941-8.746 0-3.594-1.344-6.168-3.156-7.766-1.63-1.43-3.543-2.004-5.239-2.125-.273-.433-.757-1.113-1.761-1.898C30.402 1.09 28.09 0 24.727 0zm0 2c2.937 0 4.761.91 5.882 1.79 1.125.878 1.496 1.651 1.496 1.651L32.38 6H33c1.332 0 3.125.508 4.52 1.738C38.918 8.968 40 10.891 40 14c0 2.79-.664 6.86-.86 8h-.015c-.086 0-.07.02-.125.027V19c0-3.422-1.398-5.723-2.805-7.086-1.406-1.363-2.879-1.863-2.879-1.863l-.57-.192-.437.418s-.63.618-2.149 1.313C28.64 12.285 26.29 13 23 13c-1.8 0-4.172.637-6.23 2.074-2.051 1.434-3.758 3.778-3.766 6.957-.055-.008-.043-.031-.129-.031-.016 0-.035.004-.05.004-.278-1.461-.825-4.692-.825-7.254 0-3.137 1.121-6.348 3.258-8.738C17.395 3.617 20.52 2 24.727 2zM33 12.156c.242.094.875.293 1.805 1.192C35.898 14.41 37 16.105 37 19v6.305l1.504-.883c.258-.149.496-.281.664-.367.02-.012.027-.012.047-.024.457.047.785.367.785.766v.004c0 .074-.121.66-.273 1.183-.079.258-.157.52-.223.758-.063.238-.129.406-.129.758 0 .266-.219.5-.563.5H37v1.367c0 5.422-3.91 9.903-9.059 10.82l-.285.047-.215.2c-.39.355-.882.566-1.441.566s-1.05-.21-1.441-.566l-.215-.2-.285-.047C18.91 39.27 15 34.79 15 29.367V28h-1.813c-.343 0-.562-.234-.562-.5 0-.352-.066-.52-.133-.758-.066-.238-.144-.5-.222-.758-.153-.523-.27-1.109-.27-1.183 0-.403.328-.723.785-.77.02.012.027.012.047.024.168.086.406.218.664.367l1.504.883V22.05c0-2.492 1.242-4.168 2.914-5.336C19.586 15.547 21.711 15 23 15c3.582 0 6.23-.785 7.992-1.59 1.309-.598 1.653-.965 2.008-1.254zM20.5 24a1.5 1.5 0 1 0 0 3 1.5 1.5 0 0 0 0-3zm11 0a1.5 1.5 0 1 0 0 3 1.5 1.5 0 0 0 0-3zM20 40.824c1.066.559 2.219.989 3.441 1.235.707.562 1.582.941 2.559.941.973 0 1.844-.379 2.547-.938A12.72 12.72 0 0 0 32 40.828V45c0 .36-.281 1.016-.863 1.723-.586.71-1.414 1.453-2.254 2.117-1.457 1.144-2.567 1.773-2.93 1.988-.363-.164-1.445-.625-2.871-1.64C21.434 48.008 20 46.417 20 45v-4.176zm-1.969 4.52c.18 2.406 2.117 4.207 3.887 5.468a22.026 22.026 0 0 0 3.687 2.11l.457.191.434-.242s1.8-1.031 3.621-2.46c.91-.712 1.832-1.532 2.559-2.415.656-.797 1.195-1.66 1.3-2.652 1.602.504 4.56 1.5 7.598 2.937 2.2 1.04 4.387 2.293 5.961 3.649C49.11 53.285 50 54.68 50 56v4H2v-4c0-1.32.89-2.715 2.465-4.07 1.574-1.356 3.762-2.61 5.96-3.649 3.048-1.437 6.009-2.433 7.606-2.937z"/>
</svg>
