<svg xmlns="http://www.w3.org/2000/svg" viewBox="0 0 42 42">
    <style>
        .color{fill:#000}
    </style>
    <path class="color" d="M28.012.063c-5.137 0-12.203 3.546-18.336 9.675C2.273 17.145-1.355 25.914.473 30.996c0-.004-.004-.004-.004-.004s.797 3.297 4.273 6.774C6.566 39.59 10.293 42 15.387 42c4.8 0 10.82-2.14 17.613-8.938C47.125 18.938 41.23 8.32 37.707 4.797 34.016 1.105 30.73.46 30.703.46a8.8 8.8 0 0 0-2.691-.399zm0 2c1.629 0 2.883.43 3.722 1.265 1.145 1.149 1.504 3.184 1.055 5.719A9.598 9.598 0 0 0 31.891 9c-4.743 0-10.934 3.004-15.407 7.477-5.086 5.085-7.902 11.75-7.425 16.382a11.49 11.49 0 0 1-2.07.203c-1.634 0-2.884-.421-3.723-1.261-3.032-3.031-.563-12.258 7.824-20.645 5.523-5.523 12.164-9.094 16.922-9.094zm5.629.421l.09.125-.09-.125zm-9.305 1.54c-.043 0-.086.003-.129.007a2.522 2.522 0 0 0-1.766 1.219c-.23.29-.382.59-.558.973-.207.453-.414.976-.602 1.48-.375 1-.676 1.922-.676 1.922a1.054 1.054 0 0 1-.023.078.99.99 0 0 1-.977.797.987.987 0 0 1-.949-1.297 1.27 1.27 0 0 0 .012-.055c.121-.316.395-.554.734-.625a.755.755 0 0 0 .586-.886.757.757 0 0 0-.886-.586 2.528 2.528 0 0 0-1.868 1.668c-.484.742-.793 1.816-1.093 2.855-.317 1.102-.547 2.07-.547 2.07 0 .012-.004.024-.004.04a.996.996 0 0 1-.985.816c-.562 0-1-.438-1-1 0-.488.344-.883.797-.977a.751.751 0 1 0-.3-1.473 2.507 2.507 0 0 0-1.684 1.255c-.004 0-.004 0-.004.004-.008.011-.02.027-.027.039-1.438 2.39-1.301 5.246-1.465 6.402a.985.985 0 0 1-.985.836c-.558 0-1-.441-1-1 0-.367.192-.684.485-.856a.757.757 0 0 0 .375-.664.75.75 0 0 0-1.156-.617 2.505 2.505 0 0 0-1.13 1.582.579.579 0 0 0-.042.176c-.422 3.055.176 5.516.035 6.504a.985.985 0 0 1-.984.836c-.56 0-1-.442-1-1a.98.98 0 0 1 .3-.715.752.752 0 0 0-1.054-1.07 2.495 2.495 0 0 0-.746 1.785c0 1.371 1.128 2.5 2.5 2.5 1.238 0 2.3-.914 2.472-2.125.16-1.145-.078-2.496-.137-4.094.329.16.692.258 1.082.258 1.239 0 2.301-.91 2.47-2.125.136-.973.155-2.332.452-3.68a2.496 2.496 0 0 0 1.746.719 2.503 2.503 0 0 0 2.457-2.047l-.003.035s.218-.941.523-2c.07-.246.16-.484.246-.738a2.47 2.47 0 0 0 1.777.75 2.505 2.505 0 0 0 2.446-1.988l-.02.078s.293-.895.657-1.86c.011-.035.027-.066.039-.101.46.527 1.128.871 1.878.871a2.51 2.51 0 0 0 2.47-2.094.757.757 0 0 0-.626-.863.75.75 0 0 0-.86.621.993.993 0 0 1-.984.836c-.562 0-1-.438-1-1a.99.99 0 0 1 .84-.984.756.756 0 0 0 .657-.801.75.75 0 0 0-.766-.692zm10.406.812c.5.398 1.016.84 1.551 1.375 1.73 1.73 9.64 11.094-4.707 25.441-5.54 5.54-10.988 8.348-16.2 8.348-5.175 0-8.374-2.793-9.23-3.652a16.837 16.837 0 0 1-1.363-1.535c.68.167 1.414.25 2.195.25 5.133 0 12.203-3.543 18.336-9.672 7.074-7.075 10.7-15.395 9.418-20.555zM31.891 11c.14 0 .27.016.402.023-1.188 3.864-3.95 8.52-8.383 12.95-4.086 4.086-8.781 7.097-12.875 8.39-.246-3.812 2.156-9.765 6.863-14.472C22.395 13.395 28.07 11 31.891 11zm1.472 7a.77.77 0 0 0-.523.207 2.505 2.505 0 0 0-.633.95.724.724 0 0 0-.07.171c-.008.031-.008.063-.016.09a3.08 3.08 0 0 0-.059.34c-.171.996-.066 2.137.047 3.222.063.622.13 1.215.168 1.7.035.484.016.886-.007.976-.067.274-.184.489-.348.633-.16.145-.379.254-.817.254-.246 0-.343-.059-.445-.164a1.04 1.04 0 0 1-.242-.531c-.09-.48.094-1.13.285-1.348l.059-.063a.754.754 0 0 0-.102-1.058.746.746 0 0 0-1.055.101c-1.406 1.137-1.746 3.008-1.335 4.754.187.809.187 1.286.039 1.79l-.036.05c-.203.336-.386.465-.773.465-.559 0-1-.441-1-1a1 1 0 0 1 .324-.738.745.745 0 0 0 .203-.82.747.747 0 0 0-1.218-.282 2.521 2.521 0 0 0-.633.942c-.012.027-.024.05-.031.078-.399 1.015-.56 2.593-.665 4.054-.03.395-.472.766-.98.766-.559 0-1-.441-1-1a1 1 0 0 1 .324-.738.752.752 0 0 0 .047-1.059.753.753 0 0 0-1.062-.043c-.11.098-.207.215-.297.332a.944.944 0 0 0-.117.11c-.665.742-1.454 2.039-1.907 4.558-.086.48-.488.84-.988.84a.986.986 0 0 1-.89-.559c-.012-.02-.02-.039-.032-.058a1 1 0 0 1 .246-1.121.752.752 0 0 0 .047-1.059.753.753 0 0 0-1.062-.043 2.491 2.491 0 0 0-.618 2.797c0 .57-.168.785-.312.914-.152.137-.254.153-.254.153a.747.747 0 1 0-.434 1.227c.176.206.446.3.711.245 0 0 .528-.101.985-.508.199-.183.379-.441.523-.75.332.164.7.262 1.09.262 1.23 0 2.254-.906 2.465-2.074.148-.832.332-1.438.52-1.965a2.504 2.504 0 0 0 2.015 1.04c1.227 0 2.379-.872 2.473-2.153.035-.422.093-.844.144-1.274.305.207.656.336 1.028.39a.75.75 0 1 0 1.195.887c.258-.253.617-.66.91-1.234.598-1.168.832-2.261.48-3.765a5.252 5.252 0 0 1-.074-.407c.364.336.88.559 1.45.559.73 0 1.367-.234 1.812-.629.445-.394.691-.906.812-1.402.11-.457.079-.903.04-1.438-.036-.539-.106-1.14-.168-1.746-.016-.164-.016-.312-.032-.473.297.125.621.192.961.192a2.57 2.57 0 0 0 1.676-.606 2.283 2.283 0 0 0 .809-1.738 2.99 2.99 0 0 0-.243-1.125.751.751 0 0 0-1.39.563c.11.27.133.382.133.562a.703.703 0 0 1-.278.594c-.18.152-.449.25-.707.25a.99.99 0 0 1-1-.988l.012-.059a.978.978 0 0 1 .312-.688.751.751 0 0 0-.492-1.312zM1.391 32.688l.046.054c-.015-.02-.03-.035-.046-.054zm.46.527c.02.02.044.039.067.058-.02-.02-.047-.039-.066-.058zm.57.488c.063.05.134.094.2.14-.066-.046-.133-.09-.2-.14zm.68.445c.051.028.102.059.157.086-.055-.027-.106-.058-.156-.086z"/>
</svg>
