<svg xmlns="http://www.w3.org/2000/svg" viewBox="0 0 47 40">
  <style>.color{fill:#000}</style>
    <path class="color" d="M3.686 0C2.17 0 .922 1.26.922 2.79v34.332a.934.934 0 0 0 .058.64C1.238 39.03 2.362 40 3.686 40h35.941c1.375 0 2.506-1.047 2.708-2.384.006-.058.025-.116.028-.174v-.059l.03-.145v-.029l4.578-24.942.029-.087v-.087c0-1.53-1.249-2.79-2.765-2.79V6.511c0-1.53-1.248-2.791-2.764-2.791H17.538c.004.004-.007 0-.028 0a1.887 1.887 0 0 1-.26-.261c-.226-.262-.49-.698-.777-1.163-.288-.465-.597-.96-.98-1.396C15.113.465 14.58 0 13.823 0H3.687zm0 1.86h10.138c-.059 0 .06 0 .288.262.227.261.488.698.777 1.163.288.465.604.959.98 1.395.374.436.884.901 1.64.901h23.962c.518 0 .921.408.921.93v2.791H8.294c-1.45 0-2.606 1.178-2.707 2.617h-.028l-.03.174-2.764 15.059V2.79c0-.524.403-.93.921-.93zm4.608 9.303h35.941c.52 0 .922.407.922.93l-4.521 24.68-.03.059c-.011.038-.02.077-.027.116a1.069 1.069 0 0 0-.03.116v.088c-.015.046-.021.094-.029.145-.003.029.004.057 0 .086a.627.627 0 0 0 0 .117.919.919 0 0 1-.893.64H3.687a.914.914 0 0 1-.922-.93l4.579-24.943.029-.087v-.087c0-.524.403-.93.921-.93z" fill="#000" fill-rule="nonzero"/>
</svg>
