<svg xmlns="http://www.w3.org/2000/svg" viewBox="0 0 50 49">
    <style>
        .color{fill:#000}
    </style>
    <path class="color" d="M25.111 0a1 1 0 0 0-.59.164c-3.43 2.255-4.917 4.692-5.33 6.856a1 1 0 0 0-.076-.014s-.603-.069-1.558-.002c-.955.067-2.263.27-3.668.814-2.811 1.089-6.086 3.61-7.838 8.866-.454 1.36-1.111 2.277-1.799 2.671-.688.395-1.486.45-2.783-.238A1 1 0 0 0 0 20s-.012 4.118 1.295 8.299c.653 2.09 1.635 4.223 3.193 5.885C6.046 35.845 8.233 37 11 37h1.504c.528 1.749 1.717 3.149 2.15 3.781.679.99 1.277 2.98 2.434 4.785C18.245 47.372 20.203 49 23.32 49h3.36c3.11 0 5.07-1.59 6.23-3.383 1.16-1.794 1.748-3.782 2.447-4.853.397-.608 1.6-2.01 2.135-3.764H39c2.767 0 4.954-1.155 6.512-2.816 1.558-1.662 2.54-3.795 3.193-5.885C50.012 24.118 50 20 50 20a1 1 0 0 0-1.469-.883c-1.297.689-2.095.633-2.783.238-.688-.394-1.345-1.31-1.799-2.671-1.752-5.256-5.027-7.777-7.838-8.866a12.696 12.696 0 0 0-3.668-.814c-.955-.067-1.558.002-1.558.002a1 1 0 0 0-.42.15c-.373-.69-.944-1.36-1.756-1.96-1.911-1.414-2.502-2.494-2.678-3.1a1.434 1.434 0 0 1-.064-.602c.014-.106-.004-.04-.004-.04A1 1 0 0 0 25.11 0zm-.853 2.928c.39 1.098 1.27 2.404 3.262 3.877.877.648 1.24 1.245 1.392 1.777.153.533.098 1.05-.07 1.555-.337 1.01-1.115 1.802-1.115 1.802a1 1 0 0 0-.141.166c-1.151.5-2.08.895-2.586.895-.466 0-1.315-.35-2.34-.791-.185-.197-1.254-1.394-1.547-3.125-.277-1.64.207-3.76 3.145-6.156zm-5.71 6.045c.217.006.337.021.337.021a1 1 0 0 0 .219.002c.014.14.014.285.037.42.11.654.303 1.251.529 1.777A8.137 8.137 0 0 0 18 11c-2.482 0-4.54 1.209-5.904 2.918C10.73 15.628 10 17.828 10 20c0 5.273 1.112 7.458 2.344 9.955.383.777.39 1.499.277 2.38-.101.79-.317 1.676-.363 2.665H11c-2.233 0-3.796-.845-5.05-2.184-1.255-1.338-2.148-3.205-2.745-5.115a25.289 25.289 0 0 1-1.12-6.369c1.15.263 2.258.277 3.163-.242 1.312-.753 2.155-2.134 2.701-3.774 1.581-4.742 4.307-6.72 6.662-7.632C16.378 9 17.9 8.953 18.55 8.973zm12.903 0c.65-.02 2.171.027 3.938.71 2.355.913 5.08 2.89 6.662 7.633.546 1.64 1.389 3.02 2.701 3.774.905.52 2.014.505 3.162.242a25.289 25.289 0 0 1-1.12 6.37c-.596 1.909-1.489 3.776-2.743 5.114C42.796 34.155 41.233 35 39 35h-1.258c-.046-.995-.262-1.883-.363-2.67-.113-.88-.106-1.595.277-2.373C38.888 27.459 40 25.273 40 20c0-2.172-.731-4.373-2.096-6.082C36.54 12.208 34.482 11 32 11a8.02 8.02 0 0 0-1.404.133c.049-.12.1-.237.142-.363.175-.524.274-1.13.244-1.77a1 1 0 0 0 .133-.006s.12-.015.336-.021zM18 13c1.278 0 2.436.43 3.559.918C22.68 14.405 23.735 15 25 15c1.265 0 2.319-.595 3.441-1.082C29.564 13.431 30.722 13 32 13c1.848 0 3.289.847 4.342 2.166C37.395 16.485 38 18.286 38 20c0 5.013-.889 6.542-2.137 9.072-.61 1.236-.602 2.465-.467 3.514.135 1.049.364 1.963.364 2.766 0 1.386-1.379 3.245-2.078 4.318-.981 1.503-1.511 3.407-2.452 4.861C30.29 45.986 29.17 47 26.68 47h-3.36c-2.482 0-3.605-1.039-4.549-2.512-.943-1.472-1.465-3.375-2.466-4.838-.697-1.016-2.065-2.904-2.065-4.298 0-.793.229-1.709.364-2.76.134-1.051.143-2.284-.467-3.522C12.889 26.541 12 25.013 12 20c0-1.715.605-3.515 1.658-4.834C14.711 13.847 16.152 13 18 13zm2 14v3c0 .502-.024 1.024-.043 1.543-1.27-.144-2.44-.252-2.44-.252l-.47-.037-.065.467c-.111.8.23 1.57.805 2.14.477.472 1.123.816 1.86.996l-.002.008c-.275.971-.637 1.598-.956 2.15C18.32 37.658 18 38.214 18 39c0 1.33 1.017 2.125 2 2.125.875 0 1.195.523 1.238.588.93 1.42 1.683 3.287 3.76 3.287s2.83-1.866 3.76-3.287c.04-.063.367-.588 1.242-.588.983 0 2-.805 2-2.15 0-.818-.323-1.392-.697-2.057-.3-.534-.642-1.143-.948-2.06.736-.181 1.381-.525 1.858-.997.575-.569.915-1.34.805-2.14l-.065-.465-.469.035s-1.177.105-2.455.248c-.015-.517-.037-1.036-.035-1.537C30 28.376 30 27 30 27h-1s0 1.374-.006 2.998c-.002.538.02 1.1.037 1.654-.07.01-.135.014-.205.024-1.686.234-2.47.472-2.47.472l-.409.123.059.424c.111.801.649 1.45 1.357 1.84.572.316 1.264.471 1.998.455.014.05.025.124.04.166.336 1.021.722 1.702 1.03 2.25.344.61.571 1.014.571 1.569 0 .72-.508 1.148-1 1.148-.591 0-1.232.098-1.781.637-.41.402-.872.739-1.42.908-.588.183-1.221.332-1.801.332-.58 0-1.212-.15-1.799-.33-.548-.17-1.013-.506-1.422-.908-.548-.54-1.188-.635-1.779-.635-.485 0-1-.395-1-1.125 0-.521.222-.904.557-1.486.33-.574.74-1.288 1.048-2.377.011-.038.02-.105.03-.149.736.017 1.43-.139 2.004-.455.708-.39 1.246-1.039 1.357-1.84l.059-.424-.412-.123s-.774-.228-2.46-.462c-.078-.011-.15-.017-.23-.028.021-.556.047-1.118.047-1.658v-3h-1zm11.824 5.367c-.075.267-.07.542-.314.783-.402.398-1.023.713-1.754.815-.731.101-1.416-.034-1.91-.307-.306-.169-.381-.44-.526-.681a11.62 11.62 0 0 1 1.227-.24.987.987 0 0 0 .953.763 1 1 0 0 0 1-1c0-.004-.006-.007-.006-.012.554-.055 1.02-.095 1.33-.12zm-13.648.002c.31.027.775.067 1.328.123 0 .003-.004.005-.004.008a1 1 0 0 0 1 1c.466 0 .84-.326.951-.758.695.108.985.176 1.229.237-.145.241-.22.512-.526.681-.495.273-1.179.408-1.91.307-.731-.102-1.352-.419-1.754-.817-.243-.24-.239-.515-.314-.78zM21 37v.5c0 .83.67 1.5 1.5 1.5.25 0 .48-.07.68-.17.32.69 1.01 1.17 1.82 1.17s1.5-.48 1.82-1.17c.2.1.43.17.68.17.83 0 1.5-.67 1.5-1.5V37h-8z"/>
</svg>
