<svg viewBox="0 0 40 40" xmlns="http://www.w3.org/2000/svg">
  <style>.color{fill:#000}</style>
    <g fill-rule="evenodd">
        <path d="M19.708 18.776C8.825 18.776.32 28.852.32 28.852a.815.815 0 0 0 0 1.071S8.825 40 19.708 40s19.388-10.077 19.388-10.077a.815.815 0 0 0 0-1.071S30.59 18.776 19.708 18.776zm0 1.632c2.146 0 4.197.443 6.097 1.123a8.13 8.13 0 0 1 2.066 5.408 8.15 8.15 0 0 1-8.163 8.163 8.15 8.15 0 0 1-8.163-8.163 8.11 8.11 0 0 1 2.04-5.408c1.908-.683 3.97-1.123 6.123-1.123zm-8.826 2.322a9.714 9.714 0 0 0-.97 4.209c0 5.402 4.394 9.796 9.796 9.796s9.796-4.394 9.796-9.796a9.856 9.856 0 0 0-.944-4.21c4.611 2.344 7.927 5.744 8.776 6.659-1.327 1.435-8.67 8.98-17.628 8.98-8.957 0-16.3-7.545-17.627-8.98.848-.919 4.18-4.315 8.8-6.658zm8.826.127a4.081 4.081 0 1 0 0 8.163 4.081 4.081 0 0 0 0-8.163z" fill-rule="nonzero"/>
        <path d="M8.65.694a20.23 20.23 0 0 1 4.286-.48c2.136 0 3.731.451 4.786 1.352 1.054.902 1.581 2.305 1.581 4.21 0 1.809-.517 3.185-1.55 4.127-1.035.942-2.531 1.413-4.49 1.413a14.6 14.6 0 0 1-.695-.02l-.377-.01v4.224H8.65zm4.653 7.765c.878 0 1.524-.206 1.939-.617.415-.412.622-1.087.622-2.026 0-.959-.21-1.656-.632-2.092-.422-.435-1.075-.653-1.96-.653-.442 0-.802.031-1.081.092v5.235c.347.04.718.061 1.112.061zm15.49 7.051l-3.255-5.337-.694-.01a9.424 9.424 0 0 0-.51-.01v5.357h-3.49V.694a20.59 20.59 0 0 1 4.367-.48c2.089 0 3.652.414 4.69 1.24 1.037.827 1.555 2.073 1.555 3.74.007 1.034-.22 1.918-.678 2.653-.46.735-1.11 1.296-1.954 1.684l3.734 5.98h-3.765zm-4.46-8.173c.409.04.81.061 1.205.061.864 0 1.508-.172 1.934-.515.425-.344.637-.907.637-1.69 0-1.489-.806-2.234-2.418-2.234a7.55 7.55 0 0 0-1.357.112v4.266z"/>
    </g>
</svg>
