<svg xmlns="http://www.w3.org/2000/svg" viewBox="0 0 99 74">
  <style>.color{fill:#000}</style>
    <g fill="none" fill-rule="evenodd">
        <path d="M83.57 42.483c2.74-.446 5.181-1.157 7.155-2.045 1.722-.774 3.082-1.68 3.968-2.626.887-.945 1.313-1.87 1.313-2.812 0-.941-.426-1.867-1.313-2.813-.886-.945-2.246-1.851-3.968-2.625C87.279 28.012 82.408 27 77.005 27c-5.401 0-10.273 1.012-13.718 2.563-1.723.773-3.082 1.68-3.969 2.625-.886.945-1.312 1.87-1.312 2.812 0 .941.426 1.867 1.312 2.813.887.945 2.246 1.851 3.97 2.624 2.043.92 4.588 1.65 7.447 2.092l1.059-9.168h1.938v8.579a.51.51 0 0 0 .254.453.51.51 0 0 0 .52 0 .51.51 0 0 0 .255-.453v-8.58h1.88v8.58a.51.51 0 0 0 .255.453.51.51 0 0 0 .52 0 .51.51 0 0 0 .254-.453v-8.58h1.882v8.58a.51.51 0 0 0 .254.453.51.51 0 0 0 .52 0 .51.51 0 0 0 .254-.453v-8.58l1.937.002 1.053 9.12v.001zM70.504 44.53c-3.047-.456-5.792-1.228-8.06-2.249-1.817-.816-3.317-1.793-4.438-2.937v5.468a.753.753 0 0 1 0 .188c0 .941.426 1.867 1.312 2.813.887.945 2.246 1.851 3.97 2.624 2.921 1.316 6.869 2.243 11.296 2.495V49.55c.007.01-.038-.624-.062-.58a.516.516 0 0 0-.452-.27h-.423a3.242 3.242 0 0 1-3.25-3.241l.107-.929zm13.297-.045l.112.975a3.242 3.242 0 0 1-3.248 3.24h-.423a.516.516 0 0 0-.452.27c-.024-.044-.07.59-.062.582v3.362c4.305-.276 8.14-1.191 10.997-2.477 1.722-.773 3.082-1.68 3.968-2.624.887-.946 1.313-1.872 1.313-2.813v-5.656c-1.121 1.144-2.621 2.12-4.438 2.937-2.195.988-4.837 1.743-7.767 2.204zm-9.217 10.452c-4.682-.245-8.898-1.196-12.14-2.656-1.817-.816-3.317-1.793-4.438-2.937v5.468a.753.753 0 0 1 0 .188c0 .941.426 1.867 1.312 2.813.887.945 2.246 1.851 3.97 2.624 2.921 1.316 6.869 2.243 11.296 2.495v-7.995zm5.144-.017v7.994c4.305-.276 8.14-1.191 10.997-2.477 1.722-.773 3.082-1.68 3.968-2.624.887-.946 1.313-1.872 1.313-2.813v-5.656c-1.121 1.144-2.621 2.12-4.438 2.937-3.173 1.428-7.278 2.37-11.84 2.64v-.001zm-5.144 10.017c-4.682-.245-8.898-1.196-12.14-2.656-1.817-.816-3.317-1.793-4.438-2.937V64c0 .941.426 1.867 1.312 2.813.887.945 2.246 1.851 3.97 2.624C66.731 70.989 71.603 72 77.005 72c5.402 0 10.273-1.012 13.719-2.563 1.722-.773 3.082-1.68 3.968-2.624.887-.946 1.313-1.872 1.313-2.813v-4.656c-1.121 1.144-2.621 2.12-4.438 2.937-3.173 1.428-7.278 2.37-11.84 2.64v1.752c0 .66-.25 1.314-.754 1.819a2.564 2.564 0 0 1-3.637 0 2.556 2.556 0 0 1-.753-1.819v-1.736h.001zM77.006 25c5.644 0 10.77 1.012 14.562 2.719 1.895.851 3.457 1.883 4.594 3.093 1.137 1.211 1.844 2.645 1.844 4.188v29c0 1.543-.707 2.977-1.844 4.188-1.137 1.21-2.7 2.242-4.594 3.093C87.775 72.988 82.65 74 77.006 74c-5.645 0-10.77-1.012-14.563-2.719-1.894-.851-3.457-1.883-4.593-3.094-1.137-1.21-1.844-2.644-1.844-4.187v-9a.753.753 0 0 1 0-.188V45a.753.753 0 0 1 0-.188V35c0-1.543.707-2.977 1.844-4.188 1.136-1.21 2.699-2.242 4.593-3.093C66.236 26.012 71.361 25 77.006 25z" fill="#4A90E2" fill-rule="nonzero"/>
        <g transform="translate(1 28)">
            <rect stroke="#000" stroke-width="2" fill="#FFF" x=".828" width="40" height="23" rx="4"/>
            <circle fill="#000" cx="8.5" cy="4.5" r="1.5"/>
            <circle fill="#000" cx="8.5" cy="10.5" r="1.5"/>
            <circle fill="#000" cx="8.5" cy="16.5" r="1.5"/>
        </g>
        <path d="M70.906 24.58L60.124 13.234l13.39-4.087-2.608 15.433zm-45.938.252l-.251.968-1.936-.503.251-.968c.173-.667.353-1.32.541-1.96l.282-.959 1.919.564-.282.959c-.182.62-.356 1.252-.524 1.899zm1.764-5.623l-.352.936-1.872-.705.353-.936c.244-.649.497-1.28.76-1.896l.393-.92 1.84.787-.394.92a44.692 44.692 0 0 0-.728 1.814zm2.439-5.322l-.486.874-1.748-.973.486-.873a33.46 33.46 0 0 1 1.057-1.77l.54-.842 1.684 1.078-.54.842a31.46 31.46 0 0 0-.993 1.664zm3.312-4.777l-.656.755-1.51-1.313.657-.755c.463-.531.94-1.036 1.433-1.514l.717-.696 1.393 1.435-.717.696c-.452.439-.89.903-1.317 1.392zm4.273-3.779l-.834.552-1.103-1.668.834-.552a21.236 21.236 0 0 1 1.805-1.07l.885-.467.933 1.769-.884.467c-.56.295-1.105.618-1.636.97zm5.2-2.417l-.96.284-.568-1.917.959-.285a23.01 23.01 0 0 1 2.03-.501l.98-.196.392 1.96-.98.197c-.632.126-1.25.279-1.854.458zm5.73-.898l-1 .034-.067-2 1-.033a29.275 29.275 0 0 1 2.084.003l1 .038-.075 1.998-1-.037a27.238 27.238 0 0 0-1.942-.003zm5.753.453l-.98-.203.407-1.959.98.204c.694.144 1.372.319 2.03.524l.955.298-.595 1.91-.955-.299a19.44 19.44 0 0 0-1.842-.475zm5.323 1.987l-.867-.497.995-1.735.867.497c.611.35 1.202.735 1.77 1.153l.807.591-1.184 1.613-.806-.592a16.754 16.754 0 0 0-1.582-1.03zm4.43 3.655l-.659-.753 1.504-1.318.66.753c.453.517.887 1.064 1.302 1.64l.585.81-1.621 1.17-.585-.81a20.207 20.207 0 0 0-1.186-1.492z" fill="#BD3C39" fill-rule="nonzero"/>
    </g>
</svg>
