<svg xmlns="http://www.w3.org/2000/svg" viewBox="0 0 42 41">
    <style>
        .color{fill:#000}
    </style>
    <path class="color" d="M13.868.002a2.38 2.38 0 0 0-.712.137.835.835 0 0 0-.556.784c0 3.275-.499 6.083-.687 7.083l-7.554-1.45a.844.844 0 0 0-.694.175.833.833 0 0 0-.305.644c0 4.682 2.27 7.215 3.498 8.4-.54.117-.693.11-1.55.384-1.638.524-3.624 1.343-5.052 2.714a.832.832 0 0 0 .092 1.277c1.76 1.267 3.318 1.908 4.46 2.406.821.36 1.107.648 1.444.96A46.457 46.457 0 0 1 2.06 26.84a.833.833 0 0 0 .238 1.503l5.19 1.424c-.042.715-.217 2.516-1.513 5.006a.83.83 0 0 0 .029.817c.152.249.424.4.717.4 2.35 0 4.512-.63 5.07-.805C13.717 38.662 17.093 41 21 41c3.898 0 7.268-2.327 9.197-5.79.65.259 2.209.78 4.243.78a.84.84 0 0 0 .684-.35.83.83 0 0 0 .11-.756c-.642-1.85-.737-4.299-.76-5.114.455-.114 1.104-.263 2.243-.636.742-.243 1.495-.518 2.122-.827.313-.154.594-.314.844-.512.251-.197.52-.43.619-.89a.833.833 0 0 0-.368-.876 13.684 13.684 0 0 1-3.38-3.096c1.2-.563 3.902-2.007 5.382-5.559a.83.83 0 0 0-.078-.783.841.841 0 0 0-.698-.371c-3.209 0-5.418-.405-6.436-.613.391-1.2 1.722-5.137 3.739-7.72a.83.83 0 0 0 .123-.806.839.839 0 0 0-.627-.526c-3.712-.713-6.66.62-7.904 1.25-.213-1.162-.655-3.767-.655-6.882a.835.835 0 0 0-.556-.784c-.956-.341-1.893-.002-2.796.46-.903.461-1.81 1.122-2.641 1.798C22.082 3.476 21.405 4.208 21 4.625c-.405-.417-1.082-1.15-2.407-2.228-.831-.676-1.738-1.337-2.641-1.798C15.5.368 15.04.167 14.574.067a2.833 2.833 0 0 0-.706-.065zm.343 1.833c.272.028.49.002.973.25.725.37 1.568.97 2.346 1.604a33.632 33.632 0 0 1 2.856 2.645.843.843 0 0 0 1.228 0s1.3-1.379 2.856-2.645c.778-.634 1.621-1.234 2.346-1.605.483-.247.701-.22.973-.25.116 3.782.79 7.324.79 7.324a.836.836 0 0 0 .479.592c.246.11.53.095.764-.04 0 0 3.153-1.638 6.497-1.547-2.179 3.425-3.525 7.848-3.525 7.848a.83.83 0 0 0 .078.654.84.84 0 0 0 .531.395s2.809.556 6.32.72c-1.75 2.833-4.746 4.14-4.746 4.14a.83.83 0 0 0-.387 1.254s1.487 1.922 3.627 3.563c-.051.027-.068.046-.125.074-.497.245-1.2.507-1.9.737-1.4.458-2.789.792-2.789.792a.836.836 0 0 0-.643.812s.09 2.615.648 5.03c-1.306-.147-2.133-.4-2.48-.515.632-1.588.992-3.344.992-5.19v-7.514C31.92 14.121 27.096 8.44 21 8.44s-10.92 5.681-10.92 12.523v7.514c0 1.83.353 3.573.976 5.151a23.38 23.38 0 0 1-3.115.545c1.077-2.723 1.3-5.02 1.3-5.02a.836.836 0 0 0-.618-.806L4.445 27.2a34.98 34.98 0 0 0 3.7-3.096.831.831 0 0 0 .162-.982c-.578-1.109-1.655-1.584-2.824-2.094-.857-.374-1.956-.992-3.045-1.637a14.058 14.058 0 0 1 3.385-1.643 20.472 20.472 0 0 1 2.71-.675.832.832 0 1 0 .38-1.485s-3.194-2.64-3.69-7.166l7.218 1.386a.84.84 0 0 0 .981-.65s.673-3.542.79-7.323zm6.79 8.275c5.036 0 9.239 4.785 9.239 10.853v7.514c0 6.068-4.203 10.853-9.24 10.853s-9.24-4.785-9.24-10.853v-7.514c0-6.068 4.203-10.853 9.24-10.853zm-6.754 6.667a.835.835 0 1 0-.262 1.627s.587.205 1.652.415c-1.29.6-2.197 1.895-2.197 3.397 0 2.065 1.702 3.756 3.78 3.756S21 24.281 21 22.216c0-1.203-.587-2.268-1.48-2.957a32.765 32.765 0 0 0 2.96 0c-.893.69-1.48 1.754-1.48 2.957 0 2.065 1.702 3.756 3.78 3.756s3.78-1.691 3.78-3.756c0-1.502-.906-2.797-2.197-3.397 1.065-.21 1.652-.414 1.652-.414a.834.834 0 1 0-.59-1.562s-2.05.78-6.425.78-6.425-.78-6.425-.78a.845.845 0 0 0-.328-.066zm2.973 3.351c1.17 0 2.1.925 2.1 2.088 0 1.162-.93 2.087-2.1 2.087s-2.1-.925-2.1-2.087c0-1.163.93-2.088 2.1-2.088zm7.56 0c1.17 0 2.1.925 2.1 2.088 0 1.162-.93 2.087-2.1 2.087s-2.1-.925-2.1-2.087c0-1.163.93-2.088 2.1-2.088zm.42.835a.837.837 0 0 0-.84.835c0 .461.376.835.84.835.464 0 .84-.374.84-.835a.837.837 0 0 0-.84-.835zm-8.4.835a.837.837 0 0 0-.84.835c0 .461.376.835.84.835.464 0 .84-.374.84-.835a.837.837 0 0 0-.84-.835zm5.027 4.163a.837.837 0 0 0-.827.846v2.312c0 .092-.009.089-.016.142-.04-.008.018-.002-.051-.034-.437-.2-1.044-.722-1.044-.722a.844.844 0 0 0-1.396.427c-.066.294.033.6.258.8 0 0 .653.634 1.476 1.012.412.188.949.395 1.572.109a1.48 1.48 0 0 0 .704-.739c.134-.307.177-.63.177-.995v-2.312a.832.832 0 0 0-.246-.602.843.843 0 0 0-.607-.244zM21 31.816c-3.5 0-6.146.878-6.146.878a.832.832 0 1 0-.292 1.418.844.844 0 0 0 .824.167s.268-.077.653-.176c.038.17.088.354.175.552.195.443.707.858 1.346 1.1.03.214-.006.275.124.57.267.605 1.001 1.336 2.056 1.336 1.055 0 1.79-.731 2.056-1.336.12-.273.081-.32.115-.528.19-.046.225.004.45-.124.548-.311 1.092-1.033 1.148-2.027 1.871.231 3.105.633 3.105.633.285.094.6.03.824-.168a.832.832 0 0 0-.292-1.417S24.5 31.816 21 31.816zm0 1.67c.29 0 .564.013.838.025-.005.563-.154.622-.31.71-.158.09-.318.1-.318.1a.838.838 0 0 0-.84.835s-.012.27-.113.5c-.101.23-.102.335-.517.335-.415 0-.415-.104-.517-.334a1.609 1.609 0 0 1-.113-.501.838.838 0 0 0-.84-.835c-.415 0-.415-.104-.517-.334-.034-.078-.047-.153-.064-.228A20.704 20.704 0 0 1 21 33.486z"/>
</svg>
