<svg xmlns="http://www.w3.org/2000/svg" viewBox="0 0 27 37">
    <style>
        .color{fill:#000}
    </style>
    <path class="color" d="M13.5 0C6.9 0 1.588 5.8 1.588 12.87c0 .729.07 1.43.172 2.106v.002c.07.731.186 1.735.304 2.729-.048-.004-.095-.011-.145-.011-.416 0-.848.22-1.11.524-.261.305-.406.659-.516 1.062-.22.807-.293 1.855-.293 3.24 0 1.176.69 2.332 1.43 3.421a10.1 10.1 0 0 0 1.15 1.428c.192.194.382.363.589.502.207.138.427.28.802.28.058 0 .11-.018.167-.024.433 1.344.935 2.594 1.525 3.64l.014.023.015.024c.896 1.36 2.348 2.6 3.805 3.549C10.954 36.313 12.309 37 13.5 37c1.191 0 2.546-.687 4.003-1.635 1.457-.95 2.909-2.188 3.805-3.55l.015-.023.014-.023c.59-1.046 1.092-2.296 1.525-3.64.056.006.11.023.167.023.375 0 .595-.14.802-.28.207-.138.397-.307.59-.5.385-.388.779-.884 1.149-1.429.74-1.089 1.43-2.245 1.43-3.421 0-1.385-.073-2.433-.293-3.24-.11-.403-.255-.757-.517-1.062-.261-.304-.693-.524-1.109-.524-.05 0-.097.007-.145.01a127.9 127.9 0 0 0 .304-2.728v-.002a14.06 14.06 0 0 0 .172-2.106C25.412 5.8 20.1 0 13.5 0zm0 1.609c5.68 0 10.324 5.003 10.324 11.26 0 .627-.06 1.246-.154 1.864l-.003.023-.003.022c-.36 3.791-1.471 12.202-3.696 16.167-.697 1.047-2.01 2.21-3.324 3.065-1.322.861-2.747 1.381-3.144 1.381-.397 0-1.822-.52-3.144-1.38-1.313-.856-2.627-2.019-3.324-3.066C4.807 26.98 3.695 18.57 3.336 14.778l-.003-.022-.003-.023a12.36 12.36 0 0 1-.154-1.863C3.176 6.612 7.82 1.609 13.5 1.609zm-2.382 12.87c-2.416 0-4.485.087-5.944.904l.77 1.408c.873-.49 2.824-.704 5.174-.704v-1.609zm4.764 0v1.608c2.35 0 4.3.214 5.175.704l.769-1.408c-1.46-.817-3.528-.905-5.944-.905zm-6.33 3.217c-1.46 0-2.878.38-3.683.633a1.585 1.585 0 0 0-1.073 1.81c.113.558.356 1.33.952 2.001.596.671 1.572 1.186 2.862 1.186a4.26 4.26 0 0 0 2.508-.825v1.63c0 .67.306 1.246.729 1.674.422.428.991.738 1.653.738h.794v-1.608H13.5c-.132 0-.357-.092-.53-.267-.173-.176-.264-.404-.264-.538v-4.826h-.023a1.653 1.653 0 0 0-.492-.978c-.297-.27-.629-.397-.946-.48-.635-.164-1.273-.15-1.692-.15zm7.895 0c-.42 0-1.057-.014-1.692.15-.317.083-.649.21-.946.48-.297.27-.515.723-.515 1.18 0 2.15 1.889 3.82 4.096 3.82 1.29 0 2.266-.515 2.862-1.186.596-.672.84-1.443.952-2.001a1.585 1.585 0 0 0-1.073-1.81h-.002c-.805-.252-2.223-.633-3.682-.633zm-7.894 1.608c.42 0 .963.014 1.298.1a.79.79 0 0 1 .262.11c-.007 1.183-1.074 2.203-2.503 2.203-.909 0-1.356-.286-1.68-.652-.313-.351-.475-.827-.557-1.205a13.952 13.952 0 0 1 1.968-.449.806.806 0 0 0 .394 1.502.8.8 0 0 0 .794-.804.803.803 0 0 0-.56-.769c.196-.015.392-.036.584-.036zm7.894 0c.192 0 .39.02.585.036a.803.803 0 0 0-.561.769.8.8 0 0 0 .794.804.806.806 0 1 0 .392-1.502c.767.115 1.493.301 1.97.45-.082.377-.244.853-.557 1.204-.324.366-.771.652-1.68.652-1.43 0-2.496-1.02-2.503-2.202a.79.79 0 0 1 .262-.11c.335-.087.879-.1 1.298-.1zm-15.466.035a.8.8 0 0 1 .308.133c.292 2.08.7 4.383 1.267 6.595a9.17 9.17 0 0 1-.817-1.035c-.65-.955-1.15-2.212-1.15-2.51 0-1.319.091-2.283.235-2.81a1.15 1.15 0 0 1 .157-.373zm23.038 0c.035.052.095.146.157.372.144.528.236 1.492.236 2.81 0 .3-.502 1.556-1.151 2.511a9.17 9.17 0 0 1-.817 1.035c.567-2.212.975-4.515 1.267-6.595a.803.803 0 0 1 .308-.133zm-11.535 8.813c-.937 0-1.787.105-2.366.266.58.82 1.421 1.343 2.366 1.343.945 0 1.788-.523 2.367-1.343-.58-.161-1.43-.266-2.367-.266z"/>
</svg>
