<svg xmlns="http://www.w3.org/2000/svg" viewBox="0 0 31 46">
    <style>
        .color{fill:#000}
    </style>
    <path class="color" d="M25 0c-2.75 0-5 2.25-5 5s2.25 5 5 5 5-2.25 5-5-2.25-5-5-5zm0 2c1.669 0 3 1.331 3 3s-1.331 3-3 3-3-1.331-3-3 1.331-3 3-3zm-8.5 7C10.403 9 5 14.376 5 21c0 3.158.552 6.086 1.982 8.318C8.412 31.551 10.817 33 14 33h8.176l1.965 10.078a3.45 3.45 0 0 0 3.384 2.822c2.182 0 3.793-2.013 3.381-4.09l-2.424-12.6a4.016 4.016 0 0 0-1.393-2.273c.39-.403.77-.834.87-1.435.308-1.848-1.18-3.502-3.004-3.502h-3.803l.838-5.86A1 1 0 0 0 22 16c0-1.5.054-3.13-.668-4.572C20.611 9.985 18.972 9 16.5 9zm0 2c2.028 0 2.64.515 3.043 1.322.4.799.452 2.158.453 3.639l-.986 6.898A1 1 0 0 0 20 24h4.955c.66 0 1.141.514 1.031 1.172-.073.442-.568.828-1.142.828h-7.797c-.66 0-1.116-.519-1.04-1.121a1 1 0 0 0 .003-.02l.736-6.752a1 1 0 1 0-1.988-.214l-.735 6.732C13.796 26.41 15.245 28 17.047 28H24.5c1.056 0 1.816.648 2.021 1.61l2.422 12.58.002.005c.185.922-.403 1.705-1.42 1.705-.7 0-1.303-.562-1.416-1.18a1 1 0 0 0-.002-.011l-2.125-10.9A1 1 0 0 0 23 31h-9c-2.616 0-4.212-1.013-5.332-2.762C7.548 26.49 7 23.917 7 21c0-5.526 4.597-10 9.5-10zM1.2 35a1 1 0 1 0 0 2H19a1 1 0 1 0 0-2H1.2z"/>
</svg>
