<svg xmlns="http://www.w3.org/2000/svg" viewBox="0 0 42 42">
    <style>
        .color{fill:#000}
    </style>
    <path class="color" d="M21 0C9.409 0 0 9.409 0 21s9.409 21 21 21 21-9.409 21-21S32.591 0 21 0zm0 1.273c10.903 0 19.727 8.824 19.727 19.727S31.903 40.727 21 40.727 1.273 31.903 1.273 21 10.097 1.273 21 1.273zm0 1.909a.638.638 0 0 0 0 1.273.638.638 0 0 0 0-1.273zm3.368.328a.639.639 0 0 0-.139 1.263.64.64 0 0 0 .748-.5.641.641 0 0 0-.5-.75 1.297 1.297 0 0 0-.109-.013zm-6.716.002a.637.637 0 1 0 .621.512.638.638 0 0 0-.621-.512zm-3.222.977a.635.635 0 0 0-.592.88c.135.326.505.48.83.346a.638.638 0 0 0-.238-1.226zm13.16 0a.638.638 0 0 0-.259 1.225.635.635 0 0 0 .83-.345.635.635 0 0 0-.571-.88zM11.462 6.075a.636.636 0 1 0 .346 1.166.637.637 0 1 0-.346-1.166zm19.093 0a.636.636 0 0 0-.539.286.636.636 0 1 0 .882-.176.624.624 0 0 0-.343-.11zM8.86 8.213a.64.64 0 0 0-.457.189.633.633 0 0 0 0 .897.633.633 0 0 0 .897 0 .633.633 0 0 0 0-.897.626.626 0 0 0-.44-.189zm24.299 0a.64.64 0 0 0-.457.189.633.633 0 0 0 0 .897.633.633 0 0 0 .897 0 .633.633 0 0 0 0-.897.626.626 0 0 0-.44-.189zm2.135 2.605a.633.633 0 0 0-.534.987.634.634 0 1 0 .534-.987zm-28.569 0a.636.636 0 1 0 .343.107.642.642 0 0 0-.343-.107zm8.877 1.183l-3.6 3.6 5.4 5.399-5.4 5.4 3.6 3.599 5.399-5.4 5.4 5.4 3.599-3.6L24.6 21l5.4-5.4-.448-.45-3.152-3.149-5.399 5.4-5.4-5.4zm21.278 1.788a.635.635 0 1 0 .239 1.223.637.637 0 0 0 .345-.833.638.638 0 0 0-.584-.39zm-31.738 0a.633.633 0 0 0-.602.392.637.637 0 1 0 .602-.393zm10.46.012l5.399 5.4 5.4-5.4 1.799 1.8L22.8 21l5.4 5.4-1.8 1.799-5.399-5.4-5.4 5.4-1.799-1.8 5.4-5.399-5.4-5.4 1.8-1.799zm22.253 3.212a.546.546 0 0 0-.127.01.64.64 0 0 0-.5.748.64.64 0 0 0 .748.502.636.636 0 1 0-.122-1.26zm-33.688 0a.637.637 0 1 0 .607.758.636.636 0 0 0-.497-.748c-.038-.005-.073-.01-.11-.01zm-.348 3.35a.638.638 0 0 0 0 1.273.638.638 0 0 0 0-1.272zm34.364 0a.638.638 0 0 0 0 1.273.638.638 0 0 0 0-1.272zm-34.03 3.351zm33.717 0a.639.639 0 0 0-.142 1.263.641.641 0 0 0 .75-.5.64.64 0 0 0-.502-.75 1.706 1.706 0 0 0-.106-.013zm-.98 3.222a.641.641 0 0 0-.604.395.635.635 0 0 0 .346.83.637.637 0 1 0 .259-1.225zm-31.758.003a.66.66 0 0 0-.249.047.64.64 0 0 0-.345.833c.136.325.507.48.832.343a.636.636 0 0 0-.239-1.223zm30.167 2.97a.636.636 0 0 0-.365 1.163c.14.095.313.13.477.095a.623.623 0 0 0 .405-.271.631.631 0 0 0-.176-.88.595.595 0 0 0-.34-.107zm-28.576 0a.639.639 0 0 0-.537.99c.196.29.591.37.885.173a.636.636 0 0 0-.348-1.163zm2.137 2.605a.633.633 0 0 0-.457 1.084.633.633 0 0 0 .897 0 .633.633 0 0 0 0-.897.613.613 0 0 0-.44-.187zm24.299 0a.633.633 0 0 0-.457 1.084.633.633 0 0 0 .897 0 .633.633 0 0 0 0-.897.613.613 0 0 0-.44-.187zM11.467 34.65a.637.637 0 0 0-.363 1.166.636.636 0 1 0 .363-1.166zm19.086 0a.634.634 0 0 0-.534.99c.193.29.589.37.882.175a.639.639 0 0 0 .174-.885.625.625 0 0 0-.522-.28zM14.44 36.235a.636.636 0 1 0 .229.05.65.65 0 0 0-.229-.05zm13.14 0a.64.64 0 0 0-.592.393.654.654 0 0 0-.002.49.64.64 0 0 0 1.178 0 .636.636 0 0 0-.584-.883zm-9.913.98a.637.637 0 1 0-.034 1.273.637.637 0 0 0 .034-1.273zm6.686.002a.638.638 0 0 0-.355 1.163c.142.095.313.13.48.098a.655.655 0 0 0 .405-.271.636.636 0 0 0-.53-.99zM21 37.545a.638.638 0 0 0 0 1.273.638.638 0 0 0 0-1.273z" fill="#D0021B"/>
</svg>
