<svg xmlns="http://www.w3.org/2000/svg" viewBox="0 0 44 42">
    <style>
        .color{fill:#000}
    </style>
    <path class="color" d="M1 0v6c-.063.309-1 4.84-1 7.5 0 1.379.27 2.695 1 3.75V42h42V17.25c.73-1.055 1-2.371 1-3.75 0-2.633-.918-7.035-1-7.438V0H1zm2 2h38v3h-4.813a1.016 1.016 0 0 0-.406 0H29.22a.936.936 0 0 0-.313-.031.88.88 0 0 0-.093.031H22.22a.936.936 0 0 0-.313-.031.88.88 0 0 0-.093.031H15.22a.936.936 0 0 0-.313-.031.88.88 0 0 0-.094.031H8.22a.936.936 0 0 0-.313-.031.88.88 0 0 0-.093.031H3V2zm-.125 5H7v8.875C6.36 16.551 5.496 17 4.5 17c-.773 0-1.262-.195-1.625-.563a.972.972 0 0 0-.25-.312C2.227 15.551 2 14.605 2 13.5c0-1.973.703-5.582.875-6.5zM9 7h5v8.875c-.64.676-1.504 1.125-2.5 1.125s-1.86-.45-2.5-1.125V7zm7 0h5v8.875c-.64.676-1.504 1.125-2.5 1.125s-1.86-.45-2.5-1.125V7zm7 0h5v8.906c-.637.668-1.508 1.094-2.5 1.094-.996 0-1.86-.45-2.5-1.125V7zm7 0h5v8.906c-.637.668-1.508 1.094-2.5 1.094s-1.863-.426-2.5-1.094V7zm7 0h4.125c.172.918.875 4.527.875 6.5 0 .984-.18 1.824-.5 2.406a1.011 1.011 0 0 0-.469.625c-.351.309-.824.469-1.531.469-.992 0-1.863-.426-2.5-1.094V7zm-8 11c.96.822 2.121 1.438 3.5 1.438S35.04 18.822 36 18c.96.822 2.121 1.438 3.5 1.438.531 0 1.043-.092 1.5-.245V40h-3V22.376H27V40H3V19.193c.457.153.969.245 1.5.245 1.375 0 2.54-.589 3.5-1.407.96.818 2.125 1.407 3.5 1.407s2.54-.589 3.5-1.407c.96.818 2.125 1.407 3.5 1.407s2.54-.589 3.5-1.407c.96.818 2.125 1.407 3.5 1.407 1.379 0 2.54-.616 3.5-1.438zM6 22v15h18V22H6zm2 2h14v11H8V24zm21 0h7v16h-7V24z"/>
</svg>
