<svg xmlns="http://www.w3.org/2000/svg" viewBox="0 0 55 66">
    <style>
        .color{fill:#000}
    </style>
    <path class="color" d="M27.5 0C9.12 0 2.024 11.764 1.447 22.957v9.595C.435 33.7 0 35.169 0 37.035c0 3.301 2.154 6.008 5.337 6.726C9.103 53.519 15.344 66 26.053 66c5.79 0 10.278-3.733 13.75-8.609h-3.754c-3.184 3.873-6.514 5.74-10.132 5.74-6.949 0-12.908-6.905-18.409-21.253l-.271-.852-.86-.135c-1.882 0-3.482-1.703-3.482-3.856 0-.84.158-1.547.407-2.107L8.05 37.17a1.448 1.448 0 0 0 2.08-1.3V25.602c1.001-.067 3.636-.168 8.006-1.21 4.597-1.094 9.9-3.05 13.57-6.547 3.884 5.072 8.904 7.04 10.267 7.488V35.87a1.448 1.448 0 0 0 2.08 1.3l2.262-1.121v4.753c-.232.05-.48.09-.724.09l-.86.134-.316.852c-1.447 3.732-2.895 6.916-4.342 9.64 1.736-.286 3.364-.998 4.523-2.287.87-1.866 1.583-3.75 2.307-5.47.288-.073.57-.19.86-.314v1.031c0 4.837-3.806 8.609-8.685 8.609h-6.06c-.606-1.659-2.2-2.87-4.072-2.87h-2.894c-2.38 0-4.342 1.945-4.342 4.305 0 2.36 1.961 4.304 4.342 4.304h2.894c1.872 0 3.466-1.21 4.071-2.87h6.06c6.412 0 11.58-5.122 11.58-11.478v-1.435c2.38 0 4.342-1.944 4.342-4.304V33c0-2.36-1.962-4.304-4.342-4.304v-5.74C50.08 10.33 42.997 3.157 30.983 2.87L28.088 0H27.5zm-.588 2.87l2.895 2.87h.588c14.473 0 17.08 10.76 17.368 17.217v5.739h-.136a1.434 1.434 0 0 0-1.311 1.434v2.69l-1.448.718v-9.147a1.433 1.433 0 0 0-1.04-1.39s-7.214-2.247-10.765-7.98a1.46 1.46 0 0 0-1.357-.673c-.39.04-.752.23-.995.538-2.883 3.43-8.373 5.576-13.207 6.725-4.834 1.15-8.91 1.346-8.91 1.346a1.441 1.441 0 0 0-1.357 1.434v9.192l-3.03-1.435v-9.191C5.076 8.463 16.344 3.015 26.911 2.87zm22.299 28.695h1.447c.803 0 1.447.64 1.447 1.435v5.74c0 .795-.644 1.434-1.447 1.434h-1.176a1.42 1.42 0 0 0-.271-.045v-6.232a1.49 1.49 0 0 0 0-.449v-1.883zM26.053 53.087h2.894c.803 0 1.448.639 1.448 1.435s-.645 1.435-1.448 1.435h-2.894a1.437 1.437 0 0 1-1.448-1.435c0-.796.645-1.435 1.448-1.435z"/>
</svg>
