<svg xmlns="http://www.w3.org/2000/svg" viewBox="0 0 62 62">
    <style>
        .color{fill:#000}
    </style>
    <path class="color" d="M50 .508a2.01 2.01 0 0 0-1.422.582l-9.488 9.488a1.975 1.975 0 0 0-.531.98L34 7v4h-7v2h7v4l4.559-4.559c.078.36.254.704.53.98l9.49 9.49c.194.194.421.339.667.437A.982.982 0 0 0 49 24c0 .55.45 1 1 1a1.002 1.002 0 0 0 .762-1.652c.242-.098.465-.243.66-.438l9.488-9.488a2.025 2.025 0 0 0 0-2.844L51.422 1.09A2.01 2.01 0 0 0 50 .508zM10 2C4.488 2 0 6.488 0 12s4.488 10 10 10c5.176 0 9.445-3.957 9.95-9H20c.55 0 1-.45 1-1s-.45-1-1-1c-.016 0-.035.004-.05.004C19.444 5.957 15.175 2 10 2zm39.992.504c.012-.012.004-.012.016 0l9.488 9.488c.012.012.012.004 0 .016L50.004 21.5c-.008.008 0 .008-.008 0l-9.492-9.492c-.012-.012-.012-.004 0-.016l9.488-9.488zM10 4c4.43 0 8 3.57 8 8s-3.57 8-8 8-8-3.57-8-8 3.57-8 8-8zm0 2c-.55 0-1 .45-1 1s.45 1 1 1 1-.45 1-1-.45-1-1-1zm40 0c-.55 0-1 .45-1 1s.45 1 1 1 1-.45 1-1-.45-1-1-1zM14.309 8.5a1.03 1.03 0 0 0-.48.133 1.016 1.016 0 0 0-.466.61.975.975 0 0 0 .102.757.97.97 0 0 0 .605.465.97.97 0 0 0 .758-.102A.994.994 0 0 0 15.195 9a1.001 1.001 0 0 0-.886-.5zm-8.684 0a1.02 1.02 0 0 0-.82.5.994.994 0 0 0 .367 1.363.997.997 0 1 0 1-1.726 1.01 1.01 0 0 0-.547-.137zM24 11c-.55 0-1 .45-1 1s.45 1 1 1 1-.45 1-1-.45-1-1-1zm21 0c-.55 0-1 .45-1 1s.45 1 1 1 1-.45 1-1-.45-1-1-1zm10 0c-.55 0-1 .45-1 1s.45 1 1 1 1-.45 1-1-.45-1-1-1zM5.645 13.5A1.003 1.003 0 0 0 4.8 15c.133.227.351.395.61.465.257.07.53.035.76-.102a.997.997 0 0 0-.526-1.863zm8.636 0a1.007 1.007 0 0 0-.918 1.258c.07.258.239.476.465.61.48.277 1.09.109 1.367-.368a.994.994 0 0 0-.367-1.363.993.993 0 0 0-.547-.137zM10 16c-.55 0-1 .45-1 1s.45 1 1 1 1-.45 1-1-.45-1-1-1zm40 0c-.55 0-1 .45-1 1s.45 1 1 1 1-.45 1-1-.45-1-1-1zm-40 8l-5 5h4v7h2v-7h4l-5-5zm40 3c-.55 0-1 .45-1 1s.45 1 1 1 1-.45 1-1-.45-1-1-1zm-1 4v7h-4l4.047 4.047C43.984 42.53 40 46.809 40 52c0 5.512 4.488 10 10 10s10-4.488 10-10c0-5.191-3.984-9.469-9.047-9.953L55 38h-4v-7h-2zm-39 7c-.55 0-1 .45-1 1s.45 1 1 1 1-.45 1-1-.45-1-1-1zm0 4c-.55 0-1 .45-1 1H1v18h18V43h-8c0-.55-.45-1-1-1zm40 2c4.43 0 8 3.57 8 8s-3.57 8-8 8-8-3.57-8-8 3.57-8 8-8zM3 45h14v14H3V45zm47 1c-.55 0-1 .45-1 1s.45 1 1 1 1-.45 1-1-.45-1-1-1zM6 47c-.55 0-1 .45-1 1s.45 1 1 1 1-.45 1-1-.45-1-1-1zm4 0c-.55 0-1 .45-1 1s.45 1 1 1 1-.45 1-1-.45-1-1-1zm4 0c-.55 0-1 .45-1 1s.45 1 1 1 1-.45 1-1-.45-1-1-1zm40.305 1.5a1 1 0 0 0-.84 1.5.996.996 0 0 0 1.363.363.97.97 0 0 0 .465-.605.97.97 0 0 0-.102-.758.977.977 0 0 0-.886-.5zm-8.684 0a1.02 1.02 0 0 0-.82.5 1.004 1.004 0 0 0 1.125 1.469 1.008 1.008 0 0 0 .71-1.227.99.99 0 0 0-.468-.605.993.993 0 0 0-.547-.137zM6 51c-.55 0-1 .45-1 1s.45 1 1 1 1-.45 1-1-.45-1-1-1zm8 0c-.55 0-1 .45-1 1s.45 1 1 1 1-.45 1-1-.45-1-1-1zm31.645 2.5a.972.972 0 0 0-.477.133c-.477.277-.64.887-.367 1.367.277.477.89.64 1.367.363A.99.99 0 0 0 46.535 54a.988.988 0 0 0-.89-.5zm8.636 0a1 1 0 0 0-.453 1.867.994.994 0 0 0 1.363-.367.97.97 0 0 0 .102-.758.97.97 0 0 0-.465-.605.993.993 0 0 0-.547-.137zM6 55c-.55 0-1 .45-1 1s.45 1 1 1 1-.45 1-1-.45-1-1-1zm4 0c-.55 0-1 .45-1 1s.45 1 1 1 1-.45 1-1-.45-1-1-1zm4 0c-.55 0-1 .45-1 1s.45 1 1 1 1-.45 1-1-.45-1-1-1zm36 1c-.55 0-1 .45-1 1s.45 1 1 1 1-.45 1-1-.45-1-1-1z"/>
</svg>
