<svg xmlns="http://www.w3.org/2000/svg" viewBox="0 0 42 42">
    <style>
        .color{fill:#000}
    </style>
    <path class="color" d="M1.953 0C1.441 0 .922.188.555.555.187.922 0 1.44 0 1.953v38.094c0 .508.188 1.031.555 1.398.367.367.886.555 1.398.555h38.094c.508 0 1.031-.188 1.398-.555.367-.367.555-.886.555-1.398V1.953c0-.512-.188-1.031-.555-1.398C41.078.187 40.56 0 40.047 0H1.953zM2 2h38v38H2V2zm8.352 13.89l1.812 4.934L10.277 26h1.946l.543-1.828c.148-.57.312-1.188.48-1.832h.027c.18.644.348 1.215.54 1.8l.644 1.86h2.027l-1.996-5.086 1.89-5.023h-1.96l-.512 1.843a61.863 61.863 0 0 1-.422 1.653h-.03c-.165-.57-.298-1.098-.466-1.621l-.582-1.875h-2.054zm7.304 0L16.922 26h1.691l.168-3.512c.059-1.004.117-2.281.149-3.375h.043c.152 1.094.422 2.356.617 3.168l.84 3.551h1.394l.867-3.613c.2-.778.47-2.024.649-3.106h.047c-.032 1.082.043 2.387.086 3.348L23.656 26h1.75l-.61-10.11h-2.073l-.793 3.66c-.27 1.274-.496 2.415-.649 3.54h-.027c-.18-1.14-.438-2.266-.723-3.54l-.808-3.66h-2.067zm9.192 0V26h4.562v-1.664h-2.598V15.89h-1.964z"/>
</svg>
